<svg width="283" height="89" viewBox="0 0 283 89" fill="none" xmlns="http://www.w3.org/2000/svg">
<g clip-path="url(#clip0_734_54241)">
<path d="M283 7.8258C282.578 7.89454 282.411 8.27748 282.155 8.55241C279.718 11.2134 277.252 13.8645 274.874 16.5844C274.196 17.3601 273.832 17.2816 273.144 16.6531C271.788 15.4061 270.334 14.2671 268.654 13.4423C267.976 13.1085 267.278 12.8728 266.502 12.9612C265.912 13.0299 265.45 13.3147 265.234 13.8743C265.038 14.3849 265.332 14.7875 265.647 15.141C266.561 16.1426 267.72 16.8102 268.889 17.4583C270.747 18.4795 272.682 19.3632 274.471 20.4826C280.838 24.4495 282.853 30.3704 280.956 37.5776C279.61 42.6933 275.817 45.3837 270.855 46.5424C261.893 48.6437 254.435 46.1791 248.549 39.0504C247.999 38.3827 248.058 38.0194 248.627 37.4106C251.163 34.6809 253.668 31.912 256.135 29.1135C256.685 28.4949 256.98 28.328 257.599 29.0743C258.572 30.2525 259.721 31.2836 260.969 32.1771C261.51 32.56 262.07 32.9135 262.728 33.1001C263.564 33.3456 264.094 32.943 264.527 32.3342C264.959 31.7352 264.654 31.205 264.261 30.7435C263.603 29.958 262.777 29.3394 261.913 28.7993C260.085 27.6603 258.189 26.6097 256.4 25.4216C251.88 22.4268 249.394 18.234 249.669 12.755C249.925 7.56069 254.061 2.55297 259.554 1.08011C268.477 -1.30593 276.436 0.333858 282.784 7.51159C282.823 7.56069 282.912 7.57051 282.981 7.59997V7.83562L283 7.8258Z" fill="#020202"/>
<path d="M6.07604e-05 53.3077C2.52544 53.1604 5.06065 52.9346 7.58603 52.8756C11.0547 52.7971 14.494 53.072 17.8251 54.1128C23.0921 55.7526 25.6568 58.8162 25.8435 64.9138C25.981 69.519 22.3354 73.8001 17.4419 75.2042C15.6633 75.7148 13.8356 75.9995 11.9784 75.921C11.2218 75.8915 10.986 76.0683 11.0056 76.8734C11.0744 80.4476 11.0449 84.0119 11.1137 87.586C11.1334 88.3912 10.927 88.6465 10.0918 88.6661C7.19298 88.725 4.28437 88.833 1.38558 89C0.609297 89.0491 0.412769 88.892 0.402943 88.1064C0.363637 82.2248 0.265373 76.3432 0.186762 70.4518C0.186762 68.3996 0.235894 66.3376 0.206415 64.2854C0.176936 62.5867 0.353811 60.888 -0.00976562 59.1991C-0.00976562 57.2353 -0.00976562 55.2715 -0.00976562 53.3077H6.07604e-05ZM10.8386 64.2756C10.8877 66.6027 10.9761 66.6911 13.02 66.5143C14.5431 66.3769 15.3882 65.4735 15.2899 64.0792C15.1917 62.734 14.1304 62.0172 12.342 62.1056C11.3135 62.1514 10.8124 62.8354 10.8386 64.1577C10.8386 64.1577 10.8386 64.2363 10.8386 64.2756Z" fill="#020202"/>
<path d="M0 59.1991C0.35375 60.8782 0.186701 62.5867 0.216181 64.2854C0.255486 66.3376 0.216181 68.3996 0.196528 70.4517C0.137569 70.491 0.0687847 70.5107 0 70.5107V59.1991Z" fill="#56A947"/>
<path d="M119.027 23.4773C119.027 16.1032 119.047 8.71929 118.998 1.34517C118.998 0.559649 119.233 0.451639 119.911 0.471277C124.893 0.598925 129.885 0.716754 134.877 0.775668C135.584 0.775668 135.811 1.12915 136.056 1.64956C138.385 6.48054 140.734 11.3115 143.082 16.1327C143.19 16.3585 143.22 16.8004 143.495 16.7415C143.77 16.6826 143.603 16.28 143.593 16.0247C143.436 11.1642 143.298 6.29398 143.092 1.43355C143.053 0.559649 143.318 0.412363 144.114 0.422182C148.32 0.461458 152.525 0.461458 156.731 0.422182C157.566 0.422182 157.763 0.657839 157.763 1.47282C157.743 15.7694 157.733 30.0561 157.763 44.3527C157.763 45.148 157.546 45.423 156.751 45.5015C152.722 45.8648 148.693 46.2674 144.674 46.7092C143.868 46.7976 143.505 46.5521 143.151 45.8452C140.232 39.9046 137.265 33.9837 134.307 28.053C134.189 27.8174 134.022 27.6112 133.885 27.3853C133.619 27.6308 133.776 27.945 133.786 28.2199C134.002 34.0623 134.209 39.9046 134.474 45.747C134.513 46.5718 134.307 46.7878 133.472 46.778C129.109 46.6994 124.756 46.67 120.393 46.67C119.676 46.67 119.459 46.4834 119.469 45.7568C119.499 38.3336 119.489 30.9202 119.489 23.497C119.332 23.497 119.184 23.497 119.027 23.497V23.4773Z" fill="#020202"/>
<path d="M115.107 26.8846C115.028 33.4633 111.412 39.453 104.297 43.2038C97.6647 46.6994 90.5897 47.5733 83.269 45.9139C76.7148 44.4312 72.3716 40.3956 70.308 34.023C68.1167 27.2773 68.1364 20.4138 70.9664 13.9823C74.6709 5.55756 81.4708 1.02115 90.7764 0.569472C95.2769 0.353453 99.6103 1.15862 103.649 3.25008C107.933 5.46918 111.038 8.73893 112.689 13.3343C114.094 17.2324 115.097 21.2091 115.097 26.8846H115.107ZM96.2497 11.9105C96.4265 10.526 95.837 9.24953 95.2081 7.97305C95.0902 7.72757 94.8936 7.44282 94.5988 7.50173C94.2353 7.57046 94.3434 7.94359 94.3434 8.19889C94.3827 9.73066 93.9208 11.1642 93.2625 12.4996C92.0538 14.9348 90.0787 16.9869 89.8036 19.8639C89.7544 20.4433 89.3319 20.3843 88.9683 20.021C88.4377 19.4908 87.8678 18.9802 87.1799 18.7053C84.7626 17.7528 82.5222 16.496 80.5078 14.8464C80.3211 14.6893 80.1049 14.3554 79.8101 14.6107C79.5841 14.8071 79.6627 15.141 79.7708 15.3864C80.6159 17.4288 81.569 19.4024 83.495 20.6691C84.5759 21.3761 85.3031 22.3874 86.0106 23.4283C86.3447 23.9094 86.3054 24.1352 85.7158 24.3611C84.5759 24.8029 83.5442 25.451 82.7187 26.374C81.9719 27.2086 81.0384 27.7388 80.0165 28.1905C78.6408 28.7993 77.1766 29.0349 75.7518 29.467C75.516 29.5357 75.1033 29.3982 75.1229 29.791C75.1426 30.0856 75.516 30.1347 75.7715 30.2034C77.0882 30.5471 78.4148 30.4882 79.7413 30.3016C82.08 29.9776 84.3204 29.3001 86.5216 28.4556C87.6123 28.0334 88.1724 28.4458 88.2313 29.6044C88.2706 30.3114 88.1429 30.9693 87.8285 31.6468C87.1013 33.2277 86.6788 34.8871 86.9736 36.6545C87.0423 37.0375 87.0915 37.4695 87.5926 37.5481C88.0348 37.6168 88.2019 37.2633 88.3787 36.9589C88.8308 36.1636 89.4498 35.5155 90.0984 34.8773C90.9041 34.0819 91.7394 33.3062 92.1521 32.1967C92.3388 31.6959 92.6139 31.5486 93.0856 32.0396C93.6948 32.6582 94.4907 33.0313 95.326 33.267C96.4659 33.591 97.5468 34.0034 98.4115 34.8576C98.5785 35.0147 98.7161 35.2602 98.9912 35.1228C99.286 34.9755 99.1288 34.73 99.0993 34.5042C98.8733 33.1197 98.2739 31.9021 97.5271 30.7336C97.3699 30.4882 96.9375 30.282 97.1832 29.9579C97.3895 29.6928 97.7826 29.9383 98.0676 29.9874C99.1779 30.2034 100.278 30.498 101.389 30.714C103.61 31.146 105.752 30.6354 107.894 30.1543C108.11 30.1052 108.395 30.0463 108.415 29.7615C108.444 29.3884 108.09 29.3688 107.845 29.2902C107.285 29.1135 106.725 28.9662 106.164 28.7895C103.845 28.053 101.733 26.8453 99.5317 25.8536C98.6768 25.4706 98.5589 25.4019 99.2664 24.6949C101.261 22.682 102.627 20.1683 104.229 17.8608C104.356 17.6743 104.523 17.4484 104.347 17.2226C104.18 16.9968 103.934 17.0851 103.698 17.1441C102.539 17.3993 101.507 17.959 100.465 18.4991C98.9618 19.2748 97.645 20.3451 96.23 21.2582C95.6306 21.6412 95.2965 21.7001 95.1786 20.7967C94.9035 18.6955 95.0115 16.6433 95.7682 14.6696C96.1023 13.7958 96.2497 12.9415 96.2005 11.9399L96.2497 11.9105Z" fill="#E12228"/>
<path d="M198.139 23.7032C198.139 16.3585 198.139 9.02368 198.139 1.67902C198.139 1.21753 198.041 0.785489 198.778 0.697118C206.393 -0.216055 213.979 -0.569541 221.437 1.70848C224.778 2.72966 227.805 4.35963 229.515 7.58028C232.895 13.9234 232.364 21.0913 226.685 25.9812C226.056 26.5213 226.223 26.9042 226.478 27.4639C229.22 33.3651 231.942 39.2762 234.703 45.1578C235.086 45.963 235.165 46.2281 234.094 46.2576C229.692 46.3558 225.299 46.5227 220.907 46.7191C220.091 46.7583 219.669 46.5521 219.315 45.7666C217.251 41.24 215.119 36.7331 213.006 32.2261C212.889 31.9708 212.849 31.4701 212.554 31.5388C212.279 31.6075 212.476 32.0887 212.476 32.3832C212.535 36.7036 212.584 41.0142 212.682 45.3346C212.702 46.0121 212.515 46.2085 211.857 46.2379C207.818 46.3656 203.77 46.503 199.731 46.7191C198.778 46.7682 198.65 46.4049 198.65 45.5997C198.67 38.2943 198.66 30.9987 198.66 23.6934C198.493 23.6934 198.316 23.6934 198.149 23.6934L198.139 23.7032ZM214.294 11.9694C212.807 11.989 212.093 12.7418 212.152 14.2278C212.171 14.6598 212.191 15.0919 212.201 15.5239C212.25 17.6841 212.328 17.7626 214.51 17.6939C214.932 17.6841 215.375 17.6154 215.787 17.5074C217.242 17.1342 217.959 16.1818 217.929 14.6893C217.9 12.8629 216.662 11.9399 214.294 11.9694Z" fill="#020202"/>
<path d="M163.462 23.4577C163.462 16.0738 163.472 8.69967 163.442 1.31573C163.442 0.549843 163.688 0.422195 164.376 0.422195C173.416 0.441834 182.456 0.441834 191.497 0.422195C192.096 0.422195 192.401 0.48111 192.361 1.247C192.185 4.77204 192.057 8.3069 191.978 11.8418C191.959 12.6273 191.733 12.804 190.976 12.804C186.77 12.8433 182.574 12.9611 178.369 13.0102C177.602 13.0102 177.376 13.2263 177.386 14.002C177.406 16.2014 177.366 16.1916 179.577 16.2309C182.447 16.2702 185.316 16.3487 188.185 16.3585C188.853 16.3585 189.06 16.5353 189.05 17.2128C189.02 20.8655 189.02 24.5182 189.05 28.1709C189.05 28.9073 188.844 29.0939 188.126 29.1037C184.903 29.1528 181.69 29.3001 178.467 29.3492C177.514 29.359 177.091 29.575 177.131 30.6649C177.209 32.8349 177.14 32.8349 179.361 32.8349C183.331 32.8349 187.301 32.8644 191.271 32.8153C192.145 32.8055 192.42 33.0215 192.411 33.9052C192.401 37.9114 192.411 41.9176 192.509 45.9237C192.528 46.8958 192.018 46.7682 191.428 46.7682C183.685 46.7682 175.942 46.7682 168.198 46.7682C167.137 46.7682 166.066 46.6896 165.015 46.7878C164.042 46.8762 163.865 46.4834 163.865 45.6193C163.894 38.2354 163.885 30.8613 163.885 23.4774C163.747 23.4774 163.609 23.4774 163.462 23.4774V23.4577Z" fill="#020202"/>
<path d="M17.7072 47.2592C10.8385 47.1806 5.4242 44.2349 1.15954 38.9522C0.766489 38.4711 0.619093 38.1471 1.13989 37.5874C3.78319 34.7399 6.39701 31.8531 8.97152 28.9466C9.50215 28.3378 9.74781 28.5146 10.19 28.9957C11.3299 30.2427 12.5385 31.421 13.9535 32.3735C14.4153 32.6779 14.887 32.943 15.4176 33.1001C16.2332 33.3357 16.7835 32.9724 17.2159 32.344C17.6482 31.7352 17.3436 31.2148 16.9506 30.7533C16.3708 30.0562 15.6535 29.4867 14.8968 29.0055C13.0691 27.8567 11.2119 26.7668 9.38423 25.618C5.14906 22.9668 2.65316 19.1865 2.34854 14.1591C2.04392 9.20048 5.34559 4.11421 10.2784 1.82637C16.7245 -1.15863 27.7792 -0.873874 34.7461 6.60825C35.4635 7.37414 35.5814 7.82581 34.7756 8.66044C32.2797 11.2723 29.8624 13.9627 27.4746 16.6728C26.885 17.3405 26.5509 17.3405 25.9122 16.7415C24.5955 15.5043 23.1608 14.4046 21.5591 13.5503C20.8615 13.1772 20.1343 12.8826 19.3089 12.9514C18.68 13.0005 18.1494 13.2656 17.9135 13.8744C17.6974 14.4242 18.0315 14.8661 18.395 15.2294C19.81 16.6433 21.569 17.5172 23.3279 18.3911C25.7157 19.5891 28.0151 20.895 30.0491 22.6821C36.3282 28.1709 35.8663 41.1812 27.3076 45.2168C24.6839 46.454 21.2152 47.2592 17.7072 47.269V47.2592Z" fill="#020202"/>
<path d="M224.985 70.6678C224.985 65.1004 225.005 59.5231 224.965 53.9557C224.965 53.1702 225.123 52.8658 225.977 52.8953C229.544 53.0229 233.121 53.1015 236.698 53.1407C237.543 53.1506 238.005 53.4255 238.378 54.2208C240.019 57.7361 241.729 61.212 243.429 64.6978C243.557 64.9531 243.586 65.4637 243.92 65.3949C244.166 65.3458 243.999 64.8745 243.989 64.5996C243.871 61.0745 243.763 57.5397 243.596 54.0146C243.557 53.18 243.694 52.856 244.638 52.8756C247.704 52.9444 250.769 52.9247 253.835 52.8756C254.671 52.8658 254.975 53.0131 254.975 53.9459C254.936 64.8647 254.946 75.7737 254.965 86.6925C254.965 87.3995 254.847 87.7038 254.042 87.7628C251.025 87.9984 248.018 88.3224 245.021 88.6661C244.284 88.7447 243.92 88.5483 243.586 87.861C241.405 83.3933 239.174 78.9452 236.944 74.4972C236.845 74.291 236.875 73.8884 236.482 73.9473C236.443 73.9473 236.452 74.3696 236.462 74.5954C236.629 78.9452 236.757 83.3049 236.983 87.6547C237.032 88.5679 236.786 88.7741 235.912 88.7447C232.689 88.6661 229.476 88.6367 226.253 88.6661C225.496 88.6661 225.349 88.4305 225.349 87.7333C225.378 82.0382 225.358 76.353 225.358 70.6579C225.231 70.6579 225.113 70.6579 224.985 70.6579V70.6678Z" fill="#020202"/>
<path d="M188.126 52.6596C194.327 52.8953 199.977 54.7216 203.269 60.7211C205.205 64.2657 206.069 68.213 205.991 72.2781C205.873 78.3463 203.003 82.7747 197.707 85.6811C196.155 86.5354 194.504 87.154 192.784 87.586C189.355 88.4501 185.896 88.6858 182.398 88.0181C175.912 86.771 172.07 82.9809 170.743 76.5199C169.928 72.5629 170.095 68.645 171.205 64.7665C173.053 58.3056 179.312 53.2586 186.033 52.8069C186.662 52.7676 187.281 52.7185 188.126 52.6694V52.6596ZM187.645 77.1189C191.497 77.0993 194.16 74.8016 194.14 71.5024C194.12 67.5159 191.821 65.0611 188.097 65.0611C184.52 65.0611 182.024 67.7515 182.063 71.5711C182.093 75.106 184.147 77.1385 187.635 77.1189H187.645Z" fill="#020202"/>
<path d="M46.1543 30.6354C46.1543 25.6866 46.1347 20.7378 46.174 15.7988C46.174 14.9151 45.9381 14.6696 45.0636 14.6696C43.0197 14.6696 40.9856 14.5125 38.9417 14.4929C38.2834 14.4929 38.077 14.3162 38.0672 13.6386C37.9788 9.52446 37.851 5.40045 37.7036 1.28626C37.6741 0.618566 37.91 0.510557 38.4996 0.520376C48.0017 0.677481 57.5038 0.814948 67.0059 0.932776C67.6839 0.932776 67.8608 1.1488 67.8608 1.80667C67.8313 5.7343 67.8313 9.66192 67.8608 13.5797C67.8608 14.3358 67.6151 14.4831 66.9175 14.4929C65.0308 14.5125 63.154 14.65 61.2673 14.6795C60.55 14.6795 60.3534 14.8955 60.3436 15.6221C60.206 25.1564 60.0193 34.6907 59.8719 44.225C59.8326 46.7289 59.8523 46.7485 57.376 46.7191C53.9172 46.6798 50.4681 46.5718 47.0092 46.562C46.2133 46.562 46.1445 46.2478 46.1445 45.5997C46.1641 40.6116 46.1543 35.6334 46.1543 30.6453V30.6354Z" fill="#020202"/>
<path d="M57.8576 88.7348C53.7698 88.7348 49.6918 88.6956 45.6041 88.7643C44.533 88.7839 44.3168 88.4697 44.3365 87.4682C44.4052 84.2868 44.3758 81.1054 44.3463 77.9339C44.3463 77.3054 44.5035 76.8439 44.9653 76.3923C48.5815 72.7887 52.1681 69.1654 55.7645 65.5422C56.0299 65.2771 56.2657 64.9727 56.5114 64.6879C56.1379 64.3737 55.6958 64.5505 55.2929 64.5505C51.8733 64.5308 48.4537 64.521 45.044 64.5505C44.2971 64.5505 44.0318 64.413 44.0711 63.5882C44.2382 60.3774 44.3365 57.1567 44.4151 53.9459C44.4347 53.1407 44.6116 52.8363 45.5451 52.8363C53.6027 52.8854 61.6506 52.8854 69.7082 52.8363C70.6319 52.8363 70.7891 53.1211 70.8186 53.9459C70.9561 57.1567 71.1625 60.3676 71.3885 63.5784C71.4278 64.1577 71.2313 64.5308 70.8775 64.9334C67.4678 68.8316 64.0678 72.7494 60.6777 76.6574C60.5107 76.8538 60.2257 77.1582 60.2749 77.2858C60.3928 77.5706 60.7465 77.384 61.002 77.384C64.1858 77.384 67.3695 77.384 70.5434 77.3153C71.3295 77.2956 71.5162 77.5313 71.5064 78.2873C71.4376 81.3509 71.4278 84.4046 71.4376 87.4682C71.4376 88.2242 71.2411 88.4599 70.455 88.4501C66.2591 88.4108 62.0534 88.4304 57.8477 88.4304V88.7348H57.8576Z" fill="#020202"/>
<path d="M89.2628 88.7348C85.175 88.7348 81.0872 88.7054 77.0093 88.7545C76.1249 88.7545 75.8104 88.5777 75.8301 87.6155C75.8989 84.3948 75.8792 81.1742 75.8301 77.9535C75.8301 77.2171 76.0659 76.7261 76.5769 76.2155C80.2225 72.5825 83.8386 68.92 87.4547 65.2673C87.6316 65.0905 87.9951 64.9334 87.8969 64.6585C87.779 64.3639 87.4154 64.5309 87.1599 64.5309C83.6224 64.521 80.0849 64.4916 76.5474 64.5505C75.6139 64.5701 75.4469 64.2756 75.496 63.4213C75.6729 60.2105 75.8104 56.9898 75.889 53.779C75.9087 52.964 76.1937 52.8265 76.9208 52.8363C85.0178 52.856 93.1147 52.8658 101.212 52.8363C102.067 52.8363 102.253 53.1309 102.293 53.8968C102.44 57.0291 102.617 60.1712 102.823 63.3035C102.872 64.0203 102.686 64.5505 102.204 65.1004C98.8533 68.9003 95.5418 72.7396 92.2303 76.569C92.0436 76.785 91.6113 76.9716 91.7783 77.2956C91.9355 77.6 92.3482 77.3938 92.643 77.3938C95.7875 77.3938 98.9319 77.3742 102.076 77.3447C102.646 77.3447 103.02 77.3447 103 78.1303C102.912 81.2724 102.882 84.4145 102.882 87.5467C102.882 88.2439 102.754 88.4795 101.988 88.4697C97.7429 88.4305 93.5078 88.4501 89.2628 88.4501C89.2628 88.5483 89.2628 88.6465 89.2628 88.7545V88.7348Z" fill="#020202"/>
<path d="M121.926 53.0622C123.734 53.0622 125.542 53.1015 127.35 53.0426C128.127 53.0229 128.392 53.288 128.598 54.0343C131.576 65.2476 134.592 76.4512 137.629 87.6449C137.874 88.5581 137.727 88.7643 136.784 88.7545C133.639 88.6956 130.495 88.7152 127.35 88.7545C126.603 88.7545 126.25 88.5974 126.083 87.802C125.621 85.6615 125.021 83.5406 124.52 81.4098C124.363 80.7127 124.058 80.4476 123.331 80.4967C122.349 80.5556 121.366 80.5556 120.383 80.4967C119.705 80.4574 119.44 80.6734 119.302 81.3607C118.88 83.5111 118.349 85.6517 117.897 87.7922C117.76 88.4501 117.534 88.7643 116.757 88.7545C113.613 88.7054 110.468 88.7054 107.324 88.7545C106.4 88.7741 106.204 88.5876 106.449 87.6548C108.67 79.1613 110.852 70.658 113.043 62.1546C113.75 59.4249 114.468 56.6952 115.136 53.9557C115.323 53.18 115.568 52.7774 116.512 52.8364C118.31 52.9444 120.118 52.8658 121.926 52.8658C121.926 52.9247 121.926 52.9935 121.926 53.0524V53.0622ZM121.798 72.8574C122.113 72.8574 122.427 72.828 122.742 72.8574C123.616 72.9753 123.862 72.7592 123.655 71.797C123.213 69.735 122.948 67.6239 122.575 65.552C122.506 65.1691 122.663 64.5407 121.897 64.5505C121.179 64.5505 121.356 65.1495 121.297 65.4833C120.924 67.3293 120.609 69.1753 120.285 71.0311C119.971 72.8476 119.98 72.8574 121.798 72.8574Z" fill="#020202"/>
<path d="M264.605 76.137C264.605 72.445 264.586 68.753 264.625 65.0709C264.625 64.2265 264.517 63.8239 263.515 63.8632C262.109 63.9221 260.694 63.7355 259.279 63.7453C258.533 63.7453 258.356 63.4606 258.346 62.7929C258.277 59.8079 258.198 56.8327 258.051 53.8575C258.012 53.0425 258.287 52.8854 259.034 52.8953C264.173 52.9934 269.322 53.0524 274.461 53.1309C276.505 53.1604 278.539 53.2291 280.583 53.2291C281.182 53.2291 281.389 53.3666 281.379 54.0048C281.34 56.9898 281.34 59.9748 281.379 62.95C281.379 63.5882 281.153 63.7257 280.573 63.7355C279.197 63.7551 277.832 63.8632 276.456 63.873C275.827 63.873 275.601 64.0301 275.591 64.7272C275.483 72.337 275.316 79.9468 275.218 87.5565C275.208 88.4992 274.972 88.725 274.048 88.6857C271.268 88.5876 268.477 88.5679 265.686 88.5679C264.871 88.5679 264.556 88.3617 264.576 87.4387C264.645 83.6682 264.605 79.9075 264.605 76.137Z" fill="#020202"/>
<path d="M167.108 65.6699C167.108 69.2342 167.137 72.8083 167.108 76.3726C167.029 83.4031 162.528 87.9886 155.296 88.3912C153.419 88.4992 151.533 88.3912 149.646 88.4108C149.106 88.4108 148.88 88.2832 148.889 87.694C148.929 84.3948 148.948 81.1054 148.948 77.8062C148.948 77.1974 149.204 77.0993 149.735 77.1287C151.032 77.1876 152.319 77.1975 153.616 77.2367C155.277 77.276 155.758 76.9029 155.778 75.2238C155.817 72.0915 155.758 68.9494 155.729 65.8172C155.689 61.8601 155.65 57.8932 155.581 53.9361C155.571 53.2291 155.67 52.8953 156.525 52.9051C159.787 52.964 163.039 52.9542 166.302 52.9051C167.127 52.8953 167.255 53.1898 167.245 53.9164C167.216 57.8343 167.225 61.7619 167.225 65.6895C167.196 65.6895 167.167 65.6895 167.127 65.6895L167.108 65.6699Z" fill="#020202"/>
<path d="M220.317 70.7758C220.317 76.4316 220.298 82.0775 220.337 87.7333C220.337 88.6563 220.052 88.8232 219.207 88.8134C216.141 88.7643 213.075 88.7741 210.009 88.8134C209.272 88.8232 209.096 88.5974 209.086 87.8806C209.037 76.569 208.968 65.2673 208.879 53.9557C208.879 53.1702 209.027 52.8658 209.892 52.8854C213.193 52.9345 216.495 52.9247 219.796 52.8854C220.553 52.8756 220.671 53.1015 220.671 53.8183C220.632 59.474 220.651 65.12 220.651 70.7758C220.543 70.7758 220.425 70.7758 220.317 70.7758Z" fill="#020202"/>
<path d="M27.7496 70.7365C27.7496 65.1593 27.7693 59.5919 27.73 54.0146C27.73 53.1505 27.8577 52.7971 28.8502 52.8265C32.0732 52.8953 35.2963 52.8854 38.5095 52.8265C39.3349 52.8167 39.5511 53.0327 39.5413 53.8575C39.4037 65.1985 39.2956 76.5396 39.2072 87.8806C39.2072 88.5286 39.05 88.7545 38.3621 88.7447C35.1784 88.7054 31.9946 88.7054 28.8207 88.7447C28.0543 88.7545 27.9265 88.4795 27.9265 87.7922C27.956 82.0972 27.9363 76.4119 27.9363 70.7169C27.8676 70.7169 27.8086 70.7169 27.7398 70.7169L27.7496 70.7365Z" fill="#020202"/>
<path d="M234.477 7.10898C234.477 5.22372 234.507 3.34827 234.467 1.46301C234.448 0.756041 234.566 0.422193 235.401 0.45165C239.046 0.569479 242.692 0.628393 246.338 0.697127C246.799 0.697127 247.163 0.706946 247.143 1.37464C247.025 4.89969 247.389 8.43455 246.937 11.9498C246.475 15.4748 244.461 17.9492 241.395 19.6479C240.884 19.9327 240.56 19.8443 240.353 19.4024C240.098 18.8526 239.007 18.6366 239.675 17.7037C240.324 16.7906 240.697 15.7792 240.786 14.65C240.845 13.943 240.707 13.5699 239.842 13.6387C238.359 13.7467 236.855 13.6779 235.371 13.7859C234.585 13.8449 234.457 13.5601 234.467 12.8728C234.507 10.9482 234.477 9.03351 234.477 7.10898Z" fill="#020202"/>
<path d="M96.2497 11.9105C96.2988 12.9218 96.1514 13.7761 95.8173 14.6402C95.0607 16.6138 94.9526 18.666 95.2277 20.7673C95.3456 21.6706 95.6797 21.6215 96.2791 21.2288C97.6941 20.3156 99.0011 19.2551 100.514 18.4696C101.556 17.9296 102.588 17.3699 103.747 17.1146C103.983 17.0655 104.219 16.9673 104.396 17.1931C104.573 17.4288 104.406 17.6448 104.278 17.8314C102.666 20.1487 101.31 22.6525 99.3155 24.6654C98.6178 25.3724 98.7259 25.4412 99.5808 25.8241C101.792 26.8158 103.904 28.0137 106.214 28.76C106.774 28.9367 107.334 29.084 107.894 29.2608C108.14 29.3393 108.493 29.359 108.464 29.7321C108.444 30.0168 108.159 30.0757 107.943 30.1248C105.801 30.5962 103.649 31.1166 101.438 30.6845C100.328 30.4685 99.2271 30.1739 98.1167 29.9579C97.8219 29.899 97.4387 29.6633 97.2323 29.9285C96.9768 30.2525 97.4092 30.4587 97.5762 30.7042C98.323 31.8628 98.9224 33.0902 99.1485 34.4747C99.1878 34.7005 99.345 34.946 99.0404 35.0933C98.7652 35.2308 98.6178 34.9853 98.4606 34.8282C97.5959 33.9739 96.515 33.5615 95.3751 33.2375C94.5399 33.0018 93.7439 32.6287 93.1347 32.0101C92.6532 31.5191 92.3879 31.6664 92.2012 32.1672C91.7885 33.2768 90.9631 34.0525 90.1475 34.8478C89.4989 35.4762 88.8799 36.1341 88.4279 36.9295C88.251 37.2338 88.0839 37.5873 87.6418 37.5186C87.1406 37.44 87.0915 37.0178 87.0227 36.6251C86.7279 34.8576 87.1504 33.1982 87.8776 31.6173C88.192 30.9398 88.3198 30.2819 88.2805 29.575C88.2215 28.4163 87.6614 28.0137 86.5707 28.4261C84.3696 29.2706 82.1291 29.9481 79.7905 30.2721C78.4639 30.4587 77.1275 30.5176 75.8206 30.1739C75.5651 30.1052 75.1819 30.0659 75.1721 29.7615C75.1524 29.359 75.5651 29.5062 75.801 29.4375C77.216 29.0055 78.6899 28.7698 80.0656 28.161C81.0876 27.7094 82.0211 27.1791 82.7679 26.3445C83.5933 25.4215 84.625 24.7735 85.7649 24.3316C86.3545 24.1058 86.3938 23.8701 86.0597 23.3988C85.3424 22.3678 84.6152 21.3564 83.5441 20.6396C81.6083 19.373 80.665 17.3993 79.8199 15.357C79.7119 15.1115 79.6332 14.7776 79.8592 14.5813C80.154 14.3358 80.3604 14.6696 80.5569 14.8169C82.5713 16.4665 84.8117 17.7234 87.229 18.6758C87.9267 18.9508 88.4868 19.4613 89.0174 19.9916C89.381 20.3549 89.8036 20.4138 89.8527 19.8345C90.118 16.9477 92.1029 14.8955 93.3116 12.4702C93.9699 11.1446 94.4318 9.71101 94.3925 8.16942C94.3925 7.92394 94.2844 7.541 94.648 7.47227C94.9428 7.42317 95.1393 7.6981 95.2572 7.94358C95.8861 9.21024 96.4757 10.4965 96.2988 11.881L96.2497 11.9105Z" fill="#56A947"/>
</g>
<defs>
<clipPath id="clip0_734_54241">
<rect width="283" height="89" fill="white"/>
</clipPath>
</defs>
</svg>
