<svg fill="none" height="89" viewBox="0 0 283 89" width="283" xmlns="http://www.w3.org/2000/svg" xmlns:xlink="http://www.w3.org/1999/xlink"><clipPath id="a"><path d="m0 0h283v89h-283z"/></clipPath><g clip-path="url(#a)"><path d="m283 7.8258c-.422.06874-.589.45168-.845.72661-2.437 2.66099-4.903 5.31209-7.281 8.03199-.678.7757-1.042.6972-1.73.0687-1.356-1.247-2.81-2.386-4.49-3.2108-.678-.3338-1.376-.5695-2.152-.4811-.59.0687-1.052.3535-1.268.9131-.196.5106.098.9132.413 1.2667.914 1.0016 2.073 1.6692 3.242 2.3173 1.858 1.0212 3.793 1.9049 5.582 3.0243 6.367 3.9669 8.382 9.8878 6.485 17.095-1.346 5.1157-5.139 7.8061-10.101 8.9648-8.962 2.1013-16.42-.3633-22.306-7.492-.55-.6677-.491-1.031.078-1.6398 2.536-2.7297 5.041-5.4986 7.508-8.2971.55-.6186.845-.7855 1.464-.0392.973 1.1782 2.122 2.2093 3.37 3.1028.541.3829 1.101.7364 1.759.923.836.2455 1.366-.1571 1.799-.7659.432-.599.127-1.1292-.266-1.5907-.658-.7855-1.484-1.4041-2.348-1.9442-1.828-1.139-3.724-2.1896-5.513-3.3777-4.52-2.9948-7.006-7.1876-6.731-12.6666.256-5.19431 4.392-10.20203 9.885-11.67489 8.923-2.38604 16.882-.746252 23.23 6.43148.039.0491.128.05892.197.08838v.23565z" fill="#020202"/><path d="m.00006076 53.3077c2.52537924-.1473 5.06058924-.3731 7.58596924-.4321 3.46867-.0785 6.90797.1964 10.23907 1.2372 5.267 1.6398 7.8317 4.7034 8.0184 10.801.1375 4.6052-3.5081 8.8863-8.4016 10.2904-1.7786.5106-3.6063.7953-5.4635.7168-.7566-.0295-.9924.1473-.9728.9524.0688 3.5742.0393 7.1385.1081 10.7126.0197.8052-.1867 1.0605-1.0219 1.0801-2.89882.0589-5.80743.1669-8.70622.3339-.776283.0491-.972811-.108-.982637-.8936-.039306-5.8816-.13757-11.7632-.216181-17.6546 0-2.0522.049132-4.1142.019653-6.1664-.029479-1.6987.147396-3.3974-.21618062-5.0863 0-1.9638 0-3.9276 0-5.8914zm10.83853924 10.9679c.0491 2.3271.1375 2.4155 2.1814 2.2387 1.5231-.1374 2.3682-1.0408 2.2699-2.4351-.0982-1.3452-1.1595-2.062-2.9479-1.9736-1.0285.0458-1.5296.7298-1.5034 2.0521z" fill="#020202"/><path d="m0 59.1991c.35375 1.6791.186701 3.3876.216181 5.0863.039305 2.0522 0 4.1142-.019653 6.1663-.058959.0393-.1277433.059-.196528.059z" fill="#56a947"/><path d="m119.027 23.4773c0-7.3741.02-14.75801-.029-22.13213 0-.785521.235-.893531.913-.873893 4.982.127648 9.974.245477 14.966.304391.707 0 .934.353482 1.179.873892 2.329 4.83098 4.678 9.66194 7.026 14.48314.108.2258.138.6677.413.6088s.108-.4615.098-.7168c-.157-4.8605-.295-9.73072-.501-14.59115-.039-.873901.226-1.021187 1.022-1.011368 4.206.039276 8.411.039276 12.617 0 .835 0 1.032.235657 1.032 1.050638-.02 14.29658-.03 28.58328 0 42.87988 0 .7953-.217 1.0703-1.012 1.1488-4.029.3633-8.058.7659-12.077 1.2077-.806.0884-1.169-.1571-1.523-.864-2.919-5.9406-5.886-11.8615-8.844-17.7922-.118-.2356-.285-.4418-.422-.6677-.266.2455-.109.5597-.099.8346.216 5.8424.423 11.6847.688 17.5271.039.8248-.167 1.0408-1.002 1.031-4.363-.0786-8.716-.108-13.079-.108-.717 0-.934-.1866-.924-.9132.03-7.4232.02-14.8366.02-22.2598-.157 0-.305 0-.462 0z" fill="#020202"/><path d="m115.107 26.8846c-.079 6.5787-3.695 12.5684-10.81 16.3192-6.6323 3.4956-13.7073 4.3695-21.028 2.7101-6.5542-1.4827-10.8974-5.5183-12.961-11.8909-2.1913-6.7457-2.1716-13.6092.6584-20.0407 3.7045-8.42474 10.5044-12.96115 19.81-13.412828 4.5005-.216019 8.8339.589148 12.8726 2.680608 4.284 2.2191 7.389 5.48885 9.04 10.08422 1.405 3.8981 2.408 7.8748 2.408 13.5503zm-18.8573-14.9741c.1768-1.3845-.4127-2.66097-1.0416-3.93745-.1179-.24548-.3145-.53023-.6093-.47132-.3635.06873-.2554.44186-.2554.69716.0393 1.53177-.4226 2.96531-1.0809 4.30071-1.2087 2.4352-3.1838 4.4873-3.4589 7.3643-.0492.5794-.4717.5204-.8353.1571-.5306-.5302-1.1005-1.0408-1.7884-1.3157-2.4173-.9525-4.6577-2.2093-6.6721-3.8589-.1867-.1571-.4029-.491-.6977-.2357-.226.1964-.1474.5303-.0393.7757.8451 2.0424 1.7982 4.016 3.7242 5.2827 1.0809.707 1.8081 1.7183 2.5156 2.7592.3341.4811.2948.7069-.2948.9328-1.1399.4418-2.1716 1.0899-2.9971 2.0129-.7468.8346-1.6803 1.3648-2.7022 1.8165-1.3757.6088-2.8399.8444-4.2647 1.2765-.2358.0687-.6485-.0688-.6289.324.0197.2946.3931.3437.6486.4124 1.3167.3437 2.6433.2848 3.9698.0982 2.3387-.324 4.5791-1.0015 6.7803-1.846 1.0907-.4222 1.6508-.0098 1.7097 1.1488.0393.707-.0884 1.3649-.4028 2.0424-.7272 1.5809-1.1497 3.2403-.8549 5.0077.0687.383.1179.815.619.8936.4422.0687.6093-.2848.7861-.5892.4521-.7953 1.0711-1.4434 1.7197-2.0816.8057-.7954 1.641-1.5711 2.0537-2.6806.1867-.5008.4618-.6481.9335-.1571.6092.6186 1.4051.9917 2.2404 1.2274 1.1399.324 2.2208.7364 3.0855 1.5906.167.1571.3046.4026.5797.2652.2948-.1473.1376-.3928.1081-.6186-.226-1.3845-.8254-2.6021-1.5722-3.7706-.1572-.2454-.5896-.4516-.3439-.7757.2063-.2651.5994-.0196.8844.0295 1.1103.216 2.2104.5106 3.3214.7266 2.221.432 4.363-.0786 6.505-.5597.216-.0491.501-.108.521-.3928.029-.3731-.325-.3927-.57-.4713-.56-.1767-1.12-.324-1.681-.5007-2.319-.7365-4.431-1.9442-6.6323-2.9359-.8549-.383-.9728-.4517-.2653-1.1587 1.9946-2.0129 3.3606-4.5266 4.9626-6.8341.127-.1865.294-.4124.118-.6382-.167-.2258-.413-.1375-.649-.0785-1.159.2552-2.191.8149-3.233 1.355-1.5032.7757-2.82 1.846-4.235 2.7591-.5994.383-.9335.4419-1.0514-.4615-.2751-2.1012-.1671-4.1534.5896-6.1271.3341-.8738.4815-1.7281.4323-2.7297z" fill="#e12228"/><g fill="#020202"><path d="m198.139 23.7032c0-7.3447 0-14.67952 0-22.02418 0-.46149-.098-.893531.639-.981902 7.615-.913173 15.201-1.266659 22.659 1.011362 3.341 1.02118 6.368 2.65115 8.078 5.8718 3.38 6.34312 2.849 13.51102-2.83 18.40092-.629.5401-.462.923-.207 1.4827 2.742 5.9012 5.464 11.8123 8.225 17.6939.383.8052.462 1.0703-.609 1.0998-4.402.0982-8.795.2651-13.187.4615-.816.0392-1.238-.167-1.592-.9525-2.064-4.5266-4.196-9.0335-6.309-13.5405-.117-.2553-.157-.756-.452-.6873-.275.0687-.078.5499-.078.8444.059 4.3204.108 8.631.206 12.9514.02.6775-.167.8739-.825.9033-4.039.1277-8.087.2651-12.126.4812-.953.0491-1.081-.3142-1.081-1.1194.02-7.3054.01-14.601.01-21.9063-.167 0-.344 0-.511 0zm16.155-11.7338c-1.487.0196-2.201.7724-2.142 2.2584.019.432.039.8641.049 1.2961.049 2.1602.127 2.2387 2.309 2.17.422-.0098.865-.0785 1.277-.1865 1.455-.3732 2.172-1.3256 2.142-2.8181-.029-1.8264-1.267-2.7494-3.635-2.7199z"/><path d="m163.462 23.4577c0-7.3839.01-14.75803-.02-22.14197 0-.765887.246-.893535.934-.893535 9.04.019639 18.08.019639 27.121 0 .599 0 .904.058915.864.824805-.176 3.52504-.304 7.0599-.383 10.5948-.019.7855-.245.9622-1.002.9622-4.206.0393-8.402.1571-12.607.2062-.767 0-.993.2161-.983.9918.02 2.1994-.02 2.1896 2.191 2.2289 2.87.0393 5.739.1178 8.608.1276.668 0 .875.1768.865.8543-.03 3.6527-.03 7.3054 0 10.9581 0 .7364-.206.923-.924.9328-3.223.0491-6.436.1964-9.659.2455-.953.0098-1.376.2258-1.336 1.3157.078 2.17.009 2.17 2.23 2.17 3.97 0 7.94.0295 11.91-.0196.874-.0098 1.149.2062 1.14 1.0899-.01 4.0062 0 8.0124.098 12.0185.019.9721-.491.8445-1.081.8445-7.743 0-15.486 0-23.23 0-1.061 0-2.132-.0786-3.183.0196-.973.0884-1.15-.3044-1.15-1.1685.029-7.3839.02-14.758.02-22.1419-.138 0-.276 0-.423 0z"/><path d="m17.7072 47.2592c-6.8687-.0786-12.283-3.0243-16.54766-8.307-.393051-.4811-.540447-.8051-.01965-1.3648 2.6433-2.8475 5.25712-5.7343 7.83163-8.6408.53063-.6088.77629-.432 1.21848.0491 1.1399 1.247 2.3485 2.4253 3.7635 3.3778.4618.3044.9335.5695 1.4641.7266.8156.2356 1.3659-.1277 1.7983-.7561.4323-.6088.1277-1.1292-.2653-1.5907-.5798-.6971-1.2971-1.2666-2.0538-1.7478-1.8277-1.1488-3.6849-2.2387-5.51257-3.3875-4.23517-2.6512-6.73107-6.4315-7.03569-11.4589-.30462-4.95862 2.99705-10.04489 7.92986-12.33273 6.4461-2.985 17.5008-2.700244 24.4677 4.78188.7174.76589.8353 1.21756.0295 2.05219-2.4959 2.61186-4.9132 5.30226-7.301 8.01236-.5896.6677-.9237.6677-1.5624.0687-1.3167-1.2372-2.7514-2.3369-4.3531-3.1912-.6976-.3731-1.4248-.6677-2.2502-.5989-.6289.0491-1.1595.3142-1.3954.923-.2161.5498.118.9917.4815 1.355 1.415 1.4139 3.174 2.2878 4.9329 3.1617 2.3878 1.198 4.6872 2.5039 6.7212 4.291 6.2791 5.4888 5.8172 18.4991-2.7415 22.5347-2.6237 1.2372-6.0924 2.0424-9.6004 2.0522z"/><path d="m224.985 70.6678c0-5.5674.02-11.1447-.02-16.7121 0-.7855.158-1.0899 1.012-1.0604 3.567.1276 7.144.2062 10.721.2454.845.0099 1.307.2848 1.68 1.0801 1.641 3.5153 3.351 6.9912 5.051 10.477.128.2553.157.7659.491.6971.246-.0491.079-.5204.069-.7953-.118-3.5251-.226-7.0599-.393-10.585-.039-.8346.098-1.1586 1.042-1.139 3.066.0688 6.131.0491 9.197 0 .836-.0098 1.14.1375 1.14 1.0703-.039 10.9188-.029 21.8278-.01 32.7466 0 .707-.118 1.0113-.923 1.0703-3.017.2356-6.024.5596-9.021.9033-.737.0786-1.101-.1178-1.435-.8051-2.181-4.4677-4.412-8.9158-6.642-13.3638-.099-.2062-.069-.6088-.462-.5499-.039 0-.03.4223-.02.6481.167 4.3498.295 8.7095.521 13.0593.049.9132-.197 1.1194-1.071 1.09-3.223-.0786-6.436-.108-9.659-.0786-.757 0-.904-.2356-.904-.9328.029-5.6951.009-11.3803.009-17.0754-.127 0-.245 0-.373 0z"/><path d="m188.126 52.6596c6.201.2357 11.851 2.062 15.143 8.0615 1.936 3.5446 2.8 7.4919 2.722 11.557-.118 6.0682-2.988 10.4966-8.284 13.403-1.552.8543-3.203 1.4729-4.923 1.9049-3.429.8641-6.888 1.0998-10.386.4321-6.486-1.2471-10.328-5.0372-11.655-11.4982-.815-3.957-.648-7.8749.462-11.7534 1.848-6.4609 8.107-11.5079 14.828-11.9596.629-.0393 1.248-.0884 2.093-.1375zm-.481 24.4593c3.852-.0196 6.515-2.3173 6.495-5.6165-.02-3.9865-2.319-6.4413-6.043-6.4413-3.577 0-6.073 2.6904-6.034 6.51.03 3.5349 2.084 5.5674 5.572 5.5478z"/><path d="m46.1543 30.6354c0-4.9488-.0196-9.8976.0197-14.8366 0-.8837-.2359-1.1292-1.1104-1.1292-2.0439 0-4.078-.1571-6.1219-.1767-.6583 0-.8647-.1767-.8745-.8543-.0884-4.11414-.2162-8.23815-.3636-12.35234-.0295-.667694.2064-.775703.796-.765884 9.5021.157105 19.0042.294572 28.5063.4124.678 0 .8549.216024.8549.873894-.0295 3.92763-.0295 7.85525 0 11.77303 0 .7561-.2457.9034-.9433.9132-1.8867.0196-3.7635.1571-5.6502.1866-.7173 0-.9139.216-.9237.9426-.1376 9.5343-.3243 19.0686-.4717 28.6029-.0393 2.5039-.0196 2.5235-2.4959 2.4941-3.4588-.0393-6.9079-.1473-10.3668-.1571-.7959 0-.8647-.3142-.8647-.9623.0196-4.9881.0098-9.9663.0098-14.9544z"/><path d="m57.8576 88.7348c-4.0878 0-8.1658-.0392-12.2535.0295-1.0711.0196-1.2873-.2946-1.2676-1.2961.0687-3.1814.0393-6.3628.0098-9.5343 0-.6285.1572-1.09.619-1.5416 3.6162-3.6036 7.2028-7.2269 10.7992-10.8501.2654-.2651.5012-.5695.7469-.8543-.3735-.3142-.8156-.1374-1.2185-.1374-3.4196-.0197-6.8392-.0295-10.2489 0-.7469 0-1.0122-.1375-.9729-.9623.1671-3.2108.2654-6.4315.344-9.6423.0196-.8052.1965-1.1096 1.13-1.1096 8.0576.0491 16.1055.0491 24.1631 0 .9237 0 1.0809.2848 1.1104 1.1096.1375 3.2108.3439 6.4217.5699 9.6325.0393.5793-.1572.9524-.511 1.355-3.4097 3.8982-6.8097 7.816-10.1998 11.724-.167.1964-.452.5008-.4028.6284.1179.2848.4716.0982.7271.0982 3.1838 0 6.3675 0 9.5414-.0687.7861-.0197.9728.216.963.972-.0688 3.0636-.0786 6.1173-.0688 9.1809 0 .756-.1965.9917-.9826.9819-4.1959-.0393-8.4016-.0197-12.6073-.0197v.3044z"/><path d="m89.2628 88.7348c-4.0878 0-8.1756-.0294-12.2535.0197-.8844 0-1.1989-.1768-1.1792-1.139.0688-3.2207.0491-6.4413 0-9.662 0-.7364.2358-1.2274.7468-1.738 3.6456-3.633 7.2617-7.2955 10.8778-10.9482.1769-.1768.5404-.3339.4422-.6088-.1179-.2946-.4815-.1276-.737-.1276-3.5375-.0099-7.075-.0393-10.6125.0196-.9335.0196-1.1005-.2749-1.0514-1.1292.1769-3.2108.3144-6.4315.393-9.6423.0197-.815.3047-.9525 1.0318-.9427 8.097.0197 16.1939.0295 24.2912 0 .855 0 1.041.2946 1.081 1.0605.147 3.1323.324 6.2744.53 9.4067.049.7168-.137 1.247-.619 1.7969-3.3507 3.7999-6.6622 7.6392-9.9737 11.4686-.1867.216-.619.4026-.452.7266.1572.3044.5699.0982.8647.0982 3.1445 0 6.2889-.0196 9.433-.0491.57 0 .944 0 .924.7856-.088 3.1421-.118 6.2842-.118 9.4164 0 .6972-.128.9328-.894.923-4.2451-.0392-8.4802-.0196-12.7252-.0196v.3044z"/><path d="m121.926 53.0622c1.808 0 3.616.0393 5.424-.0196.777-.0197 1.042.2454 1.248.9917 2.978 11.2133 5.994 22.4169 9.031 33.6106.245.9132.098 1.1194-.845 1.1096-3.145-.0589-6.289-.0393-9.434 0-.747 0-1.1-.1571-1.267-.9525-.462-2.1405-1.062-4.2614-1.563-6.3922-.157-.6971-.462-.9622-1.189-.9131-.982.0589-1.965.0589-2.948 0-.678-.0393-.943.1767-1.081.864-.422 2.1504-.953 4.291-1.405 6.4315-.137.6579-.363.9721-1.14.9623-3.144-.0491-6.289-.0491-9.433 0-.924.0196-1.12-.1669-.875-1.0997 2.221-8.4935 4.403-16.9968 6.594-25.5002.707-2.7297 1.425-5.4594 2.093-8.1989.187-.7757.432-1.1783 1.376-1.1193 1.798.108 3.606.0294 5.414.0294v.1866zm-.128 19.7952c.315 0 .629-.0294.944 0 .874.1179 1.12-.0982.913-1.0604-.442-2.062-.707-4.1731-1.08-6.245-.069-.3829.088-1.0113-.678-1.0015-.718 0-.541.599-.6.9328-.373 1.846-.688 3.692-1.012 5.5478-.314 1.8165-.305 1.8263 1.513 1.8263z"/><path d="m264.605 76.137c0-3.692-.019-7.384.02-11.0661 0-.8444-.108-1.247-1.11-1.2077-1.406.0589-2.821-.1277-4.236-.1179-.746 0-.923-.2847-.933-.9524-.069-2.985-.148-5.9602-.295-8.9354-.039-.815.236-.9721.983-.9622 5.139.0981 10.288.1571 15.427.2356 2.044.0295 4.078.0982 6.122.0982.599 0 .806.1375.796.7757-.039 2.985-.039 5.97 0 8.9452 0 .6382-.226.7757-.806.7855-1.376.0196-2.741.1277-4.117.1375-.629 0-.855.1571-.865.8542-.108 7.6098-.275 15.2196-.373 22.8293-.01.9427-.246 1.1685-1.17 1.1292-2.78-.0981-5.571-.1178-8.362-.1178-.815 0-1.13-.2062-1.11-1.1292.069-3.7705.029-7.5312.029-11.3017z"/><path d="m167.108 65.6699c0 3.5643.029 7.1384 0 10.7027-.079 7.0305-4.58 11.616-11.812 12.0186-1.877.108-3.763 0-5.65.0196-.54 0-.766-.1276-.757-.7168.04-3.2992.059-6.5886.059-9.8878 0-.6088.256-.7069.787-.6775 1.297.0589 2.584.0688 3.881.108 1.661.0393 2.142-.3338 2.162-2.0129.039-3.1323-.02-6.2744-.049-9.4066-.04-3.9571-.079-7.924-.148-11.8811-.01-.707.089-1.0408.944-1.031 3.262.0589 6.514.0491 9.777 0 .825-.0098.953.2847.943 1.0113-.029 3.9179-.02 7.8455-.02 11.7731-.029 0-.058 0-.098 0z"/><path d="m220.317 70.7758c0 5.6558-.019 11.3017.02 16.9575 0 .923-.285 1.0899-1.13 1.0801-3.066-.0491-6.132-.0393-9.198 0-.737.0098-.913-.216-.923-.9328-.049-11.3116-.118-22.6133-.207-33.9249 0-.7855.148-1.0899 1.013-1.0703 3.301.0491 6.603.0393 9.904 0 .757-.0098.875.2161.875.9329-.039 5.6557-.02 11.3017-.02 16.9575-.108 0-.226 0-.334 0z"/><path d="m27.7496 70.7365c0-5.5772.0197-11.1446-.0196-16.7219 0-.8641.1277-1.2175 1.1202-1.1881 3.223.0688 6.4461.0589 9.6593 0 .8254-.0098 1.0416.2062 1.0318 1.031-.1376 11.341-.2457 22.6821-.3341 34.0231 0 .648-.1572.8739-.8451.8641-3.1837-.0393-6.3675-.0393-9.5414 0-.7664.0098-.8942-.2652-.8942-.9525.0295-5.695.0098-11.3803.0098-17.0753-.0687 0-.1277 0-.1965 0z"/><path d="m234.477 7.10898c0-1.88526.03-3.76071-.01-5.64597-.019-.706969.099-1.040817.934-1.01136 3.645.117829 7.291.176743 10.937.245477.461 0 .825.009819.805.677513-.118 3.52505.246 7.05991-.206 10.57516-.462 3.525-2.476 5.9994-5.542 7.6981-.511.2848-.835.1964-1.042-.2455-.255-.5498-1.346-.7658-.678-1.6987.649-.9131 1.022-1.9245 1.111-3.0537.059-.707-.079-1.0801-.944-1.0113-1.483.108-2.987.0392-4.471.1472-.786.059-.914-.2258-.904-.9131.04-1.9246.01-3.83929.01-5.76382z"/></g><path d="m96.2497 11.9105c.0491 1.0113-.0983 1.8656-.4324 2.7297-.7566 1.9736-.8647 4.0258-.5896 6.1271.1179.9033.452.8542 1.0514.4615 1.415-.9132 2.722-1.9737 4.2349-2.7592 1.042-.54 2.074-1.0997 3.233-1.355.236-.0491.472-.1473.649.0785.177.2357.01.4517-.118.6383-1.612 2.3173-2.968 4.8211-4.9625 6.834-.6977.707-.5896.7758.2653 1.1587 2.2112.9917 4.3232 2.1896 6.6332 2.9359.56.1767 1.12.324 1.68.5008.246.0785.599.0982.57.4713-.02.2847-.305.3436-.521.3927-2.142.4714-4.294.9918-6.505.5597-1.11-.216-2.2109-.5106-3.3213-.7266-.2948-.0589-.678-.2946-.8844-.0294-.2555.324.1769.5302.3439.7757.7468 1.1586 1.3462 2.386 1.5723 3.7705.0393.2258.1965.4713-.1081.6186-.2752.1375-.4226-.108-.5798-.2651-.8647-.8543-1.9456-1.2667-3.0855-1.5907-.8352-.2357-1.6312-.6088-2.2404-1.2274-.4815-.491-.7468-.3437-.9335.1571-.4127 1.1096-1.2381 1.8853-2.0537 2.6806-.6486.6284-1.2676 1.2863-1.7196 2.0817-.1769.3043-.344.6578-.7861.5891-.5012-.0786-.5503-.5008-.6191-.8935-.2948-1.7675.1277-3.4269.8549-5.0078.3144-.6775.4422-1.3354.4029-2.0423-.059-1.1587-.6191-1.5613-1.7098-1.1489-2.2011.8445-4.4416 1.522-6.7802 1.846-1.3266.1866-2.663.2455-3.9699-.0982-.2555-.0687-.6387-.108-.6485-.4124-.0197-.4025.393-.2553.6289-.324 1.415-.432 2.8889-.6677 4.2646-1.2765 1.022-.4516 1.9555-.9819 2.7023-1.8165.8254-.923 1.8571-1.571 2.997-2.0129.5896-.2258.6289-.4615.2948-.9328-.7173-1.031-1.4445-2.0424-2.5156-2.7592-1.9358-1.2666-2.8791-3.2403-3.7242-5.2826-.108-.2455-.1867-.5794.0393-.7757.2948-.2455.5012.0883.6977.2356 2.0144 1.6496 4.2548 2.9065 6.6721 3.8589.6977.275 1.2578.7855 1.7884 1.3158.3636.3633.7862.4222.8353-.1571.2653-2.8868 2.2502-4.939 3.4589-7.3643.6583-1.3256 1.1202-2.75919 1.0809-4.30078 0-.24548-.1081-.62842.2555-.69715.2948-.0491.4913.22583.6092.47131.6289 1.26666 1.2185 2.55292 1.0416 3.93742z" fill="#56a947"/></g></svg>