<svg fill="none" height="45" viewBox="0 0 51 45" width="51" xmlns="http://www.w3.org/2000/svg" xmlns:xlink="http://www.w3.org/1999/xlink"><filter id="a" color-interpolation-filters="sRGB" filterUnits="userSpaceOnUse" height="52.0629" width="57.7454" x="-3.6001" y="-1.5813"><feFlood flood-opacity="0" result="BackgroundImageFix"/><feColorMatrix in="SourceAlpha" result="hardAlpha" type="matrix" values="0 0 0 0 0 0 0 0 0 0 0 0 0 0 0 0 0 0 127 0"/><feOffset dy="2"/><feGaussianBlur stdDeviation="2"/><feComposite in2="hardAlpha" operator="out"/><feColorMatrix type="matrix" values="0 0 0 0 0.109804 0 0 0 0 0.109804 0 0 0 0 0.109804 0 0 0 0.2 0"/><feBlend in2="BackgroundImageFix" mode="normal" result="effect1_dropShadow_1535_14463"/><feBlend in="SourceGraphic" in2="effect1_dropShadow_1535_14463" mode="normal" result="shape"/></filter><g filter="url(#a)"><path d="m24.638 7.6054s-6.6558.14112-10.2374 4.5694c-3.5741 4.4215-6.34545 15.1729 10.298 25.1314 0 0 13.236-5.4026 14.0917-15.9659.8481-10.3818-6.5196-13.9768-14.1523-13.7349z" fill="#e30613"/><path d="m35.8904 22.4827s-2.2414-.3629-4.6796-1.4515c-.7496-.3359-1.3706-.5174-1.8703-.6047.6133-.383 1.1661-.9408 1.6886-1.6799.8556-1.223 2.1277-2.997 2.1277-2.997.0379-.0537.0303-.1209-.0151-.1747-.0455-.0538-.1212-.0739-.1969-.0538-1.6053.3562-3.1727 1.3977-4.3161 2.157-.4922.3293-.9162.6115-1.1434.6989-.0454.0134-.0757.0202-.0984.0202-.2953-1.2969-.4316-2.6812.1893-4.1998.7799-1.9084-.7042-3.7697-.7648-3.8504-.053-.0604-.1439-.0806-.2272-.0604-.0832.0268-.1287.1007-.1211.1679 0 .0202.3332 1.8345-1.4993 4.2334-.8329 1.0886-1.0979 2.2712-1.1358 3.2859-.7269-.6988-1.5447-1.149-2.5972-1.4649-1.6886-.4972-3.6725-1.8949-3.6876-1.9083-.0606-.0471-.159-.0538-.2272-.0135-.0681.0403-.0984.1143-.0757.1747.0378.0941.9541 2.3452 2.5972 3.2053.8708.4569 1.5447 1.2902 1.9612 1.9285-.6815.2151-1.6734.6451-2.4534 1.5119-1.0449 1.1491-4.4978 1.7673-4.5357 1.774-.0832.0135-.1514.0807-.1514.1546s.0606.1344.1514.1545c3.1652.551 7.0269-1.1356 7.1708-1.2028.3786-.1277.6739-.1075.8784.0672.3786.3293.3862 1.1424.0151 1.774-.5755.9676-.6133 2.9029-.2801 3.2725.0832.094.1893.1075.2498.1075h.0303c.2499-.0336.3105-.1546.3862-.2957.106-.2083.3256-.6384 1.3251-1.5119.8027-.7056 1.098-1.3574 1.1813-1.8479.371.3965.9616.8063 1.9081 1.0281 1.8779.4368 2.1354.9945 2.1354 1.0012.0227.0672.106.1143.1893.1075h.0378c.0985-.0201.159-.1008.1439-.1814-.0227-.0806-.5073-1.989-1.6659-2.7886-.1211-.0874-.2347-.168-.3483-.2487.5301.0874 1.1888.2083 1.999.383.8254.1748 1.6432.2218 2.4004.2016 1.84-.0537 3.2863-.5308 3.3696-.5577.0757-.0269.1287-.0941.1136-.1613 0-.0672-.0682-.1209-.1515-.1344" fill="#52ae32"/></g></svg>