<svg fill="none" height="44" viewBox="0 0 135 44" width="135" xmlns="http://www.w3.org/2000/svg" xmlns:xlink="http://www.w3.org/1999/xlink"><clipPath id="a"><path d="m0 0h135v44h-135z"/></clipPath><g clip-path="url(#a)"><path d="m135 3.86896c-.202.03398-.281.2233-.403.35922-1.163 1.31554-2.339 2.62622-3.474 3.97088-.323.38349-.496.34466-.825.03398-.646-.61651-1.34-1.17961-2.142-1.58738-.323-.16505-.656-.28155-1.026-.23786-.282.03398-.502.17475-.605.45145-.094.25243.047.45146.197.62622.436.49514.989.82524 1.547 1.14563.886.50485 1.809.94175 2.662 1.4951 3.038 1.9612 3.999 4.8884 3.094 8.4515-.642 2.5291-2.452 3.8592-4.819 4.432-4.275 1.0389-7.833-.1796-10.64-3.7038-.263-.3301-.235-.5098.037-.8107 1.209-1.3495 2.405-2.7185 3.581-4.102.263-.3058.403-.3883.699-.0194.464.5825 1.012 1.0923 1.608 1.534.257.1893.525.3641.839.4563.398.1214.651-.0777.857-.3786.207-.2961.061-.5583-.126-.7864-.314-.3884-.708-.6942-1.12-.9612-.872-.5631-1.777-1.0825-2.63-1.6699-2.156-1.4806-3.342-3.55341-3.211-6.26215.122-2.56796 2.095-5.04368 4.716-5.77184 4.256-1.179612 8.053-.368932 11.081 3.17961.019.02427.061.02913.094.04369v.11651z" fill="#1c1c1c"/><path d="m-.00006943 26.3544c1.20468943-.0728 2.41405943-.1845 3.61874943-.2136 1.65469-.0388 3.29531.0971 4.88438.6117 2.51254.8106 3.73594 2.3252 3.82504 5.3398.0656 2.2767-1.6735 4.3932-4.00786 5.0873-.84843.2525-1.72031.3932-2.60625.3544-.36093-.0146-.47343.0728-.46406.4709.03281 1.767.01875 3.5291.05156 5.2961.00938.398-.08906.5243-.4875.534-1.38281.0291-2.77031.0825-4.153122.165-.370312.0243-.464062-.0534-.46875-.4417-.01875-2.9078-.065625-5.8156-.1031249-8.7282 0-1.0145.0234379-2.034.009375-3.0485-.0140625-.8398.0703129-1.6796-.10312503-2.5146 0-.9709 0-1.9417 0-2.9126zm5.17030943 5.4223c.02344 1.1505.06563 1.1942 1.04063 1.1068.72656-.0679 1.12969-.5145 1.08281-1.2039-.04687-.665-.55312-1.0194-1.40625-.9757-.49062.0227-.72969.3608-.71719 1.0146z" fill="#1c1c1c"/><path d="m0 29.267c.167921.8301.088625 1.6748.102618 2.5146.018658 1.0145 0 2.0339-.0093286 3.0485-.0279868.0194-.0606381.0291-.0932894.0291z" fill="#1c1c1c"/><path d="m56.7795 11.6068c0-3.64563.0094-7.29611-.0141-10.941743 0-.38835.1125-.441748.436-.432039 2.3765.063107 4.7578.121359 7.139.150486.3375 0 .4454.174757.5626.432038 1.1109 2.388348 2.2312 4.776698 3.3515 7.160198.0516.11165.0656.33009.1969.30097.1312-.02913.0516-.22816.0469-.35437-.075-2.40291-.1407-4.81068-.2391-7.213594-.0188-.432039.1078-.504854.4875-.5 2.0063.019418 4.0125.019418 6.0187 0 .3985 0 .4922.116505.4922.519418-.0093 7.067966-.014 14.131036 0 21.199036 0 .3932-.1031.5291-.4828.568-1.9218.1796-3.8437.3786-5.7609.597-.3844.0437-.5578-.0776-.7266-.4271-1.3922-2.9369-2.8078-5.8641-4.2187-8.7962-.0563-.1165-.136-.2184-.2016-.3301-.1266.1214-.0516.2767-.0469.4127.1032 2.8883.2016 5.7767.3282 8.665.0187.4078-.0797.5146-.4782.5097-2.0812-.0388-4.1578-.0534-6.239-.0534-.3422 0-.4453-.0922-.4406-.4514.014-3.6699.0093-7.335.0093-11.0049-.075 0-.1453 0-.2203 0z" fill="#1c1c1c"/><path d="m54.9094 13.2913c-.0375 3.2524-1.7625 6.2136-5.1563 8.0679-3.164 1.7282-6.539 2.1602-10.0312 1.3398-3.1266-.733-5.1985-2.7281-6.1828-5.8786-1.0453-3.335-1.036-6.7282.314-9.90777 1.7672-4.16505 5.011-6.407767 9.45-6.631068 2.1469-.106796 4.2141.291262 6.1407 1.325238 2.0437 1.09709 3.5249 2.7136 4.3124 4.98544.6704 1.92719 1.1485 3.89316 1.1485 6.69906zm-8.9953-7.40294c.0843-.68447-.1969-1.31554-.4969-1.9466-.0563-.12136-.15-.26214-.2906-.23301-.1735.03398-.1219.21844-.1219.34466.0187.75728-.2016 1.46602-.5156 2.12621-.5766 1.20388-1.5188 2.21845-1.65 3.64078-.0235.2864-.225.2573-.3985.07767-.2531-.26214-.525-.51457-.8531-.65049-1.1531-.47087-2.2219-1.09223-3.1828-1.90777-.0891-.07767-.1922-.24271-.3328-.1165-.1078.09709-.0703.26214-.0188.38349.4031 1.00971.8578 1.98544 1.7766 2.6117.5156.3495.8625.8495 1.2 1.364.1594.2379.1406.3495-.1406.4612-.5438.2184-1.036.5388-1.4297.9951-.3563.4127-.8016.6748-1.2891.8981-.6562.301-1.3547.4175-2.0344.6311-.1125.0339-.3093-.034-.3.1602.0094.1456.1875.1699.3094.2038.6281.1699 1.2609.1408 1.8938.0486 1.1156-.1602 2.1843-.4952 3.2343-.9126.5204-.2088.7875-.0049.8157.5679.0187.3495-.0422.6748-.1922 1.0097-.3469.7816-.5485 1.602-.4078 2.4758.0328.1893.0562.4029.2953.4417.2109.034.2906-.1408.375-.2912.2156-.3933.5109-.7136.8203-1.0292.3844-.3932.7828-.7767.9797-1.3252.089-.2476.2203-.3204.4453-.0777.2906.3058.6703.4903 1.0687.6068.5438.1602 1.0594.3641 1.4719.7864.0797.0777.1453.199.2766.1311.1406-.0728.0656-.1942.0515-.3058-.1078-.6845-.3937-1.2864-.75-1.8641-.075-.1214-.2812-.2233-.164-.3835.0984-.1311.2859-.0097.4219.0146.5296.1067 1.0546.2524 1.5843.3592 1.0594.2136 2.0813-.0389 3.1032-.2767.1031-.0243.239-.0534.2484-.1942.014-.1845-.1547-.1942-.2719-.233-.2672-.0874-.5344-.1602-.8016-.2476-1.1062-.3641-2.114-.9611-3.164-1.4514-.4078-.1894-.4641-.2233-.1266-.5729.9516-.9951 1.6031-2.23782 2.3672-3.3786.0609-.09223.1406-.20388.0563-.31553-.0797-.11165-.1969-.06796-.3094-.03883-.5531.12621-1.0453.40291-1.5422.6699-.7172.38349-1.3453.91266-2.0203 1.36406-.286.1893-.4453.2185-.5016-.2281-.1312-1.03887-.0797-2.05344.2813-3.02916.1593-.43204.2297-.85437.2062-1.34952z" fill="#e30613"/><g fill="#1c1c1c"><path d="m94.5187 11.7185c0-3.63111 0-7.25732 0-10.888391 0-.228155-.0468-.441747.3047-.485437 3.6328-.451456 7.2516-.626213 10.8096.500001 1.594.504857 3.037 1.310677 3.853 2.902917 1.612 3.13592 1.359 6.67961-1.35 9.09711-.3.267-.22.4563-.099.733 1.308 2.9175 2.607 5.8398 3.924 8.7476.183.398.22.5291-.291.5436-2.1.0486-4.195.1311-6.29.2282-.389.0194-.591-.0825-.76-.4709-.984-2.2378-2.001-4.466-3.009-6.6941-.056-.1263-.075-.3738-.216-.3399-.131.034-.037.2719-.037.4175.028 2.1359.051 4.267.098 6.4029.01.335-.079.4321-.394.4466-1.9261.0631-3.8573.1311-5.7839.2379-.4547.0243-.5156-.1553-.5156-.5534.0094-3.6116.0047-7.2184.0047-10.8301-.0797 0-.1641 0-.2438 0zm7.7063-5.80101c-.709.00971-1.05.38188-1.022 1.1165.009.2136.019.42719.024.64078.023 1.06796.06 1.1068 1.101 1.07282.202-.00486.413-.03884.609-.09224.694-.18446 1.036-.65534 1.022-1.3932-.014-.90291-.604-1.35922-1.734-1.34466z"/><path d="m77.9766 11.5971c0-3.6505.0047-7.29613-.0094-10.946612 0-.378641.1172-.441748.4453-.441748 4.3125.009709 8.625.009709 12.9375 0 .2859 0 .4313.029126.4125.407767-.0844 1.742723-.1453 3.490293-.1828 5.237863-.0094.38835-.1172.47573-.4781.47573-2.0063.01942-4.0078.07767-6.0141.10194-.3656 0-.4734.1068-.4687.49029.0093 1.08738-.0094 1.08253 1.0453 1.10194 1.3687.01942 2.7375.05826 4.1062.06311.3188 0 .4172.08738.4125.42233-.014 1.80579-.014 3.61169 0 5.41749 0 .3641-.0984.4563-.4406.4612-1.5375.0242-3.0703.097-4.6078.1213-.4547.0049-.6563.1117-.6375.6505.0375 1.0728.0047 1.0728 1.064 1.0728 1.8938 0 3.7875.0146 5.6813-.0097.4172-.0049.5484.1019.5437.5388-.0046 1.9806 0 3.9612.0469 5.9418.0094.4806-.2344.4175-.5156.4175-3.6938 0-7.3875 0-11.0813 0-.5062 0-1.0171-.0389-1.5187.0097-.4641.0437-.5484-.1505-.5484-.5777.014-3.6505.0093-7.2961.0093-10.9466-.0656 0-.1312 0-.2015 0z"/><path d="m8.44687 23.3641c-3.27656-.0388-5.85937-1.4951-7.893745-4.1068-.1875-.2379-.257813-.3981-.009375-.6748 1.26094-1.4077 2.50781-2.8349 3.73594-4.2718.25312-.301.37031-.2136.58125.0243.54375.6165 1.12031 1.199 1.79531 1.6699.22031.1505.44531.2815.69844.3592.38906.1165.65156-.0631.85781-.3738.20625-.301.06094-.5582-.12656-.7864-.27657-.3447-.61875-.6262-.97969-.8641-.87188-.5679-1.75781-1.1068-2.62969-1.6747-2.02031-1.3107-3.21094-3.17964-3.35625-5.66508-.14531-2.45146 1.42969-4.96602 3.78281-6.097086 3.075-1.475728 8.34848-1.334952 11.67188 2.364076.3422.37864.3984.60194.0141 1.01456-1.1907 1.29127-2.3438 2.62136-3.4829 3.96117-.2812.3301-.4406.33009-.7453.03398-.6281-.61165-1.3125-1.15534-2.0765-1.57767-.33284-.18447-.67971-.3301-1.07346-.29612-.3.02427-.55313.15534-.66563.45631-.10312.27185.05625.49029.22969.66991.675.69903 1.5141 1.13106 2.3531 1.5631 1.1391.59224 2.236 1.23785 3.2063 2.12135 2.9953 2.7136 2.775 9.1456-1.3078 11.1408-1.2516.6116-2.9063 1.0097-4.57973 1.0146z"/><path d="m107.325 34.9369c0-2.7524.009-5.5097-.009-8.2621 0-.3884.075-.5389.482-.5243 1.702.0631 3.408.1019 5.115.1214.403.0048.623.1407.801.5339.783 1.7379 1.599 3.4564 2.409 5.1797.061.1262.075.3786.235.3446.117-.0243.037-.2573.033-.3932-.057-1.7427-.108-3.4903-.188-5.233-.019-.4126.047-.5728.497-.5631 1.463.034 2.925.0243 4.388 0 .398-.0049.543.068.543.5291-.018 5.3981-.014 10.7913-.004 16.1893 0 .3496-.057.5-.441.5292-1.439.1165-2.873.2767-4.303.4466-.352.0388-.525-.0583-.685-.3981-1.04-2.2087-2.104-4.4078-3.168-6.6068-.047-.1019-.033-.301-.221-.2718-.018 0-.014.2087-.009.3204.08 2.1504.141 4.3058.248 6.4563.024.4514-.093.5534-.51.5388-1.538-.0388-3.071-.0534-4.608-.0388-.361 0-.432-.1165-.432-.4612.015-2.8155.005-5.6262.005-8.4417-.061 0-.117 0-.178 0z"/><path d="m89.7422 26.034c2.9578.1165 5.6531 1.0194 7.2234 3.9854.9235 1.7525 1.336 3.7039 1.2985 5.7136-.0563 3-1.425 5.1893-3.9516 6.6262-.7406.4224-1.5281.7282-2.3484.9418-1.636.4272-3.286.5437-4.9547.2136-3.0938-.6165-4.9266-2.4903-5.5594-5.6845-.3891-1.9563-.3094-3.8932.2203-5.8107.8813-3.1941 3.8672-5.6893 7.0735-5.9126.3-.0194.5953-.0437.9984-.0679zm-.2297 12.0922c1.8375-.0097 3.1078-1.1456 3.0984-2.7767-.0093-1.9708-1.1062-3.1844-2.8828-3.1844-1.7062 0-2.8968 1.3301-2.8781 3.2184.0141 1.7476.9938 2.7524 2.6578 2.7427z"/><path d="m22.0172 15.1457c0-2.4466-.0094-4.8932.0094-7.33499 0-.4369-.1125-.55826-.5297-.55826-.975 0-1.9453-.07767-2.9203-.08738-.3141 0-.4125-.08737-.4172-.42233-.0422-2.03398-.1032-4.07281-.1735-6.106791-.014-.330097.0985-.383495.3797-.378641 4.5328.07767 9.0657.145631 13.5985.203884.3234 0 .4078.106796.4078.432039-.0141 1.941749-.0141 3.883499 0 5.820389 0 .37378-.1172.4466-.45.45145-.9.00971-1.7953.07767-2.6953.09224-.3422 0-.436.10679-.4407.46602-.0656 4.71357-.1547 9.42717-.225 14.14077-.0187 1.2379-.0093 1.2476-1.1906 1.233-1.65-.0194-3.2953-.0728-4.9453-.0777-.3797 0-.4125-.1553-.4125-.4757.0094-2.466.0047-4.9272.0047-7.3932z"/><path d="m27.6 43.8689c-1.95 0-3.8953-.0194-5.8453.0146-.5109.0097-.6141-.1456-.6047-.6408.0328-1.5728.0188-3.1456.0047-4.7136 0-.3106.075-.5388.2953-.7621 1.725-1.7816 3.4359-3.5728 5.1516-5.3641.1265-.131.239-.2815.3562-.4223-.1781-.1554-.389-.068-.5812-.068-1.6313-.0097-3.2625-.0145-4.8891 0-.3562 0-.4828-.0679-.4641-.4757.0797-1.5874.1266-3.1796.1641-4.767.0094-.398.0937-.5485.5391-.5485 3.8437.0242 7.6828.0242 11.5265 0 .4407 0 .5157.1407.5297.5485.0656 1.5874.1641 3.1748.2719 4.7621.0187.2865-.075.4709-.2438.6699-1.6265 1.9272-3.2484 3.8641-4.8656 5.7962-.0797.0971-.2156.2475-.1922.3106.0563.1408.225.0486.3469.0486 1.5188 0 3.0375 0 4.5516-.034.375-.0097.464.1068.4593.4806-.0328 1.5146-.0375 3.0243-.0328 4.5388 0 .3738-.0937.4903-.4687.4855-2.0016-.0195-4.0078-.0097-6.0141-.0097v.1504z"/><path d="m42.5813 43.869c-1.95 0-3.9-.0146-5.8454.0097-.4218 0-.5718-.0874-.5625-.5631.0329-1.5923.0235-3.1845 0-4.7767 0-.3641.1125-.6068.3563-.8593 1.7391-1.7961 3.4641-3.6068 5.1891-5.4126.0843-.0874.2578-.165.2109-.301-.0563-.1456-.2297-.0631-.3516-.0631-1.6875-.0048-3.375-.0194-5.0625.0097-.4453.0098-.525-.1359-.5015-.5582.0843-1.5874.15-3.1796.1875-4.767.0093-.4029.1453-.4709.4922-.466 3.8625.0097 7.725.0146 11.5875 0 .4078 0 .4968.1456.5156.5243.0703 1.5485.1547 3.1019.2531 4.6504.0234.3544-.0656.6166-.2953.8884-1.5984 1.8786-3.1781 3.7767-4.7578 5.6699-.0891.1068-.2953.199-.2156.3592.075.1505.2718.0486.4125.0486 1.5 0 3-.0097 4.5-.0243.2718 0 .45 0 .4406.3883-.0422 1.5534-.0563 3.1068-.0563 4.6554 0 .3446-.0609.4611-.4265.4563-2.025-.0194-4.0453-.0097-6.0703-.0097v.1505z"/><path d="m58.1625 26.233c.8625 0 1.725.0195 2.5875-.0097.3703-.0097.4969.1214.5953.4903 1.4203 5.5437 2.8594 11.0825 4.3078 16.6165.1172.4515.0469.5534-.4031.5486-1.5-.0292-3-.0194-4.5 0-.3562 0-.525-.0777-.6047-.4709-.2203-1.0583-.5062-2.1068-.7453-3.1602-.075-.3447-.2203-.4757-.5672-.4514-.4687.0291-.9375.0291-1.4062 0-.3235-.0195-.45.0873-.5157.4271-.2015 1.0631-.4546 2.1214-.6703 3.1796-.0656.3253-.1734.4806-.5437.4758-1.5-.0243-3-.0243-4.5 0-.4406.0097-.5344-.0826-.4172-.5437 1.0594-4.199 2.1-8.4029 3.1453-12.6068.3375-1.3495.6797-2.699.9984-4.0534.0891-.3835.2063-.5825.6563-.5534.8578.0534 1.7203.0146 2.5828.0146v.0922zm-.0609 9.7864c.15 0 .3-.0145.45 0 .4172.0583.5343-.0485.4359-.5242-.2109-1.0194-.3375-2.0631-.5156-3.0874-.0328-.1893.0422-.5-.3235-.4951-.3421 0-.2578.2961-.2859.4611-.1781.9126-.3281 1.8253-.4828 2.7427-.15.8981-.1453.9029.7219.9029z"/><path d="m126.225 37.6408c0-1.8252-.009-3.6505.009-5.4709 0-.4175-.051-.6165-.529-.5971-.671.0292-1.346-.0631-2.021-.0582-.356 0-.44-.1408-.445-.4709-.033-1.4757-.07-2.9466-.141-4.4175-.018-.4029.113-.4805.469-.4757 2.452.0486 4.908.0777 7.36.1165.975.0146 1.945.0486 2.92.0486.286 0 .384.0679.38.3835-.019 1.4757-.019 2.9514 0 4.4223 0 .3155-.108.3835-.385.3883-.656.0097-1.308.0631-1.964.068-.3 0-.408.0777-.412.4223-.052 3.7622-.132 7.5243-.179 11.2864-.004.4661-.117.5777-.557.5583-1.327-.0486-2.658-.0583-3.989-.0583-.389 0-.539-.1019-.53-.5582.033-1.8641.014-3.7233.014-5.5874z"/><path d="m79.7156 32.466c0 1.7622.0141 3.5292 0 5.2913-.0375 3.4757-2.1844 5.7427-5.6344 5.9417-.8953.0534-1.7953 0-2.6953.0098-.2578 0-.3656-.0632-.3609-.3544.0188-1.6311.0281-3.2573.0281-4.8884 0-.3009.1219-.3495.375-.3349.6188.0291 1.2328.034 1.8516.0534.7922.0194 1.0219-.1651 1.0312-.9952.0188-1.5485-.0093-3.1019-.0234-4.6504-.0188-1.9564-.0375-3.9175-.0703-5.8738-.0047-.3495.0422-.5146.45-.5097 1.5562.0291 3.1078.0242 4.6641 0 .3937-.0049.4546.1407.4499.5-.014 1.9369-.0093 3.8786-.0093 5.8203-.0141 0-.0281 0-.0469 0z"/><path d="m105.098 34.9903c0 2.7961-.009 5.5874.01 8.3835 0 .4563-.136.5388-.539.534-1.463-.0243-2.925-.0194-4.388 0-.3513.0048-.4357-.1068-.4404-.4612-.0234-5.5922-.0562-11.1796-.0984-16.7718 0-.3884.0703-.5389.4828-.5292 1.575.0243 3.15.0195 4.725 0 .361-.0048.417.1068.417.4612-.019 2.7961-.009 5.5874-.009 8.3835-.052 0-.108 0-.16 0z"/><path d="m13.2375 34.9709c0-2.7573.0094-5.5097-.0094-8.267 0-.4272.061-.6019.5344-.5874 1.5375.034 3.075.0292 4.6078 0 .3938-.0048.4969.102.4922.5097-.0656 5.6068-.1172 11.2136-.1594 16.8204 0 .3204-.075.4321-.4031.4272-1.5187-.0194-3.0375-.0194-4.5516 0-.3656.0049-.4265-.1311-.4265-.4709.014-2.8155.0047-5.6262.0047-8.4417-.0328 0-.061 0-.0938 0z"/><path d="m111.853 3.51459c0-.93204.014-1.85922-.005-2.791262-.009-.349515.047-.514563.446-.5 1.739.058252 3.478.087379 5.217.121359.22 0 .394.004854.384.334952-.056 1.742721.117 3.490291-.098 5.228151-.22 1.74272-1.181 2.96603-2.644 3.80583-.244.14078-.398.09709-.497-.12136-.122-.27184-.642-.37864-.323-.8398.309-.45146.487-.95146.529-1.50971.029-.34952-.037-.53398-.45-.5-.707.05339-1.425.01941-2.132.07281-.375.02913-.436-.11165-.432-.45145.019-.95146.005-1.89806.005-2.84952z"/></g><path d="m45.9141 5.88836c.0234.5-.0469.92233-.2063 1.34951-.3609.97573-.4125 1.99029-.2812 3.02913.0562.4466.2156.4223.5015.2282.675-.4515 1.2985-.97577 2.0203-1.36412.4969-.26699.9891-.54369 1.5422-.66991.1125-.02427.225-.07281.3094.03884.0844.1165.0047.2233-.0562.31553-.7688 1.14563-1.4157 2.38346-2.3672 3.37866-.3328.3495-.2813.3835.1265.5728 1.0547.4903 2.0625 1.0825 3.1641 1.4515.2672.0873.5344.1601.8016.2475.1171.0389.2859.0486.2718.233-.0093.1408-.1453.1699-.2484.1942-1.0219.233-2.0484.4903-3.1031.2767-.5297-.1068-1.0547-.2524-1.5844-.3592-.1406-.0291-.3234-.1456-.4219-.0146-.1219.1602.0844.2622.1641.3835.3562.5728.6422 1.1796.75 1.8641.0187.1116.0937.233-.0516.3058-.1312.068-.2015-.0534-.2765-.131-.4125-.4224-.9282-.6263-1.4719-.7865-.3985-.1165-.7781-.3009-1.0688-.6067-.2297-.2428-.3562-.17-.4453.0776-.1969.5486-.5906.9321-.9797 1.3253-.3093.3106-.6047.6359-.8203 1.0291-.0844.1505-.164.3252-.375.2913-.239-.0389-.2625-.2476-.2953-.4418-.1406-.8738.0609-1.6942.4078-2.4757.15-.335.211-.6602.1922-1.0097-.0281-.5728-.2953-.7719-.8156-.568-1.05.4175-2.1188.7524-3.2344.9126-.6328.0923-1.2703.1214-1.8937-.0485-.1219-.034-.3047-.0534-.3094-.2039-.0094-.199.1875-.1262.3-.1602.675-.2136 1.3781-.3301 2.0344-.6311.4875-.2233.9328-.4854 1.289-.898.3938-.4563.886-.7767 1.4297-.9952.2813-.1116.3-.2281.1406-.4611-.3422-.5097-.689-1.0097-1.2-1.3641-.9234-.62622-1.3734-1.60195-1.7765-2.61166-.0516-.12136-.0891-.28641.0187-.38349.1406-.12136.2391.04369.3328.1165.961.81554 2.0297 1.4369 3.1828 1.90777.3329.13592.6.38835.8532.65048.1734.1796.375.2087.3984-.07766.1266-1.42719 1.0734-2.44175 1.65-3.64078.3141-.65534.5344-1.36408.5156-2.12622 0-.12135-.0515-.31067.1219-.34466.1406-.02427.2344.11165.2906.23301.3.62622.5813 1.26214.4969 1.94661z" fill="#52ae32"/></g></svg>