<svg width="135" height="44" viewBox="0 0 135 44" fill="none" xmlns="http://www.w3.org/2000/svg">
<g clip-path="url(#clip0_972_3997)">
<path d="M135 3.86896C134.798 3.90294 134.719 4.09226 134.597 4.22818C133.434 5.54372 132.258 6.8544 131.123 8.19906C130.8 8.58255 130.627 8.54372 130.298 8.23304C129.652 7.61653 128.958 7.05343 128.156 6.64566C127.833 6.48061 127.5 6.36411 127.13 6.4078C126.848 6.44178 126.628 6.58255 126.525 6.85925C126.431 7.11168 126.572 7.31071 126.722 7.48547C127.158 7.98061 127.711 8.31071 128.269 8.6311C129.155 9.13595 130.078 9.57285 130.931 10.1262C133.969 12.0874 134.93 15.0146 134.025 18.5777C133.383 21.1068 131.573 22.4369 129.206 23.0097C124.931 24.0486 121.373 22.8301 118.566 19.3059C118.303 18.9758 118.331 18.7961 118.603 18.4952C119.812 17.1457 121.008 15.7767 122.184 14.3932C122.447 14.0874 122.587 14.0049 122.883 14.3738C123.347 14.9563 123.895 15.4661 124.491 15.9078C124.748 16.0971 125.016 16.2719 125.33 16.3641C125.728 16.4855 125.981 16.2864 126.187 15.9855C126.394 15.6894 126.248 15.4272 126.061 15.1991C125.747 14.8107 125.353 14.5049 124.941 14.2379C124.069 13.6748 123.164 13.1554 122.311 12.568C120.155 11.0874 118.969 9.01459 119.1 6.30585C119.222 3.73789 121.195 1.26217 123.816 0.53401C128.072 -0.645602 131.869 0.165078 134.897 3.71362C134.916 3.73789 134.958 3.74275 134.991 3.75731V3.87382L135 3.86896Z" fill="#1C1C1C"/>
<path d="M-6.94278e-05 26.3544C1.20462 26.2816 2.41399 26.1699 3.61868 26.1408C5.27337 26.102 6.91399 26.2379 8.50306 26.7525C11.0156 27.5631 12.239 29.0777 12.3281 32.0923C12.3937 34.369 10.6546 36.4855 8.32024 37.1796C7.47181 37.4321 6.59993 37.5728 5.71399 37.534C5.35306 37.5194 5.24056 37.6068 5.24993 38.0049C5.28274 39.7719 5.26868 41.534 5.30149 43.301C5.31087 43.699 5.21243 43.8253 4.81399 43.835C3.43118 43.8641 2.04368 43.9175 0.660868 44C0.290556 44.0243 0.196806 43.9466 0.192118 43.5583C0.173368 40.6505 0.126493 37.7427 0.0889931 34.8301C0.0889931 33.8156 0.112431 32.7961 0.0983681 31.7816C0.0843056 30.9418 0.168681 30.102 -0.00475693 29.267C-0.00475693 28.2961 -0.00475693 27.3253 -0.00475693 26.3544H-6.94278e-05ZM5.17024 31.7767C5.19368 32.9272 5.23587 32.9709 6.21087 32.8835C6.93743 32.8156 7.34056 32.369 7.29368 31.6796C7.24681 31.0146 6.74056 30.6602 5.88743 30.7039C5.39681 30.7266 5.15774 31.0647 5.17024 31.7185C5.17024 31.7185 5.17024 31.7573 5.17024 31.7767Z" fill="#1C1C1C"/>
<path d="M0 29.267C0.167921 30.0971 0.088625 30.9418 0.102618 31.7816C0.121276 32.7961 0.102618 33.8155 0.0932894 34.8301C0.0653026 34.8495 0.0326513 34.8592 0 34.8592V29.267Z" fill="#1C1C1C"/>
<path d="M56.7795 11.6068C56.7795 7.96117 56.7889 4.31069 56.7654 0.665057C56.7654 0.276707 56.8779 0.223309 57.2014 0.233018C59.5779 0.296125 61.9592 0.354377 64.3404 0.383504C64.6779 0.383504 64.7858 0.558261 64.903 0.815542C66.0139 3.20389 67.1342 5.59224 68.2545 7.97574C68.3061 8.08739 68.3201 8.30583 68.4514 8.27671C68.5826 8.24758 68.503 8.04855 68.4983 7.92234C68.4233 5.51943 68.3576 3.11166 68.2592 0.708746C68.2404 0.276707 68.367 0.203892 68.7467 0.208746C70.753 0.228164 72.7592 0.228164 74.7654 0.208746C75.1639 0.208746 75.2576 0.325251 75.2576 0.728164C75.2483 7.79613 75.2436 14.8592 75.2576 21.9272C75.2576 22.3204 75.1545 22.4563 74.7748 22.4952C72.853 22.6748 70.9311 22.8738 69.0139 23.0922C68.6295 23.1359 68.4561 23.0146 68.2873 22.6651C66.8951 19.7282 65.4795 16.801 64.0686 13.8689C64.0123 13.7524 63.9326 13.6505 63.867 13.5388C63.7404 13.6602 63.8154 13.8155 63.8201 13.9515C63.9233 16.8398 64.0217 19.7282 64.1483 22.6165C64.167 23.0243 64.0686 23.1311 63.6701 23.1262C61.5889 23.0874 59.5123 23.0728 57.4311 23.0728C57.0889 23.0728 56.9858 22.9806 56.9905 22.6214C57.0045 18.9515 56.9998 15.2864 56.9998 11.6165C56.9248 11.6165 56.8545 11.6165 56.7795 11.6165V11.6068Z" fill="#1C1C1C"/>
<path d="M54.9094 13.2913C54.8719 16.5437 53.1469 19.5049 49.7531 21.3592C46.5891 23.0874 43.2141 23.5194 39.7219 22.699C36.5953 21.966 34.5234 19.9709 33.5391 16.8204C32.4938 13.4854 32.5031 10.0922 33.8531 6.91263C35.6203 2.74758 38.8641 0.504863 43.3031 0.281562C45.45 0.174766 47.5172 0.572824 49.4438 1.6068C51.4875 2.70389 52.9687 4.3204 53.7562 6.59224C54.4266 8.51943 54.9047 10.4854 54.9047 13.2913H54.9094ZM45.9141 5.88836C45.9984 5.20389 45.7172 4.57282 45.4172 3.94176C45.3609 3.8204 45.2672 3.67962 45.1266 3.70875C44.9531 3.74273 45.0047 3.92719 45.0047 4.05341C45.0234 4.81069 44.8031 5.51943 44.4891 6.17962C43.9125 7.3835 42.9703 8.39807 42.8391 9.8204C42.8156 10.1068 42.6141 10.0777 42.4406 9.89807C42.1875 9.63593 41.9156 9.3835 41.5875 9.24758C40.4344 8.77671 39.3656 8.15535 38.4047 7.33981C38.3156 7.26214 38.2125 7.0971 38.0719 7.22331C37.9641 7.3204 38.0016 7.48545 38.0531 7.6068C38.4562 8.61651 38.9109 9.59224 39.8297 10.2185C40.3453 10.568 40.6922 11.068 41.0297 11.5825C41.1891 11.8204 41.1703 11.932 40.8891 12.0437C40.3453 12.2621 39.8531 12.5825 39.4594 13.0388C39.1031 13.4515 38.6578 13.7136 38.1703 13.9369C37.5141 14.2379 36.8156 14.3544 36.1359 14.568C36.0234 14.6019 35.8266 14.534 35.8359 14.7282C35.8453 14.8738 36.0234 14.8981 36.1453 14.932C36.7734 15.1019 37.4062 15.0728 38.0391 14.9806C39.1547 14.8204 40.2234 14.4854 41.2734 14.068C41.7938 13.8592 42.0609 14.0631 42.0891 14.6359C42.1078 14.9854 42.0469 15.3107 41.8969 15.6456C41.55 16.4272 41.3484 17.2476 41.4891 18.1214C41.5219 18.3107 41.5453 18.5243 41.7844 18.5631C41.9953 18.5971 42.075 18.4223 42.1594 18.2719C42.375 17.8786 42.6703 17.5583 42.9797 17.2427C43.3641 16.8495 43.7625 16.466 43.9594 15.9175C44.0484 15.6699 44.1797 15.5971 44.4047 15.8398C44.6953 16.1456 45.075 16.3301 45.4734 16.4466C46.0172 16.6068 46.5328 16.8107 46.9453 17.233C47.025 17.3107 47.0906 17.432 47.2219 17.3641C47.3625 17.2913 47.2875 17.1699 47.2734 17.0583C47.1656 16.3738 46.8797 15.7719 46.5234 15.1942C46.4484 15.0728 46.2422 14.9709 46.3594 14.8107C46.4578 14.6796 46.6453 14.801 46.7813 14.8253C47.3109 14.932 47.8359 15.0777 48.3656 15.1845C49.425 15.3981 50.4469 15.1456 51.4688 14.9078C51.5719 14.8835 51.7078 14.8544 51.7172 14.7136C51.7312 14.5291 51.5625 14.5194 51.4453 14.4806C51.1781 14.3932 50.9109 14.3204 50.6437 14.233C49.5375 13.8689 48.5297 13.2719 47.4797 12.7816C47.0719 12.5922 47.0156 12.5583 47.3531 12.2087C48.3047 11.2136 48.9562 9.97088 49.7203 8.8301C49.7812 8.73787 49.8609 8.62622 49.7766 8.51457C49.6969 8.40292 49.5797 8.44661 49.4672 8.47574C48.9141 8.60195 48.4219 8.87865 47.925 9.14564C47.2078 9.52913 46.5797 10.0583 45.9047 10.5097C45.6187 10.699 45.4594 10.7282 45.4031 10.2816C45.2719 9.24273 45.3234 8.22816 45.6844 7.25244C45.8437 6.8204 45.9141 6.39807 45.8906 5.90292L45.9141 5.88836Z" fill="#E30613"/>
<path d="M94.5187 11.7185C94.5187 8.08739 94.5187 4.46118 94.5187 0.830109C94.5187 0.601954 94.4719 0.388362 94.8234 0.344672C98.4562 -0.106784 102.075 -0.281541 105.633 0.844673C107.227 1.34953 108.67 2.15535 109.486 3.74759C111.098 6.88351 110.845 10.4272 108.136 12.8447C107.836 13.1117 107.916 13.301 108.037 13.5777C109.345 16.4952 110.644 19.4175 111.961 22.3253C112.144 22.7233 112.181 22.8544 111.67 22.8689C109.57 22.9175 107.475 23 105.38 23.0971C104.991 23.1165 104.789 23.0146 104.62 22.6262C103.636 20.3884 102.619 18.1602 101.611 15.9321C101.555 15.8058 101.536 15.5583 101.395 15.5922C101.264 15.6262 101.358 15.8641 101.358 16.0097C101.386 18.1456 101.409 20.2767 101.456 22.4126C101.466 22.7476 101.377 22.8447 101.062 22.8592C99.1359 22.9223 97.2047 22.9903 95.2781 23.0971C94.8234 23.1214 94.7625 22.9418 94.7625 22.5437C94.7719 18.9321 94.7672 15.3253 94.7672 11.7136C94.6875 11.7136 94.6031 11.7136 94.5234 11.7136L94.5187 11.7185ZM102.225 5.91749C101.516 5.9272 101.175 6.29937 101.203 7.03399C101.212 7.24759 101.222 7.46118 101.227 7.67477C101.25 8.74273 101.287 8.78157 102.328 8.74759C102.53 8.74273 102.741 8.70875 102.937 8.65535C103.631 8.47089 103.973 8.00001 103.959 7.26215C103.945 6.35924 103.355 5.90293 102.225 5.91749Z" fill="#1C1C1C"/>
<path d="M77.9766 11.5971C77.9766 7.9466 77.9813 4.30097 77.9672 0.650488C77.9672 0.271847 78.0844 0.20874 78.4125 0.20874C82.725 0.218449 87.0375 0.218449 91.35 0.20874C91.6359 0.20874 91.7813 0.237866 91.7625 0.616507C91.6781 2.35923 91.6172 4.1068 91.5797 5.85437C91.5703 6.24272 91.4625 6.3301 91.1016 6.3301C89.0953 6.34952 87.0938 6.40777 85.0875 6.43204C84.7219 6.43204 84.6141 6.53884 84.6188 6.92233C84.6281 8.00971 84.6094 8.00486 85.6641 8.02427C87.0328 8.04369 88.4016 8.08253 89.7703 8.08738C90.0891 8.08738 90.1875 8.17476 90.1828 8.50971C90.1688 10.3155 90.1688 12.1214 90.1828 13.9272C90.1828 14.2913 90.0844 14.3835 89.7422 14.3884C88.2047 14.4126 86.6719 14.4854 85.1344 14.5097C84.6797 14.5146 84.4781 14.6214 84.4969 15.1602C84.5344 16.233 84.5016 16.233 85.5609 16.233C87.4547 16.233 89.3484 16.2476 91.2422 16.2233C91.6594 16.2184 91.7906 16.3252 91.7859 16.7621C91.7813 18.7427 91.7859 20.7233 91.8328 22.7039C91.8422 23.1845 91.5984 23.1214 91.3172 23.1214C87.6234 23.1214 83.9297 23.1214 80.2359 23.1214C79.7297 23.1214 79.2188 23.0825 78.7172 23.1311C78.2531 23.1748 78.1688 22.9806 78.1688 22.5534C78.1828 18.9029 78.1781 15.2573 78.1781 11.6068C78.1125 11.6068 78.0469 11.6068 77.9766 11.6068V11.5971Z" fill="#1C1C1C"/>
<path d="M8.44687 23.3641C5.17031 23.3253 2.5875 21.869 0.553125 19.2573C0.365625 19.0194 0.295312 18.8592 0.54375 18.5825C1.80469 17.1748 3.05156 15.7476 4.27969 14.3107C4.53281 14.0097 4.65 14.0971 4.86094 14.335C5.40469 14.9515 5.98125 15.534 6.65625 16.0049C6.87656 16.1554 7.10156 16.2864 7.35469 16.3641C7.74375 16.4806 8.00625 16.301 8.2125 15.9903C8.41875 15.6893 8.27344 15.4321 8.08594 15.2039C7.80937 14.8592 7.46719 14.5777 7.10625 14.3398C6.23437 13.7719 5.34844 13.233 4.47656 12.6651C2.45625 11.3544 1.26562 9.48546 1.12031 7.00002C0.975 4.54856 2.55 2.034 4.90312 0.902934C7.97812 -0.572794 13.2516 -0.432018 16.575 3.26701C16.9172 3.64565 16.9734 3.86895 16.5891 4.28157C15.3984 5.57284 14.2453 6.90293 13.1062 8.24274C12.825 8.57284 12.6656 8.57283 12.3609 8.27672C11.7328 7.66507 11.0484 7.12138 10.2844 6.69905C9.95156 6.51458 9.60469 6.36895 9.21094 6.40293C8.91094 6.4272 8.65781 6.55827 8.54531 6.85924C8.44219 7.13109 8.60156 7.34953 8.775 7.52915C9.45 8.22818 10.2891 8.66021 11.1281 9.09225C12.2672 9.68449 13.3641 10.3301 14.3344 11.2136C17.3297 13.9272 17.1094 20.3592 13.0266 22.3544C11.775 22.966 10.1203 23.3641 8.44687 23.369V23.3641Z" fill="#1C1C1C"/>
<path d="M107.325 34.9369C107.325 32.1845 107.334 29.4272 107.316 26.6748C107.316 26.2864 107.391 26.1359 107.798 26.1505C109.5 26.2136 111.206 26.2524 112.913 26.2719C113.316 26.2767 113.536 26.4126 113.714 26.8058C114.497 28.5437 115.313 30.2622 116.123 31.9855C116.184 32.1117 116.198 32.3641 116.358 32.3301C116.475 32.3058 116.395 32.0728 116.391 31.9369C116.334 30.1942 116.283 28.4466 116.203 26.7039C116.184 26.2913 116.25 26.1311 116.7 26.1408C118.163 26.1748 119.625 26.1651 121.088 26.1408C121.486 26.1359 121.631 26.2088 121.631 26.6699C121.613 32.068 121.617 37.4612 121.627 42.8592C121.627 43.2088 121.57 43.3592 121.186 43.3884C119.747 43.5049 118.313 43.6651 116.883 43.835C116.531 43.8738 116.358 43.7767 116.198 43.4369C115.158 41.2282 114.094 39.0291 113.03 36.8301C112.983 36.7282 112.997 36.5291 112.809 36.5583C112.791 36.5583 112.795 36.767 112.8 36.8787C112.88 39.0291 112.941 41.1845 113.048 43.335C113.072 43.7864 112.955 43.8884 112.538 43.8738C111 43.835 109.467 43.8204 107.93 43.835C107.569 43.835 107.498 43.7185 107.498 43.3738C107.513 40.5583 107.503 37.7476 107.503 34.9321C107.442 34.9321 107.386 34.9321 107.325 34.9321V34.9369Z" fill="#1C1C1C"/>
<path d="M89.7422 26.034C92.7 26.1505 95.3953 27.0534 96.9656 30.0194C97.8891 31.7719 98.3016 33.7233 98.2641 35.733C98.2078 38.733 96.8391 40.9223 94.3125 42.3592C93.5719 42.7816 92.7844 43.0874 91.9641 43.301C90.3281 43.7282 88.6781 43.8447 87.0094 43.5146C83.9156 42.8981 82.0828 41.0243 81.45 37.8301C81.0609 35.8738 81.1406 33.9369 81.6703 32.0194C82.5516 28.8253 85.5375 26.3301 88.7438 26.1068C89.0438 26.0874 89.3391 26.0631 89.7422 26.0389V26.034ZM89.5125 38.1262C91.35 38.1165 92.6203 36.9806 92.6109 35.3495C92.6016 33.3787 91.5047 32.1651 89.7281 32.1651C88.0219 32.1651 86.8313 33.4952 86.85 35.3835C86.8641 37.1311 87.8438 38.1359 89.5078 38.1262H89.5125Z" fill="#1C1C1C"/>
<path d="M22.0172 15.1457C22.0172 12.6991 22.0078 10.2525 22.0266 7.81071C22.0266 7.37381 21.9141 7.25245 21.4969 7.25245C20.5219 7.25245 19.5516 7.17478 18.5766 7.16507C18.2625 7.16507 18.1641 7.0777 18.1594 6.74274C18.1172 4.70876 18.0562 2.66993 17.9859 0.635949C17.9719 0.305852 18.0844 0.252454 18.3656 0.257308C22.8984 0.334978 27.4313 0.402939 31.9641 0.461192C32.2875 0.461192 32.3719 0.567988 32.3719 0.893231C32.3578 2.83498 32.3578 4.77673 32.3719 6.71362C32.3719 7.0874 32.2547 7.16022 31.9219 7.16507C31.0219 7.17478 30.1266 7.24274 29.2266 7.25731C28.8844 7.25731 28.7906 7.3641 28.7859 7.72333C28.7203 12.4369 28.6312 17.1505 28.5609 21.8641C28.5422 23.102 28.5516 23.1117 27.3703 23.0971C25.7203 23.0777 24.075 23.0243 22.425 23.0194C22.0453 23.0194 22.0125 22.8641 22.0125 22.5437C22.0219 20.0777 22.0172 17.6165 22.0172 15.1505V15.1457Z" fill="#1C1C1C"/>
<path d="M27.6 43.8689C25.65 43.8689 23.7047 43.8495 21.7547 43.8835C21.2438 43.8932 21.1406 43.7379 21.15 43.2427C21.1828 41.6699 21.1688 40.0971 21.1547 38.5291C21.1547 38.2185 21.2297 37.9903 21.45 37.767C23.175 35.9854 24.8859 34.1942 26.6016 32.4029C26.7281 32.2719 26.8406 32.1214 26.9578 31.9806C26.7797 31.8252 26.5688 31.9126 26.3766 31.9126C24.7453 31.9029 23.1141 31.8981 21.4875 31.9126C21.1313 31.9126 21.0047 31.8447 21.0234 31.4369C21.1031 29.8495 21.15 28.2573 21.1875 26.6699C21.1969 26.2719 21.2812 26.1214 21.7266 26.1214C25.5703 26.1456 29.4094 26.1456 33.2531 26.1214C33.6938 26.1214 33.7688 26.2621 33.7828 26.6699C33.8484 28.2573 33.9469 29.8447 34.0547 31.432C34.0734 31.7185 33.9797 31.9029 33.8109 32.1019C32.1844 34.0291 30.5625 35.966 28.9453 37.8981C28.8656 37.9952 28.7297 38.1456 28.7531 38.2087C28.8094 38.3495 28.9781 38.2573 29.1 38.2573C30.6188 38.2573 32.1375 38.2573 33.6516 38.2233C34.0266 38.2136 34.1156 38.3301 34.1109 38.7039C34.0781 40.2185 34.0734 41.7282 34.0781 43.2427C34.0781 43.6165 33.9844 43.733 33.6094 43.7282C31.6078 43.7087 29.6016 43.7185 27.5953 43.7185V43.8689H27.6Z" fill="#1C1C1C"/>
<path d="M42.5813 43.869C40.6313 43.869 38.6813 43.8544 36.7359 43.8787C36.3141 43.8787 36.1641 43.7913 36.1734 43.3156C36.2063 41.7233 36.1969 40.1311 36.1734 38.5389C36.1734 38.1748 36.2859 37.9321 36.5297 37.6796C38.2688 35.8835 39.9938 34.0728 41.7188 32.267C41.8031 32.1796 41.9766 32.102 41.9297 31.966C41.8734 31.8204 41.7 31.9029 41.5781 31.9029C39.8906 31.8981 38.2031 31.8835 36.5156 31.9126C36.0703 31.9224 35.9906 31.7767 36.0141 31.3544C36.0984 29.767 36.1641 28.1748 36.2016 26.5874C36.2109 26.1845 36.3469 26.1165 36.6938 26.1214C40.5563 26.1311 44.4188 26.136 48.2813 26.1214C48.6891 26.1214 48.7781 26.267 48.7969 26.6457C48.8672 28.1942 48.9516 29.7476 49.05 31.2961C49.0734 31.6505 48.9844 31.9127 48.7547 32.1845C47.1563 34.0631 45.5766 35.9612 43.9969 37.8544C43.9078 37.9612 43.7016 38.0534 43.7813 38.2136C43.8563 38.3641 44.0531 38.2622 44.1938 38.2622C45.6938 38.2622 47.1938 38.2525 48.6938 38.2379C48.9656 38.2379 49.1438 38.2379 49.1344 38.6262C49.0922 40.1796 49.0781 41.733 49.0781 43.2816C49.0781 43.6262 49.0172 43.7427 48.6516 43.7379C46.6266 43.7185 44.6063 43.7282 42.5813 43.7282C42.5813 43.7767 42.5813 43.8253 42.5813 43.8787V43.869Z" fill="#1C1C1C"/>
<path d="M58.1625 26.233C59.025 26.233 59.8875 26.2525 60.75 26.2233C61.1203 26.2136 61.2469 26.3447 61.3453 26.7136C62.7656 32.2573 64.2047 37.7961 65.6531 43.3301C65.7703 43.7816 65.7 43.8835 65.25 43.8787C63.75 43.8495 62.25 43.8593 60.75 43.8787C60.3938 43.8787 60.225 43.801 60.1453 43.4078C59.925 42.3495 59.6391 41.301 59.4 40.2476C59.325 39.9029 59.1797 39.7719 58.8328 39.7962C58.3641 39.8253 57.8953 39.8253 57.4266 39.7962C57.1031 39.7767 56.9766 39.8835 56.9109 40.2233C56.7094 41.2864 56.4563 42.3447 56.2406 43.4029C56.175 43.7282 56.0672 43.8835 55.6969 43.8787C54.1969 43.8544 52.6969 43.8544 51.1969 43.8787C50.7563 43.8884 50.6625 43.7961 50.7797 43.335C51.8391 39.136 52.8797 34.9321 53.925 30.7282C54.2625 29.3787 54.6047 28.0292 54.9234 26.6748C55.0125 26.2913 55.1297 26.0923 55.5797 26.1214C56.4375 26.1748 57.3 26.136 58.1625 26.136C58.1625 26.1651 58.1625 26.1991 58.1625 26.2282V26.233ZM58.1016 36.0194C58.2516 36.0194 58.4016 36.0049 58.5516 36.0194C58.9688 36.0777 59.0859 35.9709 58.9875 35.4952C58.7766 34.4758 58.65 33.4321 58.4719 32.4078C58.4391 32.2185 58.5141 31.9078 58.1484 31.9127C57.8063 31.9127 57.8906 32.2088 57.8625 32.3738C57.6844 33.2864 57.5344 34.1991 57.3797 35.1165C57.2297 36.0146 57.2344 36.0194 58.1016 36.0194Z" fill="#1C1C1C"/>
<path d="M126.225 37.6408C126.225 35.8156 126.216 33.9903 126.234 32.1699C126.234 31.7524 126.183 31.5534 125.705 31.5728C125.034 31.602 124.359 31.5097 123.684 31.5146C123.328 31.5146 123.244 31.3738 123.239 31.0437C123.206 29.568 123.169 28.0971 123.098 26.6262C123.08 26.2233 123.211 26.1457 123.567 26.1505C126.019 26.1991 128.475 26.2282 130.927 26.267C131.902 26.2816 132.872 26.3156 133.847 26.3156C134.133 26.3156 134.231 26.3835 134.227 26.6991C134.208 28.1748 134.208 29.6505 134.227 31.1214C134.227 31.4369 134.119 31.5049 133.842 31.5097C133.186 31.5194 132.534 31.5728 131.878 31.5777C131.578 31.5777 131.47 31.6554 131.466 32C131.414 35.7622 131.334 39.5243 131.287 43.2864C131.283 43.7525 131.17 43.8641 130.73 43.8447C129.403 43.7961 128.072 43.7864 126.741 43.7864C126.352 43.7864 126.202 43.6845 126.211 43.2282C126.244 41.3641 126.225 39.5049 126.225 37.6408Z" fill="#1C1C1C"/>
<path d="M79.7156 32.466C79.7156 34.2282 79.7297 35.9952 79.7156 37.7573C79.6781 41.233 77.5312 43.5 74.0812 43.699C73.1859 43.7524 72.2859 43.699 71.3859 43.7088C71.1281 43.7088 71.0203 43.6456 71.025 43.3544C71.0438 41.7233 71.0531 40.0971 71.0531 38.466C71.0531 38.1651 71.175 38.1165 71.4281 38.1311C72.0469 38.1602 72.6609 38.1651 73.2797 38.1845C74.0719 38.2039 74.3016 38.0194 74.3109 37.1893C74.3297 35.6408 74.3016 34.0874 74.2875 32.5389C74.2687 30.5825 74.25 28.6214 74.2172 26.6651C74.2125 26.3156 74.2594 26.1505 74.6672 26.1554C76.2234 26.1845 77.775 26.1796 79.3313 26.1554C79.725 26.1505 79.7859 26.2961 79.7812 26.6554C79.7672 28.5923 79.7719 30.534 79.7719 32.4757C79.7578 32.4757 79.7438 32.4757 79.725 32.4757L79.7156 32.466Z" fill="#1C1C1C"/>
<path d="M105.098 34.9903C105.098 37.7864 105.089 40.5777 105.108 43.3738C105.108 43.8301 104.972 43.9126 104.569 43.9078C103.106 43.8835 101.644 43.8884 100.181 43.9078C99.8297 43.9126 99.7453 43.801 99.7406 43.4466C99.7172 37.8544 99.6844 32.267 99.6422 26.6748C99.6422 26.2864 99.7125 26.1359 100.125 26.1456C101.7 26.1699 103.275 26.1651 104.85 26.1456C105.211 26.1408 105.267 26.2524 105.267 26.6068C105.248 29.4029 105.258 32.1942 105.258 34.9903C105.206 34.9903 105.15 34.9903 105.098 34.9903Z" fill="#1C1C1C"/>
<path d="M13.2375 34.9709C13.2375 32.2136 13.2469 29.4612 13.2281 26.7039C13.2281 26.2767 13.2891 26.102 13.7625 26.1165C15.3 26.1505 16.8375 26.1457 18.3703 26.1165C18.7641 26.1117 18.8672 26.2185 18.8625 26.6262C18.7969 32.233 18.7453 37.8398 18.7031 43.4466C18.7031 43.767 18.6281 43.8787 18.3 43.8738C16.7813 43.8544 15.2625 43.8544 13.7484 43.8738C13.3828 43.8787 13.3219 43.7427 13.3219 43.4029C13.3359 40.5874 13.3266 37.7767 13.3266 34.9612C13.2938 34.9612 13.2656 34.9612 13.2328 34.9612L13.2375 34.9709Z" fill="#1C1C1C"/>
<path d="M111.853 3.51459C111.853 2.58255 111.867 1.65537 111.848 0.723328C111.839 0.373813 111.895 0.208765 112.294 0.223328C114.033 0.28158 115.772 0.310707 117.511 0.344687C117.731 0.344687 117.905 0.349541 117.895 0.679639C117.839 2.42236 118.012 4.16993 117.797 5.90779C117.577 7.65051 116.616 8.87382 115.153 9.71362C114.909 9.8544 114.755 9.81071 114.656 9.59226C114.534 9.32042 114.014 9.21362 114.333 8.75246C114.642 8.301 114.82 7.801 114.862 7.24275C114.891 6.89323 114.825 6.70877 114.412 6.74275C113.705 6.79614 112.987 6.76216 112.28 6.81556C111.905 6.84469 111.844 6.70391 111.848 6.36411C111.867 5.41265 111.853 4.46605 111.853 3.51459Z" fill="#1C1C1C"/>
<path d="M45.9141 5.88836C45.9375 6.38836 45.8672 6.81069 45.7078 7.23787C45.3469 8.2136 45.2953 9.22816 45.4266 10.267C45.4828 10.7136 45.6422 10.6893 45.9281 10.4952C46.6031 10.0437 47.2266 9.51943 47.9484 9.13108C48.4453 8.86409 48.9375 8.58739 49.4906 8.46117C49.6031 8.4369 49.7156 8.38836 49.8 8.50001C49.8844 8.61651 49.8047 8.72331 49.7438 8.81554C48.975 9.96117 48.3281 11.199 47.3766 12.1942C47.0438 12.5437 47.0953 12.5777 47.5031 12.767C48.5578 13.2573 49.5656 13.8495 50.6672 14.2185C50.9344 14.3058 51.2016 14.3786 51.4688 14.466C51.5859 14.5049 51.7547 14.5146 51.7406 14.699C51.7313 14.8398 51.5953 14.8689 51.4922 14.8932C50.4703 15.1262 49.4438 15.3835 48.3891 15.1699C47.8594 15.0631 47.3344 14.9175 46.8047 14.8107C46.6641 14.7816 46.4813 14.6651 46.3828 14.7961C46.2609 14.9563 46.4672 15.0583 46.5469 15.1796C46.9031 15.7524 47.1891 16.3592 47.2969 17.0437C47.3156 17.1553 47.3906 17.2767 47.2453 17.3495C47.1141 17.4175 47.0438 17.2961 46.9688 17.2185C46.5563 16.7961 46.0406 16.5922 45.4969 16.432C45.0984 16.3155 44.7188 16.1311 44.4281 15.8253C44.1984 15.5825 44.0719 15.6553 43.9828 15.9029C43.7859 16.4515 43.3922 16.835 43.0031 17.2282C42.6938 17.5388 42.3984 17.8641 42.1828 18.2573C42.0984 18.4078 42.0188 18.5825 41.8078 18.5486C41.5688 18.5097 41.5453 18.301 41.5125 18.1068C41.3719 17.233 41.5734 16.4126 41.9203 15.6311C42.0703 15.2961 42.1313 14.9709 42.1125 14.6214C42.0844 14.0486 41.8172 13.8495 41.2969 14.0534C40.2469 14.4709 39.1781 14.8058 38.0625 14.966C37.4297 15.0583 36.7922 15.0874 36.1688 14.9175C36.0469 14.8835 35.8641 14.8641 35.8594 14.7136C35.85 14.5146 36.0469 14.5874 36.1594 14.5534C36.8344 14.3398 37.5375 14.2233 38.1938 13.9223C38.6813 13.699 39.1266 13.4369 39.4828 13.0243C39.8766 12.568 40.3688 12.2476 40.9125 12.0291C41.1938 11.9175 41.2125 11.801 41.0531 11.568C40.7109 11.0583 40.3641 10.5583 39.8531 10.2039C38.9297 9.57768 38.4797 8.60195 38.0766 7.59224C38.025 7.47088 37.9875 7.30583 38.0953 7.20875C38.2359 7.08739 38.3344 7.25244 38.4281 7.32525C39.3891 8.14079 40.4578 8.76215 41.6109 9.23302C41.9438 9.36894 42.2109 9.62137 42.4641 9.8835C42.6375 10.0631 42.8391 10.0922 42.8625 9.80584C42.9891 8.37865 43.9359 7.36409 44.5125 6.16506C44.8266 5.50972 45.0469 4.80098 45.0281 4.03884C45.0281 3.91749 44.9766 3.72817 45.15 3.69418C45.2906 3.66991 45.3844 3.80583 45.4406 3.92719C45.7406 4.55341 46.0219 5.18933 45.9375 5.8738L45.9141 5.88836Z" fill="#52AE32"/>
</g>
<defs>
<clipPath id="clip0_972_3997">
<rect width="135" height="44" fill="white"/>
</clipPath>
</defs>
</svg>
