<svg fill="none" height="45" viewBox="0 0 122 45" width="122" xmlns="http://www.w3.org/2000/svg"><g fill="#fff"><path d="m118.32 32.1612c-2.306-2.1525-3.071-2.0377-3.481-1.6155-.627.6755 1.429 1.6786 2.69 2.3196 1.315.6689 3.564 2.036 3.847 4.9249s-.691 6.2871-5.862 6.7816c-5.143.4664-7.701-3.7334-7.701-3.7334l3.571-4.0804s2.143 2.4898 2.907 1.898c.71-.5916.407-1.0956-2.856-3.0204-2.577-1.5063-3.49-4.5894-2.73-6.556.732-1.9945 2.449-4.2168 6.801-4.1194 4.378.1254 6.44 3.1204 6.44 3.1204z"/><path d="m98.8115 25.2978c2.2175.245 8.7105 2.5236 8.1335 10.1851-.523 7.6051-6.076 8.3815-8.4277 8.8384-2.4339.4853-8.2633.3087-8.2633.3087l-.3644-19.5824s6.7592-.023 8.9219.2502zm1.9745 9.729c.184-2.3293-1.6517-2.9964-2.254-3.0786-.6023-.0821-2.4905-.0757-2.4905-.0757l.1286 5.8915s1.5875.1069 2.2984-.0639c.629-.1424 2.1885-.3441 2.3175-2.6733z"/><path d="m86.5688 28.566c1.4612 3.3618.3479 6.059-1.6174 7.5808l3.7757 8.2639-6.2658.2458-3.0317-6.6392.0764 6.7053-5.6647-.0368-.3085-19.2459s10.8032-1.8604 13.036 3.1261zm-4.9171 2.6821c.0216-1.7677-2.4116-1.058-2.4116-1.058l.0618 2.1882s2.3281.6094 2.3498-1.1302z"/><path d="m67.5176 25.2357 5.1804 19.5099-6.1572.0209-1.1092-4.5133-2.5449.0086-.9705 4.5205-6.1298.0208 4.8896-19.6564zm-4.4255 10.845 2.0797-.0071-.7537-4.5988-.5473.0019z"/><path d="m29.6924 25.2522 6.4307-.0219 2.1926 9.5038 1.1334-4.9418 5.7733-.2441 1.44 5.2698 2.1307-9.6307 6.5676-.0224-5.1084 19.6571-6.896.0235-.7484-2.9434-.7293 2.9484-7.0875.0241z"/><path d="m22.4287 39.0246 6.3213-.0215.0464 5.8918-11.849.0403-.2003-19.6391 11.9585-.0406-.2295 5.1913-5.9652.1325-.023 1.3468 4.8439.0957.0174 5.3869-4.9252.157z"/><path d="m13.4262 28.8145c1.4612 3.3618.348 6.0591-1.6174 7.5808l3.7758 8.2639-6.26589.2458-3.03165-6.6391.07642 6.7053-5.664733-.0369-.308536-19.2459s10.803289-1.8604 13.035989 3.1261zm-4.91709 2.6821c.02165-1.7676-2.41156-1.0579-2.41156-1.0579l.06181 2.1882s2.32801.6093 2.34975-1.1303z"/></g><path d="m30.7277 6.22363s2.2976-4.42745 7.2652-4.94808c4.9677-.520627 8.8719 1.82219 10.1726 5.2084 1.3027 3.3862 2.3724 8.59465-1.5484 12.23895-3.9188 3.6466-11.9581 4.052-15.0965.0961-3.1383-3.956-2.1602-10.25041-.795-12.59537" fill="#ed1c24"/><path d="m46.4714 14.0009c-.0146-.0021-1.5067-.3371-3.1279-1.2482-.4995-.2795-.9137-.4353-1.2508-.5164.4245-.2838.8179-.7062 1.1862-1.2717.6098-.9324 1.5193-2.29373 1.5193-2.29373.027-.04267.027-.09388-.0042-.13442-.0291-.04054-.0812-.05974-.1332-.04908-1.0967.23898-2.1831 1.01565-2.976 1.58113-.3413.2453-.6368.4544-.7929.5163-.0291.0107-.05.015-.0687.015-.1665-1.0221-.2185-2.10816.2414-3.27743.5807-1.47227-.3746-2.96373-.4162-3.02775-.0312-.04907-.0937-.06827-.1519-.0512-.0562.0192-.0916.07254-.0854.13015.0021.01494.1769 1.44239-1.1279 3.27099-.5911.82788-.8054 1.74964-.8554 2.53914-.4703-.56332-1.0135-.93672-1.7169-1.20557-1.13-.43314-2.4307-1.57042-2.4453-1.58108-.0437-.03628-.1062-.04268-.154-.01494-.0479.02774-.0729.08321-.0562.13656.0229.07468.5848 1.85633 1.6711 2.56473.5786.3777 1.0115 1.0455 1.2758 1.5533-.4683.1494-1.1488.4673-1.7024 1.1245-.7346.8748-3.0905 1.2696-3.1134 1.276-.0582.0106-.104.0576-.1061.1152s.0375.1067.0957.1216c2.129.51 4.7825-.7169 4.8824-.766.2622-.0917.4599-.0683.5931.0747.2497.2688.231.9025-.0396 1.3848-.4162.7425-.489 2.2532-.2747 2.5498.0562.0768.1249.0896.1644.0896h.0188c.1685-.0171.2143-.1131.2684-.2219.077-.1579.2373-.4887.9345-1.1522.5619-.5335.7783-1.0328.8491-1.4168.2372.3179.6285.655 1.2653.8492 1.257.3841 1.4172.8321 1.4193.8321.0146.0534.0666.0897.1249.0897.0083 0 .0166 0 .027-.0022.0666-.0128.1103-.0747.0999-.1387-.0125-.064-.2913-1.5661-1.0509-2.219-.0812-.0704-.1561-.1366-.229-.2027.3559.081.7992.1899 1.3424.3456.5515.1579 1.1071.2155 1.6191.2155 1.2466 0 2.2351-.335 2.2934-.3542.052-.0192.0874-.0682.0832-.1216-.0041-.0533-.0437-.0981-.0978-.1109" fill="#50b848"/><path d="m16.1579 7.35028 3.4588.12589v14.08253l5.8854.096.2435-14.17853 3.2154-.12589v-5.97226l-12.9842-.18564z" fill="#fff"/><path d="m61.4203 1.15405.2518 7.50214-3.4671-7.33997-7.1591-.16217.206 20.43455 6.4682.0662-.3288-8.8293 4.2808 8.8293 6.0665-.6231v-19.87765z" fill="#fff"/><path d="m70.2253 1.15405.1832 20.50075h12.3161l-.0541-6.1536h-6.5597l.0229-1.5299 5.105-.1515v-5.59888l-5.0239-.09815.0187-1.39332 6.2497-.12589.1873-5.44951z" fill="#fff"/><path d="m93.7151 7.52958c-.0416 1.79659-2.4661 1.15861-2.4661 1.15861l-.0708-2.31722s2.5785-.69985 2.5369 1.15648m5.1695-2.85064c-2.3059-5.287351-13.7042-3.35847-13.7042-3.35847l.2373 20.33856 6.0061-.2454-.102-6.7788 3.1946 7.0242 6.6156-.2454-3.9289-8.7055c2.0312-1.6238 3.2419-4.45309 1.6836-8.02706" fill="#fff"/><path d="m106.289 4.91152v-3.63371l-5.434-.12376v5.91039l2.666-.09175c.219 1.10313-.589 2.03343-.589 2.03343l.629.77027c2.141-1.09246 2.71-2.74822 2.722-4.52774l.004-.33713z" fill="#fff"/><path d="m11.2443 8.65612 3.8106-4.3037s-2.1602-3.21338-6.79491-3.3478c-4.63675-.136561-6.48063 2.2532-7.279782 4.34211-.801233 2.09104.160252 5.40467 2.876122 6.99217 3.49004 2.0398 3.8147 2.601 3.02179 3.2219-.7929.6209-3.03844-2.0526-3.03844-2.0526l-3.83968 4.3549s2.72836 4.4744 8.18923 3.9794 6.55137-4.1032 6.26207-7.1629c-.2913-3.0597-2.695-4.5534-4.054-5.25108-1.35897-.69772-3.55872-1.80512-2.86779-2.51351.42455-.43528 1.22995-.56117 3.71899 1.74111" fill="#fff"/><path d="m117.919 8.65612 3.81-4.3037s-2.16-3.21338-6.795-3.3478c-4.634-.136561-6.48 2.2532-7.279 4.34211-.802 2.09104.16 5.40467 2.876 6.99217 3.49 2.0398 3.814 2.601 3.021 3.2219-.792.6209-3.038-2.0526-3.038-2.0526l-3.84 4.3549s2.729 4.4744 8.19 3.9794c5.46-.495 6.551-4.1032 6.262-7.1629-.292-3.0597-2.695-4.5534-4.054-5.25108-1.359-.69772-3.559-1.80512-2.868-2.51351.424-.43528 1.23-.56117 3.719 1.74111" fill="#fff"/></svg>