<svg fill="none" height="69" viewBox="0 0 49 49" width="69" xmlns="http://www.w3.org/2000/svg"><path d="m9.46578 15.6927s3.98292-7.51827 12.60402-8.40762c8.6136-.88187 15.3884 3.09402 17.6442 8.84112 2.2557 5.7471 4.1169 14.5957-2.6876 20.7837-6.7971 6.1881-20.7412 6.8831-26.1833.1645-5.44217-6.7112-3.74476-17.4058-1.37732-21.3817z" fill="#e30613"/><path d="m36.7735 28.8982s-2.6131-.5679-5.4272-2.1149c-.871-.4783-1.5857-.7399-2.1739-.8744.737-.4858 1.4145-1.2033 2.0548-2.1599 1.0571-1.5844 2.6354-3.8937 2.6354-3.8937.0447-.0747.0447-.1569 0-.2316-.0521-.0673-.1414-.0972-.2308-.0822-1.8984.4035-3.7819 1.7263-5.1592 2.6904-.5956.4111-1.1018.7698-1.3773.8744-.0521.0224-.0893.0224-.1191.0224-.2903-1.7338-.3797-3.5798.4169-5.5677 1.0051-2.5036-.6477-5.0371-.7221-5.1418-.0521-.0822-.1638-.1195-.2606-.0822-.0968.0299-.1563.1271-.1489.2168 0 .0224.3052 2.4513-1.958 5.5528-1.0274 1.405-1.3996 2.9744-1.4815 4.3121-.8189-.9566-1.757-1.5918-2.9779-2.0477-1.958-.7324-4.2212-2.668-4.2435-2.6904-.0745-.0598-.1862-.0748-.2681-.0225-.0893.0449-.1265.142-.0967.2317.0372.1271 1.0125 3.1538 2.896 4.3571 1.005.6427 1.757 1.7786 2.2111 2.6381-.8115.2541-1.9952.7922-2.9556 1.9057-1.2731 1.4873-5.3602 2.1599-5.3975 2.1673-.1042.015-.1786.0972-.1861.1943 0 .0972.067.1794.1712.2093 3.6927.8669 8.2935-1.2182 8.4648-1.3004.4541-.1569.7966-.1121 1.0274.1271.4318.4558.402 1.532-.067 2.3541-.7222 1.263-.8488 3.8264-.4765 4.3272.0968.127.2159.1494.2829.1494h.0372c.2904-.0299.3722-.1943.469-.3811.134-.2691.4169-.8296 1.623-1.9581.9753-.9043 1.3475-1.7562 1.4741-2.4064.4169.5381 1.0944 1.1135 2.1962 1.4423 2.1813.6577 2.4642 1.4125 2.4642 1.4125.0223.0897.1117.157.2159.157h.0447c.1191-.0224.1935-.1271.1712-.2392s-.5062-2.6605-1.824-3.7741c-.1414-.1196-.2754-.2317-.3945-.3438.6179.142 1.3847.3214 2.3227.5904.9604.2691 1.9208.3662 2.8067.3662 2.159 0 3.8788-.5679 3.9755-.5978.0894-.0299.1489-.1121.1489-.2093 0-.0897-.0744-.1644-.1712-.1868" fill="#52ae32"/></svg>