<svg width="140" height="140" viewBox="0 0 140 140" fill="none" xmlns="http://www.w3.org/2000/svg">
<path d="M116 54.0607V61.2372C116 61.8183 115.558 62.2881 115.012 62.2881H112.943C113.487 62.2881 113.929 62.7579 113.929 63.339V70.5155C113.929 71.0948 113.487 71.5664 112.943 71.5664H111.092C111.637 71.5664 112.08 72.0362 112.08 72.6156V79.7938C112.08 80.3731 111.637 80.843 111.092 80.843H113.736C114.28 80.843 114.722 81.3146 114.722 81.8939V89.0721C114.722 89.6515 114.28 90.1213 113.736 90.1213H112.943C113.487 90.1213 113.929 90.5929 113.929 91.1722V98.3487C113.929 98.9298 113.487 99.3996 112.943 99.3996H113.736C114.28 99.3996 114.722 99.8695 114.722 100.451V107.627C114.722 108.208 114.28 108.678 113.736 108.678H111.092C111.637 108.678 112.08 109.148 112.08 109.729V116.905C112.08 117.485 111.637 117.956 111.092 117.956H73.9836C73.4376 117.956 72.9961 117.485 72.9961 116.905V109.729C72.9961 109.148 73.4376 108.678 73.9836 108.678H76.6273C76.0813 108.678 75.6399 108.208 75.6399 107.627V100.451C75.6399 99.8695 76.0813 99.3996 76.6273 99.3996H75.834C75.288 99.3996 74.8466 98.9298 74.8466 98.3487V91.1722C74.8466 90.5929 75.288 90.1213 75.834 90.1213H76.6273C76.0813 90.1213 75.6399 89.6515 75.6399 89.0721V81.8939C75.6399 81.3146 76.0813 80.843 76.6273 80.843H73.9836C73.4376 80.843 72.9961 80.3731 72.9961 79.7938V72.6156C72.9961 72.0362 73.4376 71.5664 73.9836 71.5664H75.834C75.288 71.5664 74.8466 71.0948 74.8466 70.5155V63.339C74.8466 62.7579 75.288 62.2881 75.834 62.2881H77.9052C77.4322 62.2881 77.0372 61.9348 76.941 61.4615C76.9261 61.3891 76.9178 61.3149 76.9178 61.2372V54.0607C76.9178 53.4796 77.3592 53.0098 77.9052 53.0098H73.7629C73.2185 53.0098 72.7754 52.5399 72.7754 51.9588V44.7824C72.7754 44.203 73.2185 43.7314 73.7629 43.7314H110.872C111.418 43.7314 111.859 44.203 111.859 44.7824V51.9588C111.859 52.5399 111.418 53.0098 110.872 53.0098H115.012C115.558 53.0098 116 53.4796 116 54.0607Z" fill="#A57A00"/>
<path d="M106.701 43.7314H102.416V53.0098H106.701V43.7314Z" fill="#D49A00"/>
<path d="M111.597 52.7784H107.312V62.0567H111.597V52.7784Z" fill="#D49A00"/>
<path d="M107.006 62.0567H102.721V71.335H107.006V62.0567Z" fill="#D49A00"/>
<path d="M104.558 71.335H100.273V80.6134H104.558V71.335Z" fill="#D49A00"/>
<path d="M105.816 80.5833H101.531V89.8617H105.816V80.5833Z" fill="#D49A00"/>
<path d="M105.816 99.1983H101.531V108.477H105.816V99.1983Z" fill="#D49A00"/>
<path d="M105.68 89.8917H101.395V99.17H105.68V89.8917Z" fill="#D49A00"/>
<path d="M104.381 108.507H100.096V117.785H104.381V108.507Z" fill="#D49A00"/>
<g style="mix-blend-mode:multiply">
<path d="M95.4633 70.5164V63.34C95.4633 62.7607 95.0218 62.2891 94.4758 62.2891H57.3671C56.8228 62.2891 56.3797 62.7589 56.3797 63.34V70.5164C56.3797 71.0958 56.8211 71.5674 57.3671 71.5674H55.8685C55.3242 71.5674 54.8811 72.0372 54.8811 72.6183V79.7948C54.8811 80.3741 55.3225 80.8457 55.8685 80.8457C55.3242 80.8457 54.8811 81.3155 54.8811 81.8967V89.0731C54.8811 89.6524 55.3225 90.124 55.8685 90.124H55.0752C54.5309 90.124 54.0878 90.5939 54.0878 91.175V98.3514C54.0878 98.9308 54.5292 99.4024 55.0752 99.4024H57.3655C56.8211 99.4024 56.378 99.8722 56.378 100.453V107.63C56.378 108.209 56.8195 108.681 57.3655 108.681H53.2248C52.6804 108.681 52.2373 109.151 52.2373 109.732V116.908C52.2373 117.487 52.6788 117.959 53.2248 117.959H90.3335C90.8778 117.959 91.3209 117.489 91.3209 116.908V109.732C91.3209 109.152 90.8795 108.681 90.3335 108.681H94.4742C95.0185 108.681 95.4616 108.211 95.4616 107.63V100.453C95.4616 99.874 95.0202 99.4024 94.4742 99.4024H92.1839C92.7283 99.4024 93.1714 98.9325 93.1714 98.3514V91.175C93.1714 90.5956 92.7299 90.124 92.1839 90.124H92.9772C93.5215 90.124 93.9647 89.6542 93.9647 89.0731V81.8967C93.9647 81.3173 93.5232 80.8457 92.9772 80.8457C93.5215 80.8457 93.9647 80.3759 93.9647 79.7948V72.6183C93.9647 72.039 93.5232 71.5674 92.9772 71.5674H94.4758C95.0202 71.5674 95.4633 71.0976 95.4633 70.5164Z" fill="#D49A00"/>
</g>
<g style="mix-blend-mode:multiply">
<path d="M100.05 43.7334C99.5091 50.4877 97.116 58.6815 88.9341 61.8714C84.4582 63.6148 78.852 63.3039 73.9263 61.4634C73.9114 61.391 73.9031 61.3168 73.9031 61.2391V54.0627C73.9031 53.4816 74.3446 53.0117 74.8906 53.0117H70.7482C70.2039 53.0117 69.7607 52.5419 69.7607 51.9608V44.7843C69.7607 44.205 70.2039 43.7334 70.7482 43.7334H100.05Z" fill="#A57A00"/>
</g>
<path d="M62.0945 108.676H24.9875C24.4421 108.676 24 109.147 24 109.727V116.904C24 117.484 24.4421 117.955 24.9875 117.955H62.0945C62.6398 117.955 63.082 117.484 63.082 116.904V109.727C63.082 109.147 62.6398 108.676 62.0945 108.676Z" fill="#A57A00"/>
<path d="M62.0945 25.1748H24.9875C24.4421 25.1748 24 25.6453 24 26.2257V33.4022C24 33.9826 24.4421 34.4531 24.9875 34.4531H62.0945C62.6398 34.4531 63.082 33.9826 63.082 33.4022V26.2257C63.082 25.6453 62.6398 25.1748 62.0945 25.1748Z" fill="#A57A00"/>
<path d="M66.2352 99.3996H29.1282C28.5828 99.3996 28.1407 99.8702 28.1407 100.451V107.627C28.1407 108.207 28.5828 108.678 29.1282 108.678H66.2352C66.7806 108.678 67.2227 108.207 67.2227 107.627V100.451C67.2227 99.8702 66.7806 99.3996 66.2352 99.3996Z" fill="#A57A00"/>
<path d="M63.9449 90.1213H26.8379C26.2926 90.1213 25.8505 90.5919 25.8505 91.1723V98.3487C25.8505 98.9291 26.2926 99.3996 26.8379 99.3996H63.9449C64.4903 99.3996 64.9324 98.9291 64.9324 98.3487V91.1723C64.9324 90.5919 64.4903 90.1213 63.9449 90.1213Z" fill="#A57A00"/>
<path d="M64.7382 80.843H27.6312C27.0858 80.843 26.6437 81.3135 26.6437 81.8939V89.0704C26.6437 89.6508 27.0858 90.1213 27.6312 90.1213H64.7382C65.2836 90.1213 65.7257 89.6508 65.7257 89.0704V81.8939C65.7257 81.3135 65.2836 80.843 64.7382 80.843Z" fill="#A57A00"/>
<path d="M64.7382 71.5647H27.6312C27.0858 71.5647 26.6437 72.0352 26.6437 72.6156V79.792C26.6437 80.3725 27.0858 80.843 27.6312 80.843H64.7382C65.2836 80.843 65.7257 80.3725 65.7257 79.792V72.6156C65.7257 72.0352 65.2836 71.5647 64.7382 71.5647Z" fill="#A57A00"/>
<path d="M66.2352 62.2881H29.1282C28.5828 62.2881 28.1407 62.7586 28.1407 63.339V70.5155C28.1407 71.0959 28.5828 71.5664 29.1282 71.5664H66.2352C66.7806 71.5664 67.2227 71.0959 67.2227 70.5155V63.339C67.2227 62.7586 66.7806 62.2881 66.2352 62.2881Z" fill="#A57A00"/>
<path d="M63.9449 53.0098H26.8379C26.2926 53.0098 25.8505 53.4803 25.8505 54.0607V61.2372C25.8505 61.8176 26.2926 62.2881 26.8379 62.2881H63.9449C64.4903 62.2881 64.9324 61.8176 64.9324 61.2372V54.0607C64.9324 53.4803 64.4903 53.0098 63.9449 53.0098Z" fill="#A57A00"/>
<path d="M64.7382 43.7315H27.6312C27.0858 43.7315 26.6437 44.202 26.6437 44.7824V51.9588C26.6437 52.5393 27.0858 53.0098 27.6312 53.0098H64.7382C65.2836 53.0098 65.7257 52.5393 65.7257 51.9588V44.7824C65.7257 44.202 65.2836 43.7315 64.7382 43.7315Z" fill="#A57A00"/>
<path d="M64.7382 34.4531H27.6312C27.0858 34.4531 26.6437 34.9237 26.6437 35.5041V42.6805C26.6437 43.2609 27.0858 43.7315 27.6312 43.7315H64.7382C65.2836 43.7315 65.7257 43.2609 65.7257 42.6805V35.5041C65.7257 34.9237 65.2836 34.4531 64.7382 34.4531Z" fill="#A57A00"/>
<path d="M58.6255 43.732H54.3404V53.0103H58.6255V43.732Z" fill="#D49A00"/>
<path d="M58.6255 34.4532H54.3404V43.732H58.6255V34.4532Z" fill="#D49A00"/>
<path d="M58.6255 53.0103H54.3404V62.2881H58.6255V53.0103Z" fill="#D49A00"/>
<path d="M57.6683 25.1751H53.3832V34.4535H57.6683V25.1751Z" fill="#D49A00"/>
<path d="M71.6361 25.56C71.6361 25.56 79.4728 20.3653 88.0396 24.4348C96.6065 28.5026 100.802 36.3767 99.7929 43.3818C98.7938 50.4046 95.7319 60.2764 85.9801 62.5479C76.2448 64.8087 62.7656 57.4715 61.3034 47.6616C59.8413 37.8533 67.2415 28.1776 71.6195 25.5688" fill="#A57A00"/>
<path d="M69.5567 24.674C69.5567 24.674 77.2456 19.573 85.6631 23.5736C94.0806 27.5725 98.2047 35.2806 97.2222 42.1744C96.2397 49.0683 93.2325 58.7635 83.6583 60.9943C74.099 63.2127 60.8521 56.0098 59.4182 46.3712C57.9859 36.7325 65.2616 27.2316 69.5583 24.674H69.5567Z" fill="#D49A00"/>
<path d="M70.2318 59.0393L95.9888 33.7973C94.213 29.7012 90.7179 25.9496 85.6627 23.5722C83.8421 22.7102 82.068 22.2881 80.3736 22.1221L59.7646 47.8923C61.1089 52.64 65.2629 56.6548 70.2334 59.0393H70.2318Z" fill="#E0AE4B"/>
<path d="M87.6896 52.9979C87.6896 52.9979 85.5902 50.9702 83.8144 47.8633C83.2767 46.9113 82.7423 46.2383 82.2826 45.7791C83.2103 45.7279 84.2293 45.4064 85.3247 44.8253C87.1452 43.8733 89.8272 42.515 89.8272 42.515C89.9085 42.462 89.955 42.3861 89.9384 42.2783C89.9317 42.1882 89.867 42.1123 89.7691 42.0558C87.8074 41.3775 85.3529 41.6018 83.5804 41.7696C82.8153 41.8332 82.1465 41.9092 81.8428 41.8438C81.7897 41.8297 81.7383 41.8156 81.7283 41.7997C82.3921 39.9398 83.2867 38.0957 85.0857 36.5926C87.3461 34.7239 87.1735 31.3008 87.1635 31.1666C87.1469 31.0588 87.0722 30.9652 86.9677 30.9387C86.8631 30.9105 86.7652 30.9741 86.7121 31.0783C86.6955 31.0889 85.6881 33.6412 81.9424 35.3986C80.2396 36.2041 79.068 37.5182 78.268 38.7828C78.0158 37.3892 77.498 36.2358 76.6151 35.1037C75.2044 33.272 74.1522 30.1051 74.1423 30.0874C74.1091 29.9902 74.0178 29.9072 73.9083 29.9072C73.7971 29.9072 73.7257 29.9779 73.6992 30.0874C73.666 30.2269 72.9573 33.7418 74.0477 35.9903C74.6368 37.1932 74.7182 38.7193 74.6933 39.8179C73.7987 39.6112 72.4296 39.4735 70.9558 40.0139C68.9909 40.7505 64.8585 39.1025 64.8236 39.0778C64.7091 39.0337 64.6012 39.0778 64.5564 39.1555C64.5033 39.2597 64.5199 39.3675 64.5946 39.4611C67.5354 42.3878 72.8976 42.9442 73.0967 42.9813C73.5996 43.0838 73.89 43.3222 73.9846 43.6861C74.1439 44.3625 73.5332 45.4117 72.6569 45.9469C71.3226 46.7753 69.829 49.2146 69.9119 49.914C69.9252 50.0942 70.0414 50.1842 70.0879 50.2249C70.0879 50.2249 70.0978 50.2425 70.1244 50.2496C70.4248 50.3874 70.5791 50.2655 70.7583 50.1507C71.0372 49.9723 71.5898 49.5731 73.2942 49.1669C74.68 48.8242 75.4749 48.2219 75.9297 47.6479C76.0259 48.4109 76.3313 49.347 77.176 50.292C78.829 52.1572 78.6962 53.0668 78.6962 53.0668C78.6697 53.1781 78.7277 53.2823 78.8107 53.3477C78.8107 53.3477 78.8306 53.383 78.8638 53.3618C78.9783 53.406 79.1028 53.3512 79.1443 53.2293C79.1858 53.1075 80.0936 50.3379 79.4696 48.5222C79.4049 48.3279 79.3401 48.1336 79.2837 47.957C79.7799 48.4409 80.3956 49.0609 81.1093 49.8539C81.8495 50.6541 82.6809 51.3005 83.4941 51.7933C85.4939 53.0121 87.3693 53.4183 87.4722 53.4448C87.5767 53.4731 87.6747 53.4095 87.7211 53.3335C87.7576 53.2399 87.741 53.1322 87.6498 53.0492" fill="#F1BB3F"/>
<path d="M94.6068 70.5164V63.34C94.6068 62.7607 94.1654 62.2891 93.6194 62.2891H56.5107C55.9663 62.2891 55.5232 62.7589 55.5232 63.34V70.5164C55.5232 71.0958 55.9647 71.5674 56.5107 71.5674H55.0121C54.4677 71.5674 54.0246 72.0372 54.0246 72.6183V79.7948C54.0246 80.3741 54.4661 80.8457 55.0121 80.8457C54.4677 80.8457 54.0246 81.3155 54.0246 81.8967V89.0731C54.0246 89.6524 54.4661 90.124 55.0121 90.124H54.2188C53.6744 90.124 53.2313 90.5939 53.2313 91.175V98.3514C53.2313 98.9308 53.6728 99.4024 54.2188 99.4024H56.509C55.9647 99.4024 55.5216 99.8722 55.5216 100.453V107.63C55.5216 108.209 55.963 108.681 56.509 108.681H52.3683C51.824 108.681 51.3809 109.151 51.3809 109.732V116.908C51.3809 117.487 51.8223 117.959 52.3683 117.959H89.477C90.0214 117.959 90.4645 117.489 90.4645 116.908V109.732C90.4645 109.152 90.023 108.681 89.477 108.681H93.6177C94.1621 108.681 94.6052 108.211 94.6052 107.63V100.453C94.6052 99.874 94.1637 99.4024 93.6177 99.4024H91.3275C91.8718 99.4024 92.3149 98.9325 92.3149 98.3514V91.175C92.3149 90.5956 91.8735 90.124 91.3275 90.124H92.1208C92.6651 90.124 93.1082 89.6542 93.1082 89.0731V81.8967C93.1082 81.3173 92.6668 80.8457 92.1208 80.8457C92.6651 80.8457 93.1082 80.3759 93.1082 79.7948V72.6183C93.1082 72.039 92.6668 71.5674 92.1208 71.5674H93.6194C94.1637 71.5674 94.6068 71.0976 94.6068 70.5164Z" fill="#CF9600"/>
<path d="M86.8598 62.2891H84.3505V71.5674H86.8598V62.2891Z" fill="#F1BB3F"/>
<path d="M85.6052 71.5656H83.0958V80.844H85.6052V71.5656Z" fill="#F1BB3F"/>
<path d="M85.6052 80.844H83.0958V90.1223H85.6052V80.844Z" fill="#F1BB3F"/>
<path d="M85.6052 90.1223H83.0958V99.4006H85.6052V90.1223Z" fill="#F1BB3F"/>
<path d="M88.6356 99.4518H86.1263V108.73H88.6356V99.4518Z" fill="#F1BB3F"/>
<g style="mix-blend-mode:multiply">
<path d="M89.479 117.956H52.3703C51.8259 117.956 51.3828 117.486 51.3828 116.905H90.4648C90.4648 117.485 90.0233 117.956 89.4773 117.956H89.479Z" fill="#D49A00"/>
</g>
</svg>
