<svg width="140" height="140" viewBox="0 0 140 140" fill="none" xmlns="http://www.w3.org/2000/svg">
<path d="M96.7283 53.0477C102.404 54.6715 111.188 58.2674 115.997 65.6851C120.201 72.1661 121.849 89.1469 111.616 106.833C111.616 106.833 92.0891 100.644 78.2607 92.476C64.4323 84.3082 53.1252 78.0492 40.1982 79.66C40.1982 79.66 44.9871 61.071 57.1983 54.594C68.3665 48.6596 87.7409 51.2938 90.9192 51.7785C91.2464 50.9062 91.9929 49.4544 93.3697 49.3441C95.2393 49.1904 96.5534 50.0562 96.7297 53.0477H96.7283Z" fill="#E8E8E8"/>
<path d="M40.1994 79.6452L40.1112 79.7359C40.1112 79.7359 32.6555 78.7466 22.9336 80.9012C13.1943 83.0532 7.92603 89.0638 10.5128 95.3713C13.0995 101.679 24.9861 101.967 42.5604 90.7061C42.5604 90.7061 55.7545 107.261 72.227 109.772C88.7543 112.29 94.9026 105.217 96.9605 101.459C90.9804 99.0316 84.1096 95.9297 78.2591 92.4744C64.4308 84.3066 53.1237 78.0476 40.1967 79.6583C40.1967 79.6583 40.1967 79.6544 40.1994 79.6465V79.6452Z" fill="#B7B7B7"/>
<path d="M42.5418 90.7212C42.2653 90.2916 37.9839 83.9539 26.0479 84.3349C14.5712 84.6883 11.1365 88.3144 10.1562 94.3237C10.2524 94.6718 10.3713 95.0226 10.5155 95.3734C13.1009 101.678 24.9795 101.967 42.5418 90.7212Z" fill="#646464"/>
<path d="M63.4137 61.5992C63.4137 61.5992 67.3426 56.2849 73.9997 56.6015C80.6568 56.9181 85.3121 60.7675 86.3297 65.4407C87.3473 70.1139 87.6865 77.144 81.7839 81.1104C75.88 85.0767 65.1845 83.9981 61.8673 78.2029C58.5488 72.4078 61.1315 64.391 63.4151 61.5992H63.4137Z" fill="#E30613"/>
<path d="M82.5782 74.9125C82.5782 74.9125 80.6685 74.1807 78.7215 72.6541C78.1245 72.1956 77.6117 71.8973 77.1871 71.7226C77.8107 71.4322 78.4077 70.9724 79.0033 70.2919C79.9901 69.1935 81.4698 67.6012 81.4698 67.6012C81.5139 67.5526 81.5246 67.4817 81.4978 67.4212C81.4711 67.3621 81.403 67.3332 81.3322 67.3227C79.8366 67.4068 78.2461 68.2108 77.0883 68.7876C76.5781 69.0398 76.1481 69.25 75.9398 69.3105C75.9051 69.3052 75.8663 69.3183 75.849 69.3144C75.8463 67.9546 76.0012 66.5094 76.8412 65.0761C77.9029 63.2736 76.9574 61.1268 76.9147 61.0467C76.8906 60.9692 76.8051 60.9376 76.7317 60.9455C76.6582 60.9521 76.5941 61.0165 76.6008 61.0913C76.5982 61.1097 76.5341 63.0095 74.4454 65.1339C73.4986 66.0917 73.0245 67.2675 72.7935 68.2791C72.2914 67.4501 71.6437 66.855 70.7824 66.357C69.3895 65.5569 67.9085 63.8254 67.8938 63.8043C67.8497 63.7426 67.7616 63.7294 67.7002 63.7754C67.6241 63.8004 67.5947 63.87 67.6014 63.9436C67.6227 64.0382 67.9966 66.4832 69.28 67.6341C69.9597 68.2515 70.4071 69.2014 70.6381 69.9161C69.9891 70.0199 69.0236 70.2945 68.1649 71.0447C67.0138 72.0445 63.8234 72.0904 63.8061 72.0878C63.7353 72.0773 63.6538 72.1377 63.6418 72.21C63.6311 72.2823 63.6725 72.3611 63.7393 72.39C66.4422 73.4818 70.1894 72.4176 70.3243 72.365C70.6795 72.2901 70.9386 72.3663 71.0868 72.5726C71.3659 72.9825 71.2003 73.8023 70.749 74.3751C70.0492 75.2606 69.6326 77.2169 69.8529 77.6544C69.9063 77.7726 69.9918 77.8042 70.0452 77.812L70.0626 77.8147C70.2949 77.8317 70.367 77.7148 70.4605 77.5821C70.6007 77.3824 70.8798 76.9843 71.9335 76.2644C72.7855 75.6784 73.1688 75.0754 73.3544 74.5893C73.6068 75.0504 74.0488 75.576 74.8394 75.9543C76.4192 76.7098 76.5381 77.3338 76.5381 77.3338C76.5447 77.4087 76.6062 77.4731 76.6769 77.4836C76.6769 77.4836 76.6943 77.4862 76.7117 77.4888C76.7998 77.502 76.8666 77.4205 76.8639 77.3286C76.8786 77.2392 76.7971 75.2252 75.9438 74.2135C75.8516 74.1071 75.7608 74.002 75.6861 73.8982C76.1281 74.0756 76.7063 74.3108 77.3807 74.6156C78.0711 74.9414 78.8003 75.1253 79.472 75.2278C81.1132 75.4774 82.4887 75.2462 82.5649 75.2212C82.6383 75.2133 82.685 75.1477 82.6957 75.0754C82.7064 75.0031 82.6623 74.9414 82.5942 74.9138" fill="#52AE32"/>
<path d="M31.2945 40.0564C31.3265 40.0288 31.3599 40.0012 31.3933 39.9749C31.5482 39.8527 31.2277 40.0958 31.3265 40.0261C31.412 39.9657 31.4975 39.9053 31.5856 39.8475C31.7779 39.7227 31.9755 39.6057 32.1759 39.4954C32.6312 39.2458 33.1026 39.025 33.5834 38.8253L33.3444 38.9252C34.1603 38.5875 35.0163 38.2814 35.8964 38.1619L35.6306 38.1973C36.305 38.1106 36.9901 38.1198 37.6645 38.2079L37.3987 38.1724C38.1799 38.2775 38.9398 38.4877 39.6676 38.7859L39.4286 38.6861C39.8506 38.8621 40.2605 39.0644 40.6532 39.2957C40.8455 39.4087 41.0324 39.5282 41.2167 39.653C41.3075 39.7148 41.3983 39.7792 41.4865 39.8448C41.5239 39.8724 41.6748 39.9854 41.5265 39.8737C41.369 39.7542 41.5626 39.904 41.5986 39.9316C41.9365 40.2009 42.2557 40.4925 42.5521 40.8052C42.7017 40.9629 42.8459 41.1271 42.9822 41.2953C42.9955 41.311 43.0089 41.3281 43.0209 41.3439C43.1104 41.4542 42.9408 41.2401 42.9408 41.2427C42.9474 41.2782 43.0062 41.3281 43.0289 41.3583C43.0943 41.4464 43.1584 41.5344 43.2199 41.625C43.4789 42.0034 43.702 42.4041 43.8822 42.8232L43.7807 42.588C43.9717 43.0413 44.1106 43.513 44.1774 43.9991L44.1413 43.7376C44.1934 44.137 44.1961 44.539 44.1426 44.9384L44.1787 44.677C44.1266 45.0435 44.0278 45.4009 43.8836 45.7438L43.9851 45.5086C43.9263 45.6439 43.8622 45.7766 43.7914 45.9054C43.7554 45.9711 43.7153 46.0341 43.6752 46.0972C43.5791 46.2522 43.8342 45.9133 43.7126 46.0512C43.6806 46.088 43.6485 46.1248 43.6151 46.1603C43.5524 46.226 43.4869 46.289 43.4188 46.3481C43.3881 46.3744 43.3521 46.3994 43.3227 46.427C43.523 46.2286 43.4349 46.3429 43.3641 46.3915C43.1972 46.5058 43.0195 46.6004 42.8326 46.6792L43.0716 46.5794C42.8513 46.6687 42.6256 46.7305 42.3906 46.7659L42.6563 46.7305C42.4266 46.7607 42.1996 46.762 41.9699 46.7331L42.2356 46.7686C42.038 46.7396 41.847 46.6897 41.6614 46.6148L41.9005 46.7147C41.7562 46.6529 41.6227 46.5781 41.4905 46.4927C41.3302 46.3876 41.6441 46.6201 41.5639 46.5518C41.5386 46.5308 41.5118 46.5097 41.4865 46.4887C41.4264 46.4362 41.3676 46.381 41.3129 46.3232C41.2768 46.2851 41.1126 46.0854 41.2341 46.2417C41.3556 46.3981 41.2007 46.1905 41.1726 46.1458C41.0845 46.0092 41.0084 45.866 40.943 45.7175L41.0444 45.9527C40.9309 45.686 40.8548 45.4075 40.8134 45.121L40.8495 45.3825C40.8094 45.079 40.8081 44.7729 40.8495 44.4694L40.8134 44.7309C40.8815 44.2697 41.0071 43.8151 41.1913 43.3855L41.0898 43.6207C41.2087 43.3474 41.3516 43.086 41.5199 42.839C41.5626 42.7772 41.6067 42.7168 41.6521 42.6564C41.7629 42.5066 41.4905 42.8548 41.5906 42.7339C41.612 42.7076 41.6334 42.6813 41.6561 42.6551C41.7469 42.5486 41.8444 42.4448 41.9445 42.3476C42.0447 42.2504 42.1488 42.1584 42.257 42.0717C42.2824 42.0507 42.3091 42.031 42.3345 42.01C42.0701 42.2307 42.1715 42.1322 42.237 42.0849C42.2957 42.0441 42.3532 42.0034 42.4133 41.964C42.6456 41.8129 42.8913 41.6828 43.1464 41.5751L42.9074 41.675C43.2853 41.5186 43.6819 41.4109 44.0879 41.3544L43.8221 41.3899C44.2268 41.3373 44.6354 41.336 45.0414 41.3872L44.7756 41.3518C45.1616 41.4043 45.5382 41.5042 45.8987 41.6513L45.6597 41.5515C45.9134 41.6579 46.1578 41.7853 46.3875 41.9364C46.4436 41.9732 46.4983 42.0113 46.5531 42.0507C46.5664 42.0612 46.5798 42.0704 46.5932 42.0809C46.6573 42.1282 46.6119 42.0941 46.4583 41.9771C46.485 41.9982 46.5117 42.0192 46.5384 42.0402C46.6492 42.1308 46.7561 42.2254 46.8576 42.3266C46.9591 42.4278 47.0619 42.5381 47.1554 42.6498C47.1781 42.6774 47.1994 42.7063 47.2235 42.7326C47.1928 42.6997 47.0525 42.5105 47.1554 42.6472C47.1994 42.7063 47.2408 42.7654 47.2822 42.8258C47.4612 43.0912 47.6121 43.3737 47.7403 43.6667L47.6388 43.4315C47.7176 43.6154 47.7964 43.8007 47.8752 43.9846L47.7737 43.7494C48.0114 44.3209 48.1623 44.9174 48.2478 45.5283L48.2117 45.2669C48.3119 46.0144 48.3185 46.7686 48.2945 47.5214C48.2785 48.0377 48.7672 48.5304 49.2961 48.5067C49.8529 48.4817 50.2803 48.0745 50.2976 47.5214C50.3203 46.808 50.3177 46.0919 50.2295 45.3825C50.1761 44.9542 50.112 44.5285 50.0038 44.1107C49.8877 43.6654 49.7194 43.241 49.5298 42.8219L49.6313 43.0571C49.3348 42.3161 48.9475 41.6461 48.396 41.0575C47.9566 40.5885 47.4104 40.1851 46.8215 39.9158C45.5983 39.3561 44.2161 39.2195 42.9114 39.5873C41.6067 39.9552 40.4368 40.8223 39.7063 41.9745C38.8891 43.2647 38.5085 45.0343 39.1147 46.4756C39.486 47.3571 40.099 48.0889 41.0097 48.4673C42.0193 48.8864 43.1624 48.7682 44.1146 48.2518C44.6154 47.9812 45.0214 47.5989 45.3592 47.1509C45.6036 46.8264 45.7679 46.4165 45.9027 46.0407C46.1364 45.3904 46.2259 44.6638 46.1685 43.9767C46.0376 42.3949 45.3098 40.9813 44.2882 39.7752C43.2826 38.5875 41.9432 37.6206 40.4996 37.0123C39.721 36.6838 38.9265 36.4224 38.0878 36.2963C37.161 36.157 36.2569 36.136 35.3288 36.2687C34.581 36.3764 33.8518 36.6195 33.1521 36.8914C32.3414 37.2067 31.5375 37.5601 30.795 38.0108C30.4745 38.2052 30.1647 38.4233 29.8789 38.6651C29.4796 39.0027 29.501 39.7174 29.8789 40.059C30.3036 40.4426 30.8698 40.419 31.2958 40.059L31.2945 40.0564Z" fill="#FAA61A"/>
<path d="M127.461 41.2582C127.06 41.002 126.614 40.8194 126.172 40.6433C125.709 40.4581 125.233 40.3031 124.751 40.1691C123.768 39.8945 122.724 39.6711 121.699 39.6633C119.814 39.6501 118.045 40.4161 116.609 41.5775C115.235 42.6889 114.224 44.2011 113.597 45.8289C113.005 47.3621 112.809 49.1121 113.243 50.7097C113.653 52.2192 114.717 53.7734 116.369 54.1006C117.166 54.2582 117.981 54.1715 118.699 53.7839C119.418 53.3964 119.944 52.6935 120.176 51.917C120.455 50.9816 120.322 49.9411 120.011 49.0306C119.715 48.1688 119.277 47.3293 118.59 46.7052C118.007 46.1771 117.282 45.7908 116.502 45.6358C115.723 45.4807 114.875 45.5044 114.061 45.6673C112.475 45.9852 111 46.8366 109.791 47.8758C108.65 48.8559 107.63 50.1749 107.28 51.649C107.194 52.0077 107.144 52.3821 107.145 52.75C107.145 53.265 107.604 53.759 108.147 53.7353C108.689 53.7117 109.15 53.3018 109.148 52.75C109.148 52.591 109.159 52.4334 109.179 52.2757L109.143 52.5372C109.196 52.1601 109.306 51.7935 109.454 51.4428L109.353 51.6779C109.499 51.3363 109.681 51.0105 109.889 50.7018C109.941 50.6256 109.995 50.5494 110.05 50.4745C110.079 50.4351 110.108 50.3943 110.139 50.3549C110.278 50.1723 110.01 50.5165 110.095 50.4101C110.223 50.2525 110.355 50.0987 110.493 49.9503C110.773 49.6507 111.074 49.3709 111.393 49.1108C111.471 49.0477 111.551 48.9886 111.628 48.9255C111.64 48.9163 111.4 49.0976 111.509 49.0162C111.528 49.0017 111.547 48.9886 111.565 48.9741C111.612 48.9387 111.66 48.9045 111.708 48.8703C111.88 48.7482 112.057 48.6312 112.237 48.5209C112.632 48.2778 113.046 48.065 113.475 47.8863L113.236 47.9862C113.797 47.7549 114.383 47.5815 114.988 47.5014L114.722 47.5368C115.142 47.483 115.565 47.4751 115.984 47.529L115.719 47.4935C116.042 47.5382 116.358 47.6196 116.659 47.7444L116.42 47.6446C116.62 47.73 116.812 47.8311 116.993 47.952C117.034 47.9796 117.074 48.0098 117.115 48.0387C116.803 47.8246 116.994 47.9454 117.067 48.0072C117.154 48.0808 117.238 48.1569 117.318 48.2384C117.398 48.3199 117.469 48.4039 117.543 48.4893C117.642 48.605 117.377 48.2699 117.468 48.3934C117.484 48.4158 117.501 48.4381 117.517 48.4604C117.553 48.5104 117.589 48.5616 117.623 48.6142C117.768 48.8362 117.891 49.0714 117.997 49.3144L117.895 49.0792C118.098 49.5509 118.25 50.0475 118.321 50.5546L118.285 50.2932C118.327 50.6111 118.336 50.9304 118.295 51.2483L118.331 50.9869C118.299 51.2142 118.241 51.4362 118.152 51.649L118.253 51.4139C118.197 51.5439 118.13 51.67 118.049 51.787C118.033 51.8093 118.017 51.8316 118.001 51.854C117.921 51.9696 118.197 51.6188 118.073 51.7607C118.031 51.808 117.99 51.854 117.946 51.8973C117.902 51.9407 117.855 51.9801 117.808 52.0208C117.667 52.1417 118.023 51.8697 117.907 51.9459C117.886 51.9604 117.865 51.9762 117.843 51.9906C117.735 52.0616 117.62 52.122 117.5 52.1732L117.739 52.0734C117.553 52.1496 117.361 52.2008 117.162 52.2284L117.428 52.1929C117.217 52.2192 117.005 52.2192 116.794 52.1929L117.059 52.2284C116.832 52.1969 116.613 52.1378 116.402 52.0497L116.641 52.1496C116.461 52.0721 116.297 51.9762 116.135 51.8671C116.012 51.783 116.369 52.055 116.199 51.9144C116.161 51.8829 116.124 51.8513 116.087 51.8172C116.01 51.7462 115.935 51.67 115.867 51.5899C115.809 51.5229 115.682 51.3455 115.901 51.6385C115.868 51.5938 115.833 51.5492 115.801 51.5045C115.736 51.4139 115.674 51.3219 115.617 51.2273C115.495 51.0289 115.39 50.8226 115.299 50.6098L115.401 50.845C115.219 50.4141 115.099 49.9621 115.033 49.4997L115.069 49.7611C114.988 49.1659 114.997 48.5629 115.076 47.9678L115.04 48.2292C115.144 47.4711 115.359 46.7315 115.661 46.0273L115.56 46.2625C115.727 45.8775 115.917 45.5044 116.134 45.1444C116.245 44.9605 116.361 44.7805 116.484 44.6044C116.541 44.5217 116.601 44.4389 116.661 44.3588C116.692 44.318 116.723 44.2786 116.753 44.2379C116.82 44.1499 116.597 44.4336 116.667 44.3483C116.687 44.3233 116.707 44.2983 116.725 44.2747C116.993 43.9462 117.282 43.6349 117.593 43.3458C117.746 43.2039 117.905 43.0686 118.068 42.9385C118.108 42.907 118.148 42.8768 118.186 42.8453C117.911 43.0634 118.068 42.9359 118.134 42.886C118.225 42.819 118.319 42.7546 118.413 42.6916C118.81 42.4262 119.232 42.1989 119.673 42.0149L119.434 42.1148C119.973 41.8915 120.538 41.7364 121.118 41.6576L120.852 41.6931C121.43 41.6182 122.002 41.6313 122.58 41.7062L122.314 41.6707C123.489 41.8297 124.663 42.145 125.757 42.5956L125.518 42.4958C125.838 42.6298 126.155 42.777 126.447 42.9635C126.888 43.2447 127.573 43.066 127.818 42.6101C128.081 42.1201 127.928 41.5617 127.458 41.2621L127.461 41.2582Z" fill="#FFF200"/>
<path d="M124.367 109.185C124.721 108.405 125.025 107.606 125.255 106.782C125.484 105.958 125.627 105.145 125.733 104.312C125.926 102.782 125.882 101.247 125.669 99.7204C125.303 97.0954 124.325 94.435 122.541 92.4143C121.787 91.5604 120.849 90.8667 119.765 90.4765C118.517 90.0259 117.117 90.1664 115.945 90.7642C114.605 91.45 113.627 92.7454 113.01 94.071C112.257 95.6896 111.824 97.4764 111.584 99.2343C111.325 101.127 111.374 103.127 112.051 104.936C112.382 105.823 112.826 106.638 113.453 107.357C114.018 108.006 114.778 108.574 115.638 108.77C116.58 108.984 117.617 108.786 118.289 108.063C118.919 107.386 119.189 106.49 119.291 105.597C119.381 104.796 119.267 103.957 119.058 103.181C118.857 102.429 118.539 101.704 118.138 101.034C117.392 99.7874 116.176 98.7574 114.866 98.1162C113.556 97.4751 111.834 97.0678 110.359 97.6104C109.977 97.751 109.615 97.9218 109.288 98.1622C108.876 98.4657 108.546 98.8309 108.257 99.2513C107.801 99.9174 107.511 100.707 107.302 101.48C106.905 102.95 106.732 104.474 107.034 105.978C107.172 106.662 107.433 107.368 107.857 107.933C108.454 108.728 109.348 109.475 110.43 109.189C111.054 109.025 111.468 108.525 111.667 107.942C111.827 107.47 111.79 106.945 111.696 106.465C111.546 105.705 111.094 104.948 110.508 104.432C109.384 103.442 107.743 103.061 106.293 103.504C105.545 103.733 104.868 104.162 104.363 104.754C103.726 105.498 103.415 106.375 103.34 107.339C103.28 108.117 103.407 108.916 103.59 109.671C103.712 110.173 104.319 110.52 104.823 110.36C105.354 110.19 105.652 109.686 105.522 109.147C105.454 108.864 105.397 108.578 105.355 108.29L105.391 108.552C105.326 108.07 105.307 107.583 105.369 107.1L105.333 107.361C105.377 107.047 105.456 106.741 105.578 106.447L105.477 106.682C105.561 106.492 105.661 106.309 105.783 106.14C105.801 106.113 105.822 106.087 105.842 106.061L105.747 106.183C105.768 106.137 105.828 106.088 105.863 106.052C105.93 105.981 105.998 105.911 106.067 105.843C106.126 105.786 106.189 105.735 106.25 105.682C106.378 105.575 106.024 105.84 106.191 105.727C106.23 105.701 106.269 105.674 106.308 105.65C106.453 105.556 106.607 105.479 106.766 105.41L106.527 105.51C106.796 105.4 107.077 105.325 107.367 105.286L107.101 105.321C107.404 105.283 107.708 105.284 108.013 105.321L107.747 105.286C108.05 105.326 108.344 105.404 108.629 105.518L108.39 105.418C108.56 105.489 108.726 105.572 108.882 105.669C108.928 105.697 108.972 105.726 109.015 105.756C109.159 105.856 108.973 105.736 108.94 105.696C108.998 105.768 109.097 105.824 109.165 105.889C109.234 105.953 109.298 106.019 109.359 106.088C109.414 106.15 109.511 106.299 109.318 106.028C109.344 106.066 109.374 106.103 109.4 106.142C109.519 106.313 109.621 106.497 109.704 106.686L109.602 106.451C109.696 106.678 109.76 106.913 109.793 107.156L109.757 106.895C109.777 107.07 109.781 107.243 109.76 107.417L109.796 107.155C109.778 107.273 109.75 107.385 109.705 107.495L109.806 107.26C109.789 107.298 109.77 107.336 109.75 107.373C109.736 107.398 109.72 107.423 109.705 107.448C109.814 107.317 109.845 107.279 109.793 107.336C109.657 107.473 109.953 107.255 109.868 107.292C109.824 107.31 109.784 107.339 109.74 107.359L109.979 107.259C109.925 107.277 109.873 107.292 109.818 107.301L110.084 107.266C109.997 107.276 109.915 107.276 109.829 107.266L110.095 107.301C110.005 107.287 109.923 107.262 109.838 107.229L110.078 107.329C110.053 107.318 109.842 107.197 109.846 107.193C109.852 107.188 110.08 107.378 109.916 107.244C109.889 107.222 109.863 107.2 109.837 107.176C109.78 107.126 109.725 107.072 109.673 107.019C109.649 106.994 109.534 106.831 109.509 106.833C109.531 106.832 109.684 107.066 109.565 106.902C109.545 106.874 109.525 106.845 109.505 106.816C109.462 106.753 109.42 106.689 109.382 106.623C109.296 106.477 109.222 106.326 109.155 106.171L109.256 106.406C109.081 105.987 108.973 105.548 108.909 105.1L108.945 105.362C108.849 104.659 108.861 103.946 108.956 103.244L108.92 103.505C109.045 102.611 109.267 101.7 109.623 100.866L109.522 101.101C109.621 100.875 109.73 100.656 109.857 100.444C109.916 100.348 109.977 100.254 110.044 100.162C110.063 100.136 110.082 100.111 110.102 100.084L110.004 100.208C110.035 100.155 110.087 100.108 110.127 100.062C110.2 99.9792 110.278 99.9004 110.361 99.8255C110.427 99.765 110.609 99.656 110.338 99.8294C110.375 99.8058 110.41 99.7782 110.446 99.7532C110.625 99.6337 110.816 99.5325 111.015 99.4497L110.776 99.5496C111.051 99.4379 111.335 99.363 111.629 99.321L111.364 99.3564C111.748 99.3065 112.135 99.3131 112.52 99.363L112.254 99.3275C112.76 99.3985 113.251 99.543 113.721 99.7374L113.482 99.6376C113.908 99.8176 114.315 100.037 114.699 100.291C114.789 100.35 114.877 100.411 114.965 100.473C115.028 100.518 115.212 100.669 114.946 100.456C114.993 100.494 115.043 100.531 115.089 100.569C115.259 100.706 115.422 100.849 115.578 100.999C115.734 101.148 115.875 101.297 116.012 101.456C116.05 101.499 116.086 101.543 116.122 101.586C116.273 101.771 115.999 101.42 116.094 101.55C116.15 101.628 116.207 101.704 116.261 101.783C116.505 102.143 116.709 102.532 116.883 102.93L116.781 102.695C117.035 103.291 117.214 103.915 117.302 104.556L117.266 104.295C117.326 104.755 117.337 105.22 117.277 105.681L117.313 105.42C117.266 105.755 117.182 106.082 117.048 106.394L117.15 106.159C117.101 106.27 117.047 106.379 116.986 106.484C116.955 106.536 116.923 106.588 116.89 106.639C116.872 106.664 116.855 106.689 116.837 106.714C116.943 106.584 116.971 106.548 116.922 106.607C116.884 106.648 116.848 106.689 116.809 106.727C116.735 106.799 116.577 106.866 116.839 106.716C116.737 106.774 116.645 106.839 116.538 106.886L116.777 106.786C116.645 106.84 116.51 106.877 116.37 106.898L116.636 106.862C116.464 106.885 116.294 106.883 116.122 106.862L116.387 106.898C116.164 106.867 115.952 106.806 115.745 106.72L115.984 106.82C115.865 106.769 115.749 106.71 115.638 106.644C115.586 106.613 115.534 106.58 115.483 106.544C115.422 106.502 115.328 106.41 115.557 106.603C115.534 106.584 115.509 106.565 115.485 106.546C115.248 106.355 115.031 106.145 114.834 105.915C114.812 105.887 114.789 105.86 114.766 105.833C114.679 105.73 114.804 105.893 114.824 105.907C114.774 105.872 114.731 105.785 114.697 105.735C114.609 105.611 114.526 105.484 114.448 105.354C114.287 105.085 114.147 104.805 114.022 104.517L114.124 104.752C113.815 104.026 113.619 103.262 113.508 102.483L113.544 102.745C113.391 101.619 113.421 100.481 113.571 99.3564L113.535 99.6179C113.651 98.7705 113.831 97.9323 114.056 97.1072C114.244 96.4162 114.448 95.7277 114.731 95.0682L114.63 95.3034C114.781 94.9565 114.949 94.6176 115.143 94.2918C115.239 94.1289 115.342 93.9686 115.45 93.8135C115.506 93.7334 115.565 93.6546 115.624 93.5757C115.722 93.443 115.466 93.7689 115.578 93.6335C115.606 93.5994 115.636 93.5639 115.664 93.5298C115.903 93.246 116.168 92.9885 116.46 92.7546C116.586 92.6521 116.255 92.9018 116.397 92.8032C116.433 92.7783 116.469 92.752 116.505 92.727C116.577 92.6771 116.652 92.6298 116.727 92.5851C116.891 92.4879 117.06 92.4025 117.237 92.3276L116.998 92.4275C117.305 92.3014 117.624 92.2146 117.953 92.1687L117.687 92.2041C118.014 92.1621 118.342 92.1595 118.671 92.2002L118.405 92.1647C118.759 92.212 119.101 92.3079 119.43 92.4446L119.19 92.3447C119.506 92.4774 119.806 92.6443 120.087 92.8374C120.132 92.8689 120.279 92.9399 120.296 92.9885C120.3 93.0016 120.072 92.8137 120.171 92.8939C120.188 92.907 120.205 92.9215 120.223 92.9346C120.262 92.9661 120.3 92.9964 120.338 93.0292C120.481 93.1488 120.618 93.2749 120.752 93.4049C120.885 93.535 121.021 93.6808 121.148 93.8267C121.207 93.895 121.266 93.9633 121.323 94.0329C121.354 94.071 121.385 94.1091 121.415 94.1459C121.184 93.8621 121.341 94.0513 121.394 94.121C121.648 94.4573 121.879 94.8107 122.09 95.1759C122.342 95.6121 122.565 96.0641 122.763 96.5265L122.661 96.2914C123.203 97.5657 123.556 98.9137 123.743 100.283L123.707 100.021C123.903 101.491 123.907 102.983 123.71 104.451L123.746 104.19C123.559 105.544 123.201 106.873 122.661 108.134L122.763 107.899C122.721 107.995 122.68 108.089 122.637 108.184C122.524 108.433 122.46 108.669 122.536 108.943C122.6 109.172 122.779 109.42 122.996 109.532C123.229 109.653 123.511 109.713 123.768 109.632C124.001 109.558 124.262 109.408 124.367 109.178V109.185Z" fill="#52AE32"/>
<path d="M36.6809 67.4274L30.001 69.0381C29.5657 69.1432 29.1384 68.8384 29.105 68.3983L28.6496 62.4337C28.6109 61.9278 29.1063 61.5442 29.5977 61.7019L37.219 64.1429C37.5809 64.2585 37.7906 64.6316 37.6985 64.9942L37.2124 66.9071C37.1469 67.1646 36.9426 67.3643 36.6809 67.4274Z" fill="#E30613"/>
<path d="M36.9885 61.4411L35.3593 57.5694C35.3046 57.4406 35.3633 57.2922 35.4929 57.233L38.3307 55.9337C38.5056 55.8536 38.7072 55.9797 38.7072 56.1702V60.553C38.7072 60.6397 38.6632 60.7212 38.5884 60.7698L37.3812 61.5581C37.2423 61.6487 37.054 61.5922 36.9899 61.4411H36.9885Z" fill="#FFF200"/>
<path d="M67.9818 42.6354L63.4206 33.8681C63.0845 33.2212 63.3216 32.4036 63.9402 32.0757L68.3694 29.736C69.0396 29.3815 69.8458 29.7626 70.0561 30.5314L72.8048 40.5771C72.9821 41.2262 72.6646 41.9131 72.0748 42.1524L69.4582 43.2136C68.9014 43.4396 68.2725 43.1937 67.9818 42.6354Z" fill="#E30613"/>
<path d="M121.376 66.0036C122.697 65.038 125.694 63.0778 128.323 63.0003C128.772 62.9872 129.1 63.4102 128.972 63.8332C128.721 64.6583 128.35 65.9445 128.222 66.7223C128.172 67.0218 127.916 67.2439 127.609 67.2596C126.439 67.3174 123.803 67.4803 122.867 67.793C122.662 67.8613 122.437 67.8246 122.263 67.6971L121.374 67.0402C121.024 66.7814 121.024 66.2625 121.375 66.0063L121.376 66.0036Z" fill="#AE0F0A"/>
</svg>
