<svg width="140" height="140" viewBox="0 0 140 140" fill="none" xmlns="http://www.w3.org/2000/svg">
<path d="M73.5433 114.282L60.8093 92.8251C60.5535 92.3855 60.3649 91.9086 60.2532 91.4112C59.8965 89.8161 59.6888 88.1994 61.2513 86.573L100.481 55.8163C101.361 55.0592 102.653 54.767 103.378 55.1715L127.315 65.5457C129.351 66.7326 128.553 70.5058 127.418 71.4838L76.7596 114.502C75.6246 115.48 74.1798 115.372 73.5445 114.282H73.5433Z" fill="#AE0F0A"/>
<path d="M73.953 111.431L60.4011 89.1653C59.9879 88.4868 60.3699 87.3325 61.2466 86.5766L100.425 52.8267C101.307 52.0672 102.605 51.7774 103.335 52.1843L127.33 65.5554C128.475 66.1941 128.504 67.5078 127.374 68.4785L77.168 111.621C76.0439 112.587 74.6003 112.493 73.953 111.43V111.431Z" fill="#E30613"/>
<path d="M74.5385 109.296L62.3569 89.2805C61.9822 88.6647 62.3593 87.5876 63.194 86.868L100.501 54.73C101.341 54.0068 102.553 53.717 103.217 54.0864L124.789 66.1076C125.807 66.6751 125.784 67.8837 124.722 68.7965L77.5001 109.374C76.4432 110.282 75.1138 110.24 74.5385 109.296Z" fill="white"/>
<g clip-path="url(#clip0_811_30955)">
<path d="M95.5944 73.4281L95.2212 73.1262C95.1854 73.0968 95.1867 73.0421 95.2251 72.9987L95.827 72.3248C95.8692 72.2776 95.9408 72.2636 95.9804 72.2955L96.452 72.6637C96.4929 72.6955 96.4865 72.7605 96.4379 72.8025L95.7375 73.4103C95.6928 73.4485 95.6315 73.4561 95.5944 73.4255V73.4281Z" fill="#AE0F0A"/>
<path d="M82.2012 74.9782C86.5656 71.1523 92.2963 70.2325 95.7227 72.9666C99.6948 76.1351 99.6833 83.3804 94.6018 89.2231L82.2012 74.9782Z" fill="#E30613"/>
<path d="M93.9468 91.4157L80.8036 75.5146C80.6464 75.3247 80.7588 74.9667 81.0502 74.7132C81.3403 74.4622 81.7033 74.4074 81.8643 74.5909L95.2197 89.9315C95.5226 90.2793 95.4881 90.8997 95.1366 91.315C94.7826 91.7329 94.2471 91.7775 93.9468 91.4144V91.4157Z" fill="#AE0F0A"/>
<path d="M97.0372 73.0913C96.9401 73.1881 96.4979 72.983 96.057 72.6364C95.616 72.2899 95.3566 71.9485 95.4525 71.8555L95.6812 71.6338L97.2685 72.8594L97.0359 73.0913H97.0372Z" fill="#B0050F"/>
<path d="M97.2691 72.8594C97.172 72.9562 96.7298 72.7523 96.2889 72.4084C95.848 72.0644 95.586 71.7268 95.6818 71.6338C95.7777 71.5408 96.202 71.7331 96.6365 72.0656C97.08 72.4045 97.3663 72.7625 97.2691 72.8594Z" fill="#E30613"/>
</g>
<path d="M111.573 61.6067C111.981 61.2437 112.073 60.6776 111.779 60.3423C111.484 60.0071 110.914 60.0295 110.505 60.3925C110.097 60.7555 110.005 61.3216 110.299 61.6569C110.594 61.9922 111.164 61.9697 111.573 61.6067Z" fill="#820B07"/>
<path d="M70.8932 39.7987C70.5611 41.6763 70.9607 45.0419 70.7142 47.3386C70.312 50.3844 71.2999 54.3233 73.1957 51.083C74.5589 47.2663 74.4231 41.0505 77.4301 39.0576C77.5854 38.4884 70.8014 38.6212 70.8932 39.7987Z" fill="#EDA600"/>
<path d="M87.2958 43.5451C87.2861 43.6012 87.2789 43.6625 87.2704 43.722C85.4769 43.8003 83.4972 44.1306 83.5474 44.77C83.2154 46.6476 83.4502 50.0003 83.3684 52.3099C83.2558 55.4787 83.799 58.8754 85.3844 55.473C86.1414 53.8472 86.631 48.9987 86.9694 51.7363C87.1122 52.8975 87.3283 57.3033 88.7138 53.7152C90.077 49.8984 90.8273 44.797 93.8328 42.8039C93.988 42.2347 87.204 42.3676 87.2958 43.5451Z" fill="#EDA600"/>
<path d="M26.1234 55.7122C28.651 54.4209 29.7767 51.4837 32.4338 50.5736C35.0909 49.6636 72.7174 45.7241 78.3028 47.2163C83.8882 48.7085 94.2985 51.9542 97.7159 50.7845C100.449 49.8498 101.099 48.5236 101.351 48.0118C95.8873 45.6266 84.3273 40.4748 79.6539 38.6706C73.8112 36.4145 36.3278 43.2852 32.0161 43.0594C27.7045 42.832 20.2162 40.7161 17.8229 43.661C16.3537 45.5823 13.8485 49.7016 15.579 50.8114C17.7409 52.1992 23.5976 57.0022 26.125 55.7124L26.1234 55.7122Z" fill="#BE8E0E"/>
<path d="M37.0738 16.6506C32.3967 19.1008 21.8024 29.1089 19.6727 34.0919C17.9697 38.079 17.7284 42.132 17.8219 43.6599C21.157 43.0854 28.312 42.6235 30.2526 45.3623C31.3905 44.9733 51.2237 30.1023 51.5722 25.7291C52.0699 23.8565 52.5302 19.7861 50.3926 18.4744C47.7217 16.836 41.751 14.1988 37.0738 16.6506Z" fill="#D49A00"/>
<path d="M101.374 47.83C102.017 49.7373 83.4735 42.4682 73.7199 43.6783C63.9663 44.8884 33.9313 46.2315 31.3961 46.2485C28.8608 46.2655 31.0987 37.8411 34.1289 35.5277C37.1591 33.2144 45.2397 27.0461 51.57 25.73C60.4082 27.243 78.8999 30.6747 82.1521 32.284C86.2186 34.2957 100.731 45.9242 101.374 47.8316L101.374 47.83Z" fill="#FFED00"/>
<path d="M53.4981 38.6296C58.0797 38.8449 61.8851 37.1063 61.9977 34.7463C62.1104 32.3863 58.4876 30.2985 53.906 30.0832C49.3245 29.8679 45.519 31.6065 45.4064 33.9665C45.2937 36.3265 48.9165 38.4142 53.4981 38.6296Z" fill="#E30613"/>
<path d="M69.6614 39.0616C71.8738 38.7117 73.5106 37.4199 73.3175 36.1762C73.1243 34.9325 71.1742 34.2079 68.9619 34.5578C66.7495 34.9077 65.1127 36.1996 65.3058 37.4433C65.499 38.687 67.4491 39.4115 69.6614 39.0616Z" fill="#E30613"/>
<path d="M98.6616 46.6712C98.5809 46.7923 98.8034 47.1239 98.8614 47.3042C100.583 51.2924 96.9559 61.1175 99.3247 64.0799C99.4742 64.2088 99.6609 64.2641 99.8444 64.198C100.616 63.8425 100.533 62.4783 100.58 61.6894C100.732 56.1616 101.659 49.6912 101.402 47.767C101.309 47.4982 100.898 47.3705 100.635 47.2571C100.141 47.0703 99.3523 46.7759 98.9714 46.6756C98.8729 46.6514 98.7501 46.6179 98.6672 46.6639L98.66 46.671L98.6616 46.6712Z" fill="#FFED00"/>
<path d="M71.955 42.2962C71.8678 42.6092 71.9532 43.232 71.9898 43.6501C72.5149 48.1621 71.6483 53.2833 71.3429 57.7889C71.0864 61.5648 74.1297 61.5626 74.986 59.4805C75.508 58.2124 75.6705 51.2468 75.6938 50.7226C75.7355 49.7438 75.9554 49.0007 76.426 48.3076C77.6127 46.8117 78.4655 49.3341 79.281 49.9962C80.5624 51.2237 81.3121 49.5923 81.4557 48.2561C81.6176 47.0892 81.7125 45.9256 81.7984 44.7577C81.8176 44.2554 81.9188 43.6607 81.7509 43.2018C81.4703 42.65 80.6116 42.817 79.8702 42.6857C78.131 42.5157 75.548 42.2645 73.8417 42.0983C73.0974 42.0861 72.146 41.7328 71.9619 42.278L71.9566 42.2964L71.955 42.2962Z" fill="#FFED00"/>
<path d="M56.7741 44.1604C56.3885 46.035 56.9688 49.4121 56.7018 51.7081C56.251 54.7497 57.5969 58.7146 59.9525 55.509C61.6171 51.7148 61.315 45.4859 65.1162 43.5524C65.3028 42.9853 56.6321 42.9786 56.7741 44.1604Z" fill="#FFED00"/>
<path d="M54.4393 27.5087C55.0928 26.8834 55.7457 26.2579 56.3991 25.632C56.5797 25.4589 56.7604 25.2858 56.9412 25.1127L57.1234 25.599C56.8783 25.5684 56.6362 25.5846 56.3991 25.632C56.1792 25.676 55.9636 25.7468 55.7538 25.8322C55.2774 26.0267 54.8151 26.2629 54.3655 26.5114C53.916 26.7598 53.4365 27.0554 52.9925 27.3583C52.7802 27.5033 52.5258 27.6049 52.2791 27.4684C52.0475 27.3401 51.9116 27.0546 51.7672 26.8426L51.7619 26.8349C51.5952 26.5905 51.4285 26.3461 51.2619 26.1018C51.0645 25.8122 50.8672 25.5226 50.6702 25.2331L51.2011 25.1105C51.2213 25.4412 51.2416 25.7714 51.2619 26.1018C51.2743 26.3029 51.2867 26.504 51.299 26.7053C51.3298 27.1968 51.4694 27.8249 51.0947 28.2241C50.9413 28.3883 50.7229 28.4693 50.5191 28.5524C50.263 28.6559 50.0065 28.7604 49.7515 28.8642L49.7455 28.8666C49.5001 28.9661 49.2547 29.0655 49.0093 29.165C48.7618 29.2655 48.5142 29.366 48.2665 29.4669L48.2172 28.9509C48.4814 29.0223 48.7454 29.0937 49.0093 29.165C49.4383 29.281 49.8671 29.3969 50.2963 29.513C50.8462 29.6613 51.5536 29.7651 51.915 30.2557C52.1055 30.5134 52.0944 30.8162 52.1102 31.1236C52.1322 31.5257 52.1505 31.9395 52.1926 32.3336C52.2195 32.5823 52.2546 32.8312 52.3099 33.0757C52.3234 33.1361 52.3356 33.1941 52.3489 33.25C52.3817 33.3883 52.4207 33.5132 52.5012 33.6281L52.4039 33.5232C52.3981 33.5191 52.1985 33.5085 52.2015 33.5176C52.2027 33.5215 52.2297 33.4875 52.2297 33.4875C52.2425 33.4692 52.2538 33.4515 52.2655 33.4328C52.2761 33.4138 52.2769 33.4152 52.2681 33.4359L52.2894 33.3861C52.3092 33.3407 52.329 33.2953 52.3489 33.25C52.3902 33.1558 52.4319 33.0619 52.475 32.969C52.6104 32.6761 52.7519 32.3862 52.8966 32.0974C53.1732 31.5462 53.4549 30.9977 53.6954 30.4296C53.7487 30.3029 53.8379 30.2433 53.9735 30.232C54.4587 30.1927 54.9211 30.2803 55.3853 30.4117C55.7111 30.5039 56.0226 30.5728 56.3466 30.5939C56.4842 30.6029 56.6241 30.6032 56.7682 30.5931L56.4861 30.9373C56.444 30.8209 56.3974 30.7064 56.3466 30.5939C56.1555 30.1712 55.9043 29.7774 55.6055 29.421C55.2272 28.9698 54.748 28.5322 54.2907 28.119C54.1781 28.0177 54.203 27.8189 54.307 27.7228C54.3207 27.7103 54.335 27.6995 54.3497 27.6904C54.464 27.6195 54.6047 27.6491 54.7054 27.7391C55.1831 28.1703 55.6647 28.6039 56.072 29.1026C56.4792 29.6014 56.8093 30.1857 57.0343 30.8082C57.1015 30.9954 56.9124 31.1416 56.7522 31.1524C56.2527 31.1885 55.7742 31.1031 55.2946 30.9681C54.8477 30.842 54.4255 30.7539 53.9575 30.7913L54.2356 30.5937C53.8627 31.4756 53.392 32.3111 52.9935 33.1804C52.8632 33.4643 52.6608 34.1801 52.2047 34.0453C51.9235 33.9628 51.8367 33.5151 51.7777 33.2671C51.6305 32.652 51.5965 32.0105 51.5624 31.3807C51.5552 31.2553 51.5491 31.1303 51.5418 31.0049C51.5385 30.9546 51.5363 30.9047 51.5318 30.854C51.5299 30.8335 51.528 30.813 51.5272 30.7928C51.5215 30.716 51.5305 30.8126 51.5257 30.7747C51.5211 30.744 51.5175 30.7136 51.5128 30.6828C51.5108 30.6705 51.5062 30.6585 51.5041 30.6461C51.4994 30.5966 51.5438 30.7123 51.5099 30.6655C51.4093 30.5256 51.3097 30.4318 51.1489 30.3568C50.9531 30.2653 50.7383 30.216 50.5305 30.1594C50.2552 30.0846 49.9796 30.0109 49.7043 29.936C49.1534 29.7875 48.6026 29.6389 48.052 29.4892C47.8298 29.4295 47.7735 29.0662 48.0027 28.9733C48.4641 28.7859 48.924 28.5993 49.3853 28.412C49.616 28.3183 49.8466 28.2247 50.0759 28.1317C50.2631 28.0565 50.4863 27.9945 50.65 27.8733C50.8137 27.7522 50.7839 27.5202 50.7749 27.3473C50.7617 27.0923 50.744 26.837 50.7276 26.5809C50.6967 26.0858 50.6668 25.591 50.6359 25.0959C50.6288 24.9741 50.7401 24.858 50.8533 24.8316C50.9841 24.8013 51.0952 24.8693 51.1669 24.9733C51.4694 25.4178 51.773 25.8626 52.0755 26.307C52.2222 26.5232 52.3959 26.7358 52.5281 26.9605C52.5337 26.9692 52.5431 26.9732 52.5482 26.9795C52.5515 26.984 52.5058 26.9982 52.541 26.9761C52.5702 26.9581 52.6073 26.9448 52.6368 26.9257C52.7405 26.8612 52.8397 26.7883 52.9419 26.721C53.7667 26.1745 54.6508 25.6649 55.577 25.3054C56.0743 25.1126 56.6013 24.9759 57.1385 25.0429C57.3771 25.0724 57.5084 25.3496 57.3208 25.5291C56.4866 26.3274 55.6534 27.1259 54.8189 27.9252C54.6141 28.1215 54.3355 27.9113 54.3497 27.6904C54.3537 27.6292 54.3801 27.5671 54.4369 27.5127L54.4393 27.5087Z" fill="#52AE32"/>
<path d="M56.3991 25.632C55.7457 26.2579 55.0928 26.8834 54.4393 27.5087L54.4369 27.5127C54.3801 27.5671 54.3537 27.6292 54.3497 27.6904C54.335 27.6995 54.3207 27.7103 54.307 27.7228C54.203 27.8189 54.1781 28.0177 54.2907 28.119C54.748 28.5322 55.2272 28.9698 55.6055 29.421C55.9043 29.7774 56.1555 30.1712 56.3466 30.5939C56.0226 30.5728 55.7111 30.5039 55.3853 30.4117C54.9211 30.2803 54.4587 30.1927 53.9735 30.232C53.8379 30.2433 53.7487 30.3029 53.6954 30.4296C53.4549 30.9977 53.1732 31.5462 52.8966 32.0974C52.7519 32.3862 52.6104 32.6761 52.475 32.969C52.4319 33.0619 52.3902 33.1558 52.3489 33.25C52.3356 33.1941 52.3234 33.1361 52.3099 33.0757C52.2546 32.8312 52.2195 32.5823 52.1926 32.3336C52.1505 31.9395 52.1322 31.5257 52.1102 31.1236C52.0944 30.8162 52.1055 30.5134 51.915 30.2557C51.5536 29.7651 50.8462 29.6613 50.2963 29.513L49.0093 29.165C49.2547 29.0655 49.5001 28.9661 49.7455 28.8666L49.7515 28.8642C50.0065 28.7604 50.263 28.6559 50.5191 28.5524C50.7229 28.4693 50.9413 28.3883 51.0947 28.2241C51.4694 27.8249 51.3298 27.1968 51.299 26.7053L51.2619 26.1018C51.4285 26.3461 51.5952 26.5905 51.7619 26.8349L51.7672 26.8426C51.9116 27.0546 52.0475 27.3401 52.2791 27.4684C52.5258 27.6049 52.7802 27.5033 52.9925 27.3583C53.4365 27.0554 53.916 26.7598 54.3655 26.5114C54.8151 26.2629 55.2774 26.0267 55.7538 25.8322C55.9636 25.7468 56.1792 25.676 56.3991 25.632Z" fill="#52AE32"/>
<path d="M77.3218 33.7711C77.3446 33.8077 77.3671 33.8425 77.3896 33.8774C77.3194 33.7678 77.3119 33.7562 77.3647 33.8393C77.3995 33.8923 77.4343 33.9452 77.4673 33.9985C77.5474 34.123 77.629 34.2453 77.7127 34.3691C77.8831 34.6236 78.0568 34.8757 78.2341 35.1272C78.583 35.6183 78.9436 36.1018 79.317 36.5739C79.611 36.9473 79.5989 37.5477 79.2006 37.8531C78.8022 38.1584 78.2292 38.14 77.9164 37.7423C77.1076 36.7165 76.3633 35.6447 75.6655 34.5411C75.5494 34.3565 75.5667 34.0295 75.6398 33.8367C75.7182 33.6318 75.9026 33.4182 76.1085 33.3334C76.3301 33.2423 76.5909 33.2089 76.8161 33.3049C77.0413 33.4009 77.1862 33.5585 77.3197 33.7696L77.3218 33.7711Z" fill="#1C1C1C"/>
<defs>
<clipPath id="clip0_811_30955">
<rect width="17.8374" height="20.2698" fill="white" transform="translate(80.7324 71.3906)"/>
</clipPath>
</defs>
</svg>
