<svg width="167" height="130" viewBox="0 0 167 130" fill="none" xmlns="http://www.w3.org/2000/svg">
<g opacity="0.25">
<path d="M99.1521 10.6001L92.9768 36.1837L68.2754 47.6522L88.5658 55.5919L81.5083 86.4686L105.327 69.7069L130.029 86.4686L121.207 58.2385L145.026 38.8302L116.796 37.948L99.1521 10.6001Z" fill="#F1BB3F"/>
<path d="M48.8666 63.5312L42.6912 89.1148L18.8721 102.348L38.2803 108.523L31.2228 139.4L55.0419 122.638L79.7433 139.4L70.9214 111.17L94.7406 94.408L66.5104 90.8792L48.8666 63.5312Z" fill="#A57A00"/>
<path d="M138.851 60.0029L125.618 75.0002L107.974 75.8824L118.56 85.5865C114.737 90.8796 107.092 101.642 107.092 102.348C107.092 103.054 119.442 99.7016 125.618 97.9372L137.969 112.934V95.2906L160.905 90.8796L140.615 80.2933L138.851 60.0029Z" fill="#D49A00"/>
</g>
</svg>
