<svg width="140" height="140" viewBox="0 0 140 140" fill="none" xmlns="http://www.w3.org/2000/svg">
<path d="M34.1193 58.7608C34.1193 58.7608 36.651 60.4479 38.5103 60.3526C40.3697 60.2572 42.7307 59.8868 47.0044 58.4824C51.2892 57.0719 55.1228 55.7932 56.36 51.8092L43.6809 55.7569L34.1193 58.7608Z" fill="#DADADA"/>
<path d="M31.2731 56.8275C31.2731 56.8275 32.1131 59.1388 34.7884 59.3757C37.4526 59.6187 46.4076 58.4343 51.4152 55.9779C56.4292 53.5324 58.2775 50.758 57.8261 48.5657C57.3748 46.3734 48.3291 17.5223 48.1 16.7817C47.871 16.0411 45.5265 13.8327 44.796 13.0061C44.0655 12.1794 43.6496 11.599 43.6496 11.599C43.6496 11.599 41.9481 14.0908 37.742 15.718C33.536 17.3452 26.4742 18.5457 24.6148 18.6411C22.7555 18.7364 21.804 18.3196 21.804 18.3196C21.804 18.3196 21.0137 21.4669 20.8539 22.4495C20.694 23.4322 20.4958 23.9596 21.7774 27.6456C23.0542 31.3488 29.935 52.9125 31.2731 56.8275Z" fill="#E30613"/>
<path d="M54.165 54.3839C52.8161 49.2622 49.9705 38.9122 47.1649 31.8605C44.8853 26.1519 39.4448 17.773 38.0109 15.5995C37.9218 15.6484 37.8437 15.6912 37.742 15.718C36.3602 16.2445 34.6794 16.7329 32.9722 17.149C35.212 18.7074 42.3142 24.1111 45.8405 32.5144C49.6441 41.5886 46.8231 55.2182 46.2346 57.7928C48.1326 57.301 49.9446 56.683 51.4264 55.9717C52.4882 55.4475 53.3836 54.9133 54.1761 54.3778L54.165 54.3839Z" fill="white"/>
<path d="M21.745 18.5252C21.745 18.5252 21.0794 17.3742 21.016 16.8748C20.9589 16.3865 22.0474 15.2123 24.8466 13.5768C27.6347 11.9473 34.3639 10.2363 37.1449 9.67895C39.926 9.12163 42.9014 9.2951 43.3466 10.1338C43.798 10.9835 43.7529 11.73 43.7529 11.73C43.7529 11.73 41.9264 13.8717 39.4413 15.133C36.945 16.4004 31.9649 17.6146 28.7424 18.2695C24.5231 19.1244 21.745 18.5252 21.745 18.5252Z" fill="#DADADA"/>
<path d="M23.0173 17.8566C23.0173 17.8566 23.0024 16.9265 25.073 15.6037C27.1325 14.287 30.9317 13.1283 33.0143 12.5497C35.0968 11.971 35.1477 11.9576 35.1477 11.9576C35.1477 11.9576 39.7512 10.5167 41.9982 11.9846C41.9982 11.9846 41.2758 13.651 35.8354 15.2908C30.4061 16.9244 27.0893 18.0064 23.0173 17.8566Z" fill="#9D9D9C"/>
<path d="M37.8715 12.2545C37.0809 12.5868 34.4081 13.2581 35.2428 12.2808C35.2428 12.2808 35.8297 11.8724 36.9679 11.6383C38.1235 11.409 38.6621 11.9222 37.8715 12.2545ZM34.3622 13.2544C34.2612 13.5407 31.308 14.2068 31.308 14.2068L31.0669 13.5739C31.0669 13.5739 32.7064 12.935 33.4019 12.7702C34.1086 12.5994 34.4631 12.968 34.3622 13.2544ZM38.9007 11.1562C38.4877 10.7618 37.7119 11.0428 36.7885 11.3468C35.8651 11.6509 33.4477 12.2832 32.1797 12.6751C30.9054 13.0561 29.8558 13.4727 29.4686 13.8726C29.0814 14.2725 28.9578 14.4413 29.2179 14.7463C29.2179 14.7463 30.0051 15.4408 30.7773 15.2051C31.5495 14.9695 33.0972 14.3231 34.3555 13.9654C35.6137 13.6077 37.9399 13.2276 38.7738 12.8426C39.5903 12.4528 39.3199 11.5616 38.9069 11.1672" fill="white"/>
<path d="M120.753 52.9616C118.392 73.5919 99.7539 88.4021 79.1236 86.0411C58.4933 83.6801 43.6832 65.042 46.0442 44.4117C48.4052 23.7814 67.0433 8.97126 87.6735 11.3323C108.304 13.6933 123.114 32.3314 120.753 52.9616Z" fill="#D49A00"/>
<path d="M80.3458 15.0293C80.3458 15.0293 83.3865 15.3729 85.3062 16.7343C87.3818 18.2038 88.9352 20.2596 92.0894 19.0856C95.2435 17.9116 98.0323 19.2151 99.531 22.1815C101.03 25.148 102.01 26.8348 105.08 27.0682C108.149 27.3016 109.621 27.1159 109.312 30.4657C109.002 33.8155 110.544 33.3623 113.052 35.7358C115.56 38.1093 112.336 39.5508 113.358 43.2499C114.38 46.949 114.786 46.4838 113.649 51.9038C112.512 57.3239 114.417 59.8251 111.496 63.3645C108.58 66.8881 106.897 67.8764 106.784 71.5635C106.67 75.2507 105.213 74.2965 102.998 75.1451C100.783 75.9936 98.4856 72.8176 94.9661 76.469C91.4467 80.1204 87.6485 79.4099 85.3221 78.5137C82.9956 77.6175 80.6692 76.7212 78.4543 77.5698C76.2394 78.4183 73.8842 79.8019 71.7539 79.243C69.6235 78.6841 70.732 75.5439 68.0547 75.9852C65.3774 76.4265 62.3223 75.0532 62.0848 72.7036C61.8474 70.3539 60.9928 69.272 59.5354 68.3178C58.078 67.3636 58.1873 66.1814 56.6184 63.4824C55.0495 60.7835 53.173 56.0024 53.2865 52.3153C53.3999 48.6281 55.014 42.4754 55.1874 39.6449C55.3566 36.8301 54.1697 33.4409 57.0059 31.3089C59.838 29.1927 58.6902 24.8887 61.9702 24.3196C65.2503 23.7505 68.1939 23.3791 71.447 19.6578C74.696 15.9523 77.4329 14.837 80.3458 15.0293Z" fill="#FFED00"/>
<path d="M92.238 46.4719C87.8574 44.2799 84.8355 37.4829 87.1101 33.4713C89.3847 29.4597 94.9991 28.2247 97.4222 28.6249C97.4222 28.6249 101.906 29.1454 104.007 33.2622C106.108 37.3789 105.439 41.5257 103.042 43.7727C100.628 46.0156 96.6227 48.6481 92.238 46.4719Z" fill="#E30613"/>
<path d="M78.7663 72.4883C74.3857 70.2963 71.3638 63.4993 73.6384 59.4877C75.913 55.4761 81.5274 54.2411 83.9505 54.6413C83.9505 54.6413 88.4348 55.1618 90.5358 59.2785C92.6368 63.3953 91.9674 67.5421 89.5698 69.7891C87.1565 72.032 83.151 74.6645 78.7663 72.4883Z" fill="#E30613"/>
<path d="M67.563 49.3331C63.1824 47.1411 60.1606 40.3441 62.4352 36.3325C64.7098 32.3208 70.3242 31.0859 72.7473 31.4861C72.7473 31.4861 77.2315 32.0066 79.3284 36.1391C81.4294 40.2558 80.7601 44.4026 78.3624 46.6497C75.9492 48.8926 71.9436 51.5251 67.5589 49.3488" fill="#E30613"/>
<path d="M34.0707 38.7758C34.0707 38.7758 38.2632 38.0096 39.5905 37.8958C41.3813 37.7508 44.0991 38.7758 46.0374 39.2209C47.9756 39.6558 49.9139 41.1259 51.7152 41.861C53.506 42.596 56.0447 45.381 57.0876 46.261C58.1304 47.141 58.4359 50.661 59.3313 52.7213C60.2267 54.7712 61.2696 61.0866 59.6263 64.4616C57.9829 67.8367 54.2539 72.8269 52.6106 73.9968C50.9673 75.1667 49.4715 76.7818 47.3857 76.9267C45.3 77.0716 41.2654 77.9516 39.6221 78.3968C37.9788 78.842 32.006 77.9516 29.6148 75.9017C27.2236 73.8518 24.8429 70.7666 22.8941 68.8617C20.9664 66.9567 18.7226 61.6663 19.0281 57.8564C19.3231 54.0361 21.2719 48.021 24.1055 44.2111C26.9392 40.4012 30.0362 39.5108 34.0707 38.7758Z" fill="#E3AD77"/>
<path d="M54.5594 60.4136C54.5594 60.4136 53.2426 59.7717 52.9477 59.6475C52.6527 59.5336 51.2201 59.6475 50.9778 60.5896C50.7355 61.5317 51.7573 62.6188 52.5263 63.1675C53.3058 63.7266 53.8957 64.5755 54.6121 63.6955C55.3284 62.8155 55.9288 60.9934 54.5489 60.4032" fill="#4F2F10"/>
<path d="M47.3963 48.3627C47.3963 48.3627 48.8289 47.7725 49.482 47.8968C50.1351 48.0107 50.2615 47.9589 50.6724 47.8968C51.0937 47.8347 50.9673 48.4248 51.4519 49.0667C51.9259 49.7086 51.9575 50.6507 50.9778 51.0027C49.9876 51.3547 48.8816 51.2719 48.1126 51.8206C47.3331 52.3796 45.9004 52.7938 45.4264 52.5867C44.9524 52.3796 45.2473 51.5928 45.1315 50.9095C45.0156 50.2366 46.09 48.5283 47.3963 48.3523" fill="#4F2F10"/>
<path d="M34.8607 44.2422C34.8607 44.2422 35.1346 44.853 35.7561 45.5363C36.3776 46.2196 37.8103 46.2196 37.6944 45.3396C37.5785 44.4596 37.2309 44.1593 37.4627 43.7038C37.6944 43.2483 36.9149 42.9066 36.1459 42.7927C35.3664 42.6789 34.1234 43.093 34.8607 44.2422Z" fill="#4F2F10"/>
<path d="M38.5055 57.8667C38.5055 57.8667 39.4009 57.8667 39.8223 58.9228C40.2436 59.9788 39.9381 60.6828 39.5273 61.2108C39.106 61.7388 38.6951 61.0969 37.8208 60.0719C36.957 59.047 37.431 57.5769 38.5055 57.8667Z" fill="#4F2F10"/>
<path d="M29.5621 68.7064C29.5621 68.7064 30.0046 68.1784 30.7841 68.0024C31.5636 67.8264 31.6163 67.7125 31.7954 66.8014C31.9744 65.8904 31.4372 65.5694 30.5418 65.3002C29.6464 65.0311 29.2251 64.7722 28.8669 65.6522C28.5087 66.5323 28.1822 67.1224 28.5719 67.7643C28.9617 68.4062 28.751 68.8203 29.4041 68.7064" fill="#4F2F10"/>
<path d="M26.2018 57.6493C26.2018 57.6493 27.213 57.1213 28.0242 56.0653C28.8353 55.0093 28.2348 54.0672 28.1716 53.0733C28.1084 52.0794 27.3921 52.0794 25.9279 52.1933C24.4637 52.3072 23.8105 53.6634 23.9264 55.1853C24.0423 56.7176 24.2846 57.8253 26.1912 57.6493" fill="#4F2F10"/>
<path d="M44.8575 66.3977C44.8575 66.3977 46.3534 66.1078 46.9433 67.2777C47.5437 68.4476 47.5437 69.6278 46.4903 70.9427C45.4474 72.2678 43.9516 72.5577 42.1608 72.2678C40.37 71.978 40.0751 70.3629 40.5175 68.3026C40.9599 66.2527 43.2037 66.3977 44.847 66.3977" fill="#4F2F10"/>
<path d="M55.4996 71.6767C55.4996 71.6767 51.3693 63.4173 52.3217 60.8701C53.2741 58.3229 54.2987 55.6274 52.006 54.3759C49.7038 53.1327 48.7937 56.5716 45.973 56.2761C43.1524 55.9807 42.2058 56.5973 41.8467 57.7253C41.4971 58.8448 41.4876 59.9849 43.5619 60.8551C45.6278 61.7158 46.5115 60.817 48.6565 66.9452C50.8015 73.0735 51.2069 74.472 51.2069 74.472L55.4996 71.6767Z" fill="white"/>
<path d="M51.4663 63.8722C51.4663 63.8722 46.3477 63.2589 46.7815 70.8649C47.2069 78.4614 46.194 89.6087 57.95 100.321C69.6975 111.023 79.3551 117.846 87.4189 107.024C95.1274 96.7016 87.8986 85.5884 69.805 80.7279C55.6956 76.9424 61.9126 66.6201 51.4759 63.8638" fill="#D34B11"/>
<path d="M63.9492 85.6622L65.2378 128.644L118.155 103.267L119.271 62.085L63.9492 85.6622Z" fill="#168529"/>
<path d="M19 59.4912L21.4522 99.8584L65.678 128.644L64.1778 86.1296L19 59.4912Z" fill="#52AE32"/>
</svg>
